<ttFont>
<head>
    <!-- Most of this table will be recalculated by the compiler -->
    <tableVersion value="1.0"/>
    <fontRevision value="1.0"/>
    <checkSumAdjustment value="0x6c2e870c"/>
    <magicNumber value="0x5f0f3cf5"/>
    <flags value="00000000 00000011"/>
    <unitsPerEm value="2048"/>
    <created value="Thu Aug 15 19:11:13 2019"/>
    <modified value="Fri Aug 16 02:19:17 2019"/>
    <xMin value="-560"/>
    <yMin value="-501"/>
    <xMax value="4004"/>
    <yMax value="2070"/>
<macStyle value="00000000 00000010"/>
    <lowestRecPPEM value="3"/>
    <fontDirectionHint value="2"/>
    <indexToLocFormat value="0"/>
    <glyphDataFormat value="0"/>
  </head>
          <CharString index="0">
            -74 callsubr
            65 -68 122 hhcurveto
            return
          </CharString>
          <CharString index="1">
            rmoveto
            -254 132 -134 168 return
          </CharString>
          <CharString index="2">
            rmoveto
            -30 callsubr
            44 callsubr
            endchar
          </CharString>
          <CharString index="3">
            131 -6 callsubr
            -58 callsubr
            -72 callsubr
            0 callsubr
            endchar
          </CharString>
          <CharString index="4">
            rmoveto
            -48 callsubr
            48 callsubr
            hvcurveto
            -60 callsubr
            160 callsubr
            endchar
          </CharString>
          <CharString index="5">
            rmoveto
            -1194 hlineto
            -27 -127 -61 callgsubr
            1230 -29 callgsubr
            return
          </CharString>
          <CharString index="6">
            71 callgsubr
            -5 -27 -13 vvcurveto
            -129 -9 68 -68 127 hhcurveto
            return
          </CharString>
          <CharString index="7">
            149 callsubr
            endchar
          </CharString>
          <CharString index="8">
            5 callsubr
            endchar
          </CharString>
          <CharString index="9">
            -44 callsubr
            endchar
          </CharString>
          <CharString index="10">
            rmoveto
            75 callgsubr
            return
          </CharString>
          <CharString index="11">
            rmoveto
            171 150 68 102 75 hvcurveto
            27 129 rlineto
            -53 -29 callsubr
            43 callsubr
            endchar
          </CharString>
          <CharString index="12">
            rmoveto
            -35 callsubr
            137 627 20 88 22 19 133 22 135 callsubr
            40 callsubr
            rlineto
            123 -22 15 -19 -19 -88 -117 -553 rcurveline
            -19 callsubr
            endchar
          </CharString>
          <CharString index="13">
            rmoveto
            47 callsubr
            79 callsubr
            -17 callsubr
            55 callsubr
            endchar
          </CharString>
          <CharString index="14">
            rmoveto
            -92 -76 -75 -91 -85 66 -68 89 93 return
          </CharString>
          <CharString index="15">
            1876 rmoveto
            -202 return
          </CharString>
          <CharString index="16">
            -161 -761 377 0 return
          </CharString>
          <CharString index="17">
            1885 rmoveto
            -213 -138 -156 138 -147 0 return
          </CharString>
          <CharString index="18">
            -103 -84 -82 -103 -93 73 -75 99 hvcurveto
            return
          </CharString>
          <CharString index="19">
            41 callsubr
            endchar
          </CharString>
          <CharString index="20">
            -321 131 0 29 callsubr
            return
          </CharString>
          <CharString index="21">
            54 -15 9 -18 -12 -56 return
          </CharString>
          <CharString index="22">
            rlineto
            -86 callsubr
            return
          </CharString>
          <CharString index="23">
            1182 rmoveto
            241 187 161 -187 151 0 return
          </CharString>
          <CharString index="24">
            178 363 -106 callsubr
            return
          </CharString>
          <CharString index="25">
            77 75 93 84 -67 67 -90 hvcurveto
            endchar
          </CharString>
          <CharString index="26">
            rmoveto
            -481 -61 -25 -126 56 -13 61 -17 15 -16 3 -50 rlinecurve
            55 -915 -106 -84 -184 -118 -144 -77 rlinecurve
            -39 399 vlineto
            77 81 72 79 66 75 78 85 75 86 70 85 rrcurveto
            299 366 181 319 155 vvcurveto
            114 -85 80 -111 -108 -86 -77 -105 -97 76 -79 97 -5 vhcurveto
            -58 -183 -131 -190 -148 -180 rrcurveto
            endchar
          </CharString>
          <CharString index="27">
            -90 -438 rlineto
            -183 -38 72 -89 154 hhcurveto
            132 17 callsubr
            -72 callsubr
            78 366 rlineto
            233 49 -84 249 callsubr
            return
          </CharString>
          <CharString index="28">
            1594 rmoveto
            -241 -187 -161 187 -151 0 return
          </CharString>
          <CharString index="29">
            383 88 347 -88 22 106 -293 75 callsubr
            return
          </CharString>
          <CharString index="30">
            rmoveto
            652 hlineto
            40 186 rlineto
            -652 hlineto
            endchar
          </CharString>
          <CharString index="31">
            -160 -20 rlinecurve
            -27 -126 757 0 27 126 -150 20 -16 19 18 85 rlinecurve
            5 callgsubr
            -120 382 -40 -17 callgsubr
            245 callsubr
            endchar
          </CharString>
          <CharString index="32">
            -205 -963 rcurveline
            -183 -39 73 -89 154 hhcurveto
            133 17 callsubr
            -10 callsubr
            return
          </CharString>
          <CharString index="33">
            160 122 94 159 67 vhcurveto
            -3 -10 -3 -27 -13 vvcurveto
            -129 -10 return
          </CharString>
          <CharString index="34">
            1508 -49 callsubr
            return
          </CharString>
          <CharString index="35">
            -34 hhcurveto
            -51 -16 35 74 16 hvcurveto
            return
          </CharString>
          <CharString index="36">
            rmoveto
            102 82 80 96 -1 hvcurveto
            90 return
          </CharString>
          <CharString index="37">
            83 101 94 -73 75 -98 return
          </CharString>
          <CharString index="38">
            rlinecurve
            -258 -1216 return
          </CharString>
          <CharString index="39">
            66 -68 124 hhcurveto
            130 -6 callsubr
            -58 callsubr
            -34 hhcurveto
            -50 -17 35 74 16 hvcurveto
            return
          </CharString>
          <CharString index="40">
            -34 hvcurveto
            -38 12 rlineto
            16 -48 -49 13 -58 hhcurveto
            -135 -102 -81 -137 return
          </CharString>
          <CharString index="41">
            1555 rmoveto
            92 76 75 92 84 -66 68 -89 -93 return
          </CharString>
          <CharString index="42">
            129 -412 285 0 298 412 rlineto
            return
          </CharString>
          <CharString index="43">
            rmoveto
            188 -543 -72 -342 -18 -85 -24 -19 return
          </CharString>
          <CharString index="44">
            1594 rmoveto
            -226 -412 159 0 return
          </CharString>
          <CharString index="45">
            1195 rmoveto
            110 88 88 108 100 return
          </CharString>
          <CharString index="46">
            rmoveto
            208 95 77 126 118 -92 73 return
          </CharString>
          <CharString index="47">
            -361 -7 238 -315 469 hhcurveto
            return
          </CharString>
          <CharString index="48">
            -518 -12 callgsubr
            return
          </CharString>
          <CharString index="49">
            128 rlineto
            -22 -30 -39 -10 return
          </CharString>
          <CharString index="50">
            rmoveto
            -480 -61 -26 -126 return
          </CharString>
          <CharString index="51">
            rmoveto
            223 169 151 -169 140 0 -122 371 -265 0 -275 -371 rlineto
            endchar
          </CharString>
          <CharString index="52">
            rmoveto
            -535 -65 -26 -121 72 -18 -86 callsubr
            rlinecurve
            -142 -671 -54 -256 -41 -98 return
          </CharString>
          <CharString index="53">
            34 hvcurveto
            -145 hlineto
            -51 -11 -29 -24 -44 hhcurveto
            -26 -28 9 13 return
          </CharString>
          <CharString index="54">
            1263 rmoveto
            701 hlineto
            44 206 rlineto
            -701 hlineto
            return
          </CharString>
          <CharString index="55">
            -13 callsubr
            158 0 -7 callsubr
            return
          </CharString>
          <CharString index="56">
            104 445 rlineto
            -116 hlineto
            -113 -258 -64 -24 return
          </CharString>
          <CharString index="57">
            128 -321 283 0 258 321 rlineto
            return
          </CharString>
          <CharString index="58">
            rmoveto
            -538 -64 -26 -122 73 -17 return
          </CharString>
          <CharString index="59">
            497 308 379 451 return
          </CharString>
          <CharString index="60">
            377 79 callgsubr
            return
          </CharString>
          <CharString index="61">
            rmoveto
            132 102 95 161 return
          </CharString>
          <CharString index="62">
            rmoveto
            -123 73 -115 159 -56 vhcurveto
            -157 -38 -91 -87 1 -105 rrcurveto
            -70 37 -61 82 -38 vhcurveto
            -183 -28 -99 -84 -96 vvcurveto
            -151 206 -93 310 344 255 135 224 163 -121 109 -214 33 vhcurveto
            -208 31 -96 15 -26 24 -1 31 rlinecurve
            29 24 21 35 11 vhcurveto
            -7 43 47 -4 52 hhcurveto
            320 191 175 219 54 -14 54 -31 48 hvcurveto
            219 -50 34 174 -393 -11 rlineto
            32 -71 -95 19 -123 hhcurveto
            -313 -1 -196 -154 -229 vvcurveto
            361 -24 rmoveto
            122 54 142 100 73 38 -67 -93 -130 -55 -135 -100 -73 -37 69 92 vhcurveto
            -257 -827 rmoveto
            58 39 44 68 25 vhcurveto
            2 3 -1 2 hhcurveto
            205 -30 rlineto
            138 -20 40 -36 -56 vvcurveto
            -76 -107 -51 -145 -156 -89 57 86 vhcurveto
            endchar
          </CharString>
          <CharString index="63">
            -51 -26 -235 -8 rrcurveto
            -219 -9 110 518 rlineto
            172 hlineto
            67 17 -25 -167 -7 hvcurveto
            109 hlineto
            113 530 rlineto
            -109 hlineto
            -166 -65 -28 -26 -67 hhcurveto
            -171 hlineto
            104 490 199 -7 219 -8 37 -32 9 -216 rlinecurve
            115 hlineto
            return
          </CharString>
          <CharString index="64">
            rmoveto
            374 214 371 275 176 96 -109 -209 6 vhcurveto
            115 -4 61 347 rlineto
            78 -107 -199 -45 callgsubr
            return
          </CharString>
          <CharString index="65">
            rmoveto
            222 168 115 190 33 hvcurveto
            -144 hlineto
            -67 -19 -96 -44 -122 hhcurveto
            -122 -78 45 66 10 hvcurveto
            -145 hlineto
            -190 -48 120 -115 221 hhcurveto
            return
          </CharString>
          <CharString index="66">
            -189 -96 rlinecurve
            38 -117 364 94 187 143 74 347 rlinecurve
            endchar
          </CharString>
          <CharString index="67">
            1594 rmoveto
            -396 -15 hlineto
            341 -397 rlineto
            151 hlineto
            return
          </CharString>
          <CharString index="68">
            12 callgsubr
            rlineto
            -232 -49 98 -132 226 hhcurveto
            return
          </CharString>
          <CharString index="69">
            -321 132 0 404 309 rlineto
            11 vlineto
            return
          </CharString>
          <CharString index="70">
            1206 rmoveto
            103 83 -70 callsubr
            return
          </CharString>
          <CharString index="71">
            494 hmoveto
            103 83 -70 callsubr
            return
          </CharString>
          <CharString index="72">
            342 242 205 389 85 hvcurveto
            return
          </CharString>
          <CharString index="73">
            159 0 478 397 rlineto
            15 vlineto
            return
          </CharString>
          <CharString index="74">
            1578 -22 callgsubr
            return
          </CharString>
          <CharString index="75">
            -76 -74 -94 -83 66 -68 90 hvcurveto
            return
          </CharString>
          <CharString index="76">
            rmoveto
            -6 -460 331 -225 387 -1 rrcurveto
            205 199 56 70 106 hvcurveto
            83 390 18 82 18 20 126 16 rlinecurve
            27 126 -651 0 -27 -126 rlineto
            139 -16 12 -19 -17 -81 -65 -317 rcurveline
            -20 -31 -48 -10 -47 hhcurveto
            -194 -125 157 266 374 216 371 275 175 96 -109 -209 6 hvcurveto
            115 -4 61 347 rlineto
            78 -106 -200 -45 callgsubr
            endchar
          </CharString>
          <CharString index="77">
            -148 1115 -347 0 -624 -1112 -92 -164 -27 -24 -124 -17 rlinecurve
            -27 -127 497 0 27 127 -142 22 -14 29 84 154 rlinecurve
            60 112 443 0 12 -112 return
          </CharString>
          <CharString index="78">
            -58 -89 -22 -77 hhcurveto
            -121 -97 65 145 -32 hvcurveto
            62 18 rlineto
            316 94 194 96 200 vvcurveto
            147 -144 101 -216 -332 -279 -253 -364 return
          </CharString>
          <CharString index="79">
            1418 1679 1444 rmoveto
            -1326 hlineto
            49 callsubr
            124 callsubr
            758 63 callsubr
            118 callsubr
            return
          </CharString>
          <CharString index="80">
            114 493 rlineto
            -115 hlineto
            -133 -290 -79 -46 -192 -6 rrcurveto
            -158 -6 return
          </CharString>
          <CharString index="81">
            -50 52 -74 hhcurveto
            -19 hlineto
            -75 -71 -52 -75 -16 hvcurveto
            -75 -16 49 -53 74 hhcurveto
            return
          </CharString>
          <CharString index="82">
            -461 -7 330 -225 386 hhcurveto
            186 161 callsubr
          </CharString>
          <CharString index="83">
            1348 749 1056 -97 callsubr
            return
          </CharString>
          <CharString index="84">
            128 -321 283 0 259 321 rlineto
            return
          </CharString>
          <CharString index="85">
            100 79 296 37 hvcurveto
            -144 hlineto
            -110 -17 return
          </CharString>
          <CharString index="86">
            46 -45 72 hhcurveto
            403 hmoveto
            -75 callgsubr
            return
          </CharString>
          <CharString index="87">
            -66 -45 -64 -14 hvcurveto
            -63 -13 47 -45 71 hhcurveto
            return
          </CharString>
          <CharString index="88">
            -453 -96 256 -215 345 hhcurveto
            return
          </CharString>
          <CharString index="89">
            412 -285 0 -299 -412 rlineto
            return
          </CharString>
          <CharString index="90">
            -200 -944 -103 callgsubr
            return
          </CharString>
          <CharString index="91">
            76 75 93 84 -66 67 -90 hvcurveto
            endchar
          </CharString>
          <CharString index="92">
            -9 -29 -21 -45 hhcurveto
            -27 -29 8 11 return
          </CharString>
          <CharString index="93">
            1594 rmoveto
            -326 -11 hlineto
            return
          </CharString>
          <CharString index="94">
            1594 rmoveto
            -225 -412 return
          </CharString>
          <CharString index="95">
            1555 262 callsubr
            return
          </CharString>
          <CharString index="96">
            55 76 68 hvcurveto
            27 128 rlineto
            return
          </CharString>
          <CharString index="97">
            -33 hhcurveto
            -51 -17 35 74 16 hvcurveto
            return
          </CharString>
          <CharString index="98">
            rmoveto
            135 -97 callgsubr
            return
          </CharString>
          <CharString index="99">
            rmoveto
            -75 callgsubr
            -48 45 return
          </CharString>
          <CharString index="100">
            479 397 rlineto
            15 vlineto
            return
          </CharString>
          <CharString index="101">
            126 56 76 67 hvcurveto
            28 return
          </CharString>
          <CharString index="102">
            -28 hvcurveto
            148 hlineto
            43 9 return
          </CharString>
          <CharString index="103">
            rmoveto
            86 406 107 0 211 -656 459 0 26 121 -62 27 -26 39 -78 227 rlinecurve
            -182 534 146 129 209 182 57 36 144 22 rlinecurve
            27 127 -561 0 -26 -127 125 -15 16 -39 -111 -110 rlinecurve
            -346 -345 -102 0 82 386 18 85 22 20 130 18 rlinecurve
            27 127 -712 0 -27 -127 137 -20 15 -18 -18 -85 rlinecurve
            -17 callsubr
            248 callsubr
            endchar
          </CharString>
          <CharString index="104">
            rmoveto
            98 -1116 338 0 480 937 65 -937 348 0 568 1114 83 164 34 23 120 16 rlinecurve
            27 127 -489 0 -27 -127 135 -13 6 -33 -70 -147 rlinecurve
            -366 -776 -44 765 -9 -18 callgsubr
            225 callsubr
            endchar
          </CharString>
          <CharString index="105">
            -22 -18 -137 -17 rlinecurve
            -27 -127 720 0 27 127 -138 92 callgsubr
            27 127 -720 0 -26 -127 128 80 callgsubr
            137 19 rlinecurve
            27 127 -720 0 -26 -127 136 69 callgsubr
            return
          </CharString>
          <CharString index="106">
            222 1049 18 85 24 17 155 22 rlinecurve
            27 126 -738 0 -27 -127 rlineto
            137 -20 15 -18 -18 -85 -200 -944 rcurveline
            -18 -85 -23 -17 -146 -21 -27 -127 rcurveline
            return
          </CharString>
          <CharString index="107">
            154 722 -215 0 -136 -114 rlineto
            75 -38 -86 64 -144 hhcurveto
            -314 -239 -302 -400 hvcurveto
            10 callgsubr
            return
          </CharString>
          <CharString index="108">
            586 1186 rmoveto
            116 92 92 113 105 -81 84 -110 -115 -94 -92 -115 -104 82 -83 110 hvcurveto
            return
          </CharString>
          <CharString index="109">
            253 1190 -537 -64 -26 -122 73 -17 rlineto
            54 -15 8 -18 -11 -56 -50 -236 rcurveline
            114 callgsubr
            return
          </CharString>
          <CharString index="110">
            rmoveto
            -516 -65 -25 -121 72 -18 32 callsubr
            -91 callsubr
            153 callsubr
            endchar
          </CharString>
          <CharString index="111">
            rmoveto
            173 153 253 callsubr
            211 callsubr
            -327 226 -146 225 vhcurveto
            endchar
          </CharString>
          <CharString index="112">
            121 131 56 76 67 hvcurveto
            27 128 rlineto
            -27 callgsubr
            8 callgsubr
            return
          </CharString>
          <CharString index="113">
            -240 -9 rrcurveto
            -237 101 callsubr
            -933 -1178 -26 -121 rlineto
            endchar
          </CharString>
          <CharString index="114">
            1711 671 250 rmoveto
            86 408 477 0 -87 -408 -19 -88 return
          </CharString>
          <CharString index="115">
            1259 1212 hmoveto
            -27 callsubr
            -1 callsubr
            return
          </CharString>
          <CharString index="116">
            62 callsubr
            -83 -79 -99 1 hvcurveto
            -89 1 73 -71 98 hhcurveto
            endchar
          </CharString>
          <CharString index="117">
            -24 -23 -33 hhcurveto
            -21 -18 10 16 -19 hvcurveto
            -24 20 rlineto
            36 -48 return
          </CharString>
          <CharString index="118">
            -73 72 -97 -103 -82 -79 -99 1 vhcurveto
            -89 73 -71 98 vhcurveto
            endchar
          </CharString>
          <CharString index="119">
            rmoveto
            -93 -76 -75 -91 -85 66 -68 89 94 -16 callsubr
          </CharString>
          <CharString index="120">
            1606 rmoveto
            631 hlineto
            40 187 rlineto
            -631 hlineto
            return
          </CharString>
          <CharString index="121">
            -49 -31 45 114 -3 hvcurveto
            232 -2 76 256 return
          </CharString>
          <CharString index="122">
            1555 rmoveto
            210 138 152 -138 return
          </CharString>
          <CharString index="123">
            -128 412 -286 0 -298 -412 rlineto
            return
          </CharString>
          <CharString index="124">
            129 56 76 68 hvcurveto
            27 -58 callsubr
            return
          </CharString>
          <CharString index="125">
            -74 -71 -52 -75 -17 hvcurveto
            -74 -15 48 -53 75 hhcurveto
            return
          </CharString>
          <CharString index="126">
            67 45 63 13 hvcurveto
            64 14 -48 45 -71 hhcurveto
            return
          </CharString>
          <CharString index="127">
            1731 828 119 callsubr
            return
          </CharString>
          <CharString index="128">
            860 513 -19 107 callsubr
            return
          </CharString>
          <CharString index="129">
            16 hvcurveto
            75 16 -49 52 -75 hhcurveto
            -19 hlineto
            return
          </CharString>
          <CharString index="130">
            -64 hhcurveto
            -110 -93 -71 -267 -32 hvcurveto
            return
          </CharString>
          <CharString index="131">
            rlinecurve
            27 127 -719 0 -27 -127 return
          </CharString>
          <CharString index="132">
            -134 hlineto
            -100 -15 -27 -26 -37 hhcurveto
            return
          </CharString>
          <CharString index="133">
            1594 54 callsubr
            return
          </CharString>
          <CharString index="134">
            1578 -25 callgsubr
            return
          </CharString>
          <CharString index="135">
            1555 rmoveto
            93 76 75 return
          </CharString>
          <CharString index="136">
            405 309 rlineto
            11 vlineto
            return
          </CharString>
          <CharString index="137">
            150 94 -121 -282 return
          </CharString>
          <CharString index="138">
            134 629 rlineto
            139 return
          </CharString>
          <CharString index="139">
            53 -15 9 -18 -12 -56 rlinecurve
            return
          </CharString>
          <CharString index="140">
            rmoveto
            -146 -162 -44 -28 -135 -18 rrcurveto
            -27 -127 519 0 26 127 -132 21 -5 32 116 133 rlinecurve
            213 247 106 -244 59 -134 -17 -30 -143 -22 rlinecurve
            -27 -127 761 0 27 127 -101 27 -34 27 -54 123 rlinecurve
            -197 451 316 355 142 159 46 27 134 18 rlinecurve
            27 127 -516 0 -27 -127 134 -21 4 -31 -116 -134 rlinecurve
            -202 -240 -105 240 -59 134 17 31 143 21 rlinecurve
            27 127 -761 0 -27 -127 rlineto
            102 -27 34 -27 53 -122 195 -447 rcurveline
            endchar
          </CharString>
          <CharString index="141">
            426 hlineto
            26 121 rlineto
            -65 20 -33 44 -72 183 -113 291 rcurveline
            197 69 152 129 208 vvcurveto
            245 -216 134 -408 vhcurveto
            -648 hlineto
            -27 -127 142 -15 14 -21 -17 -82 rlinecurve
            -204 -954 -18 -82 -21 -21 -149 -15 rlinecurve
            -27 -127 716 0 27 127 rlineto
            -123 18 -12 20 18 85 73 345 rcurveline
            129 hlineto
            6 5 0 6 hhcurveto
            317 451 rmoveto
            -162 -112 -134 -232 -7 vhcurveto
            -87 -2 117 554 63 -2 rlineto
            165 -5 86 -87 -155 vvcurveto
            return
          </CharString>
          <CharString index="142">
            27 127 rlineto
            -162 17 -15 24 17 80 60 281 rcurveline
            174 hlineto
            441 283 179 305 268 -186 163 -449 hvcurveto
            -642 hlineto
            -27 -127 rlineto
            143 -15 14 -23 -18 -81 -203 -952 rcurveline
            -17 -81 -23 -23 -149 -15 -27 -127 rcurveline
            849 1297 rmoveto
            57 -2 rlineto
            149 -8 104 -82 -171 vvcurveto
            -234 -153 -117 -204 -6 vhcurveto
            -86 -3 rlineto
            endchar
          </CharString>
          <CharString index="143">
            rmoveto
            -623 hlineto
            -27 -127 136 -17 9 -31 -24 -104 rlinecurve
            -209 -915 -19 -83 -23 -23 -143 -17 rlinecurve
            -27 -127 496 0 27 127 -138 17 -9 23 17 83 rlinecurve
            171 842 141 -1092 220 0 280 533 307 559 -164 -848 -16 -81 -22 -21 -148 -15 rlinecurve
            -27 -127 720 0 27 127 15 callgsubr
            endchar
          </CharString>
          <CharString index="144">
            222 -86 206 -174 123 hvcurveto
            -8 43 48 -4 50 hhcurveto
            196 143 87 148 104 -62 98 -92 54 hvcurveto
            -123 hlineto
            12 -20 5 -35 -36 vvcurveto
            -163 -108 -131 -163 vhcurveto
            -134 -93 31 -162 hhcurveto
            -7 callgsubr
            432 -107 rmoveto
            384 158 387 240 30 callsubr
            105 callgsubr
            endchar
          </CharString>
          <CharString index="145">
            rmoveto
            -534 -66 -26 -122 72 -18 rlineto
            54 -14 8 -19 -11 -56 -85 -399 rcurveline
            -233 -49 94 -153 222 hhcurveto
            159 130 93 160 87 hvcurveto
            -2 -11 -5 -27 -13 vvcurveto
            -129 -10 68 -67 127 hhcurveto
            121 131 -11 callsubr
            -22 -34 -37 -10 -72 callsubr
            200 callsubr
            endchar
          </CharString>
          <CharString index="146">
            171 778 rlineto
            -2 16 16 -2 17 hhcurveto
            181 119 88 149 108 -64 98 -77 51 hvcurveto
            -122 hlineto
            12 -20 5 -35 -36 vvcurveto
            -159 -103 -135 -212 vhcurveto
            -106 hlineto
            -27 -127 rlineto
            141 40 callsubr
            123 -22 15 -19 -19 -88 rlinecurve
            endchar
          </CharString>
          <CharString index="147">
            -24 13 -17 -18 -88 -126 -607 rcurveline
            -254 -54 -142 -110 -169 hhcurveto
            -186 -117 122 290 62 hvcurveto
            120 559 19 88 22 17 150 24 rlinecurve
            26 127 -716 0 -27 -127 return
          </CharString>
          <CharString index="148">
            rmoveto
            -536 -65 -26 -121 72 -18 -85 callsubr
            -108 -508 rcurveline
            -183 -39 73 -89 154 hhcurveto
            132 130 56 76 68 hvcurveto
            27 -58 callsubr
            -10 callsubr
            return
          </CharString>
          <CharString index="149">
            rmoveto
            102 -103 150 157 1 0 43 -28 rlineto
            -89 133 81 -35 105 hhcurveto
            151 153 98 238 116 139 callsubr
            32 callgsubr
            endchar
          </CharString>
          <CharString index="150">
            -327 222 -146 228 vhcurveto
            144 934 rmoveto
            54 27 -41 -59 -119 -100 -88 -148 -49 hvcurveto
            -38 -13 rlineto
            225 5 87 144 113 hhcurveto
            return
          </CharString>
          <CharString index="151">
            17 -154 -25 -29 -152 -22 rlinecurve
            -27 -127 740 0 -30 callgsubr
            -794 269 rmoveto
            285 530 58 -530 rlineto
            return
          </CharString>
          <CharString index="152">
            rmoveto
            227 168 98 161 27 hvcurveto
            -148 hlineto
            -56 -17 -96 -38 -125 hhcurveto
            -125 -81 39 55 7 hvcurveto
            -148 hlineto
            -161 -42 return
          </CharString>
          <CharString index="153">
            1589 rmoveto
            -222 -150 -141 -262 -9 hvcurveto
            142 hlineto
            99 18 89 57 119 hhcurveto
            108 return
          </CharString>
          <CharString index="154">
            201 944 18 85 23 18 145 20 rlinecurve
            27 127 -728 0 -27 -127 return
          </CharString>
          <CharString index="155">
            361 -231 315 -469 -497 -298 -379 -451 -10 return
          </CharString>
          <CharString index="156">
            -95 -408 rlineto
            115 hlineto
            92 223 56 31 221 7 rrcurveto
            39 return
          </CharString>
          <CharString index="157">
            rmoveto
            312 1 217 171 246 vvcurveto
            152 -96 87 -119 return
          </CharString>
          <CharString index="158">
            1876 rmoveto
            -317 -12 hlineto
            294 -309 rlineto
            122 hlineto
            return
          </CharString>
          <CharString index="159">
            86 408 477 0 -87 -408 -19 -88 -2 callsubr
            return
          </CharString>
          <CharString index="160">
            rmoveto
            -280 170 -192 307 198 callsubr
            endchar
          </CharString>
          <CharString index="161">
            rmoveto
            -154 -418 206 0 313 403 rlineto
            15 vlineto
            return
          </CharString>
          <CharString index="162">
            728 0 27 127 -137 20 -15 18 18 85 rlinecurve
            return
          </CharString>
          <CharString index="163">
            -78 80 -104 -110 -89 -89 -109 -99 77 -79 106 hvcurveto
            return
          </CharString>
          <CharString index="164">
            1876 rmoveto
            -261 -9 hlineto
            193 -312 rlineto
            return
          </CharString>
          <CharString index="165">
            1572 rmoveto
            82 67 68 83 1 hvcurveto
            76 -58 62 return
          </CharString>
          <CharString index="166">
            1186 rmoveto
            221 150 121 callsubr
            return
          </CharString>
          <CharString index="167">
            -24 -22 11 19 -23 hvcurveto
            -29 23 rlineto
            40 -52 -54 25 return
          </CharString>
          <CharString index="168">
            hhcurveto
            -103 -82 -79 -99 1 hvcurveto
            -89 73 -71 98 vhcurveto
            endchar
          </CharString>
          <CharString index="169">
            rmoveto
            102 81 80 96 hvcurveto
            90 -1 -73 72 -97 hhcurveto
            -102 return
          </CharString>
          <CharString index="170">
            0 27 126 -151 20 -16 19 18 85 rlinecurve
            return
          </CharString>
          <CharString index="171">
            -77 80 -105 -110 -89 -89 -109 -99 78 -79 return
          </CharString>
          <CharString index="172">
            rcurveline
            -18 -85 -23 -18 -146 -20 -27 -127 rcurveline
            return
          </CharString>
          <CharString index="173">
            92 84 -66 68 -89 -94 -32 callsubr
            return
          </CharString>
          <CharString index="174">
            -82 -79 -99 hvcurveto
            -89 1 73 -71 98 hhcurveto
            endchar
          </CharString>
          <CharString index="175">
            hhcurveto
            -19 hlineto
            -71 -66 -45 -64 -14 hvcurveto
            -63 -13 return
          </CharString>
          <CharString index="176">
            rmoveto
            733 hlineto
            31 143 rlineto
            -734 hlineto
            return
          </CharString>
          <CharString index="177">
            -92 callsubr
            -321 132 0 return
          </CharString>
          <CharString index="178">
            -115 3 hvcurveto
            -231 2 -76 -257 return
          </CharString>
          <CharString index="179">
            898 1444 147 callsubr
            return
          </CharString>
          <CharString index="180">
            68 83 1 hvcurveto
            76 -58 62 -80 -82 -69 return
          </CharString>
          <CharString index="181">
            -74 65 79 4 0 -74 callgsubr
            return
          </CharString>
          <CharString index="182">
            152 -80 0 -357 -152 rlineto
            return
          </CharString>
          <CharString index="183">
            rmoveto
            110 93 71 267 32 hvcurveto
            return
          </CharString>
          <CharString index="184">
            1876 rmoveto
            -318 -12 hlineto
            return
          </CharString>
          <CharString index="185">
            1572 rmoveto
            82 68 68 83 return
          </CharString>
          <CharString index="186">
            137 -14 15 -24 -18 -85 rlinecurve
            return
          </CharString>
          <CharString index="187">
            74 72 53 75 15 hvcurveto
            75 17 return
          </CharString>
          <CharString index="188">
            71 19 callsubr
            -18 hlineto
            return
          </CharString>
          <CharString index="189">
            -19 hlineto
            -71 -20 callsubr
            return
          </CharString>
          <CharString index="190">
            -77 -74 -94 -83 66 -68 91 hvcurveto
            return
          </CharString>
          <CharString index="191">
            -83 73 -132 13 hvcurveto
            93 89 return
          </CharString>
          <CharString index="192">
            hvcurveto
            -36 14 rlineto
            19 -46 -48 15 return
          </CharString>
          <CharString index="193">
            rmoveto
            -96 69 -76 103 111 70 62 197 113 vhcurveto
            37 65 30 -84 rlineto
            -165 58 81 -74 145 hhcurveto
            117 107 54 75 50 hvcurveto
            27 127 rlineto
            -19 -31 -30 -11 -38 hhcurveto
            -57 -43 33 112 -39 hvcurveto
            -89 244 81 118 22 33 20 26 18 23 rlinecurve
            -44 29 51 -29 60 hhcurveto
            100 75 78 96 96 -68 76 -104 -111 -71 -63 -196 -111 hvcurveto
            -43 -76 -118 323 -423 -58 -26 -126 60 -12 67 -14 16 -16 23 -62 rlinecurve
            115 -324 -77 -111 -22 -32 -20 -27 -18 -22 rlinecurve
            44 -30 -50 29 -60 hhcurveto
            -100 -76 -78 -96 hvcurveto
            endchar
          </CharString>
          <CharString index="194">
            rmoveto
            358 255 200 291 170 -86 122 -200 116 hvcurveto
            -77 44 rlineto
            -130 76 -54 57 90 vvcurveto
            103 92 70 126 170 101 -102 -203 10 vhcurveto
            115 hlineto
            61 344 rlineto
            64 -77 -172 68 -221 hhcurveto
            -414 -186 -233 -233 -179 86 -117 210 -122 hvcurveto
            76 -44 rlineto
            134 -79 41 -59 -92 vvcurveto
            -111 -95 -70 -136 -177 -132 112 192 -6 vhcurveto
            -116 hlineto
            -55 -359 rlineto
            -59 91 192 -57 216 hhcurveto
            return
          </CharString>
          <CharString index="195">
            rmoveto
            322 281 245 403 59 hvcurveto
            301 42 -96 141 -169 hhcurveto
            -134 -93 -131 -165 14 hvcurveto
            188 -28 53 -137 -30 -161 rrcurveto
            -162 -30 -112 -98 -119 hhcurveto
            -128 -41 78 132 28 hvcurveto
            13 63 44 180 18 88 rrcurveto
            237 51 -79 96 -202 hhcurveto
            -107 -93 -36 -31 -61 hvcurveto
            -25 -121 rlineto
            3 9 17 3 17 hhcurveto
            67 26 -35 -102 -21 hvcurveto
            -21 -99 -40 -165 -21 -100 rrcurveto
            -243 -52 128 -156 297 hhcurveto
            endchar
          </CharString>
          <CharString index="196">
            rmoveto
            -60 73 153 -50 174 hhcurveto
            368 137 182 169 hvcurveto
            1 139 -67 92 -149 75 rrcurveto
            -90 44 -92 47 -34 36 1 55 rlinecurve
            59 1 46 39 83 hhcurveto
            122 80 -70 -122 12 hvcurveto
            115 hlineto
            49 266 rlineto
            45 -81 -128 34 -169 hhcurveto
            -300 -192 -138 -206 -142 77 -90 150 -75 hvcurveto
            90 -44 88 -46 26 -34 -1 -56 rlinecurve
            -61 -51 -44 -92 -121 -103 77 148 -13 vhcurveto
            -115 hlineto
            return
          </CharString>
          <CharString index="197">
            -153 -117 -84 -146 -69 vhcurveto
            51 219 -518 -65 -25 -121 72 -18 32 callsubr
            -210 -990 -14 -65 -20 -15 -131 -24 rlinecurve
            -26 -127 725 0 27 127 rlineto
            -180 27 -16 11 12 65 58 292 rcurveline
            -51 47 76 -36 108 2 callgsubr
            -386 -17 rmoveto
            -212 -78 -297 -177 -62 -38 29 33 -9 vhcurveto
            89 416 rlineto
            141 31 67 80 75 hhcurveto
            62 40 -51 -139 hvcurveto
            endchar
          </CharString>
          <CharString index="198">
            1660 930 -32 rmoveto
            456 349 339 467 401 -310 303 -388 -453 -352 -340 -466 -402 314 -302 384 hvcurveto
            1 101 rmoveto
            -322 -264 256 348 412 311 292 380 324 261 -257 -347 -413 -307 -291 -383 hvcurveto
            return
          </CharString>
          <CharString index="199">
            1565 822 -33 rmoveto
            -35 callsubr
            137 627 20 88 22 19 133 22 135 callsubr
            40 callsubr
            rlineto
            123 -22 15 -19 -19 -88 -117 -553 rcurveline
            -19 callsubr
            return
          </CharString>
          <CharString index="200">
            rmoveto
            153 -111 141 -249 33 vhcurveto
            234 23 185 109 2 196 rrcurveto
            211 1 -191 128 -430 hhcurveto
            -632 hlineto
            -27 -127 rlineto
            138 -20 15 -17 -18 -87 -201 -943 65 callsubr
            201 callsubr
            endchar
          </CharString>
          <CharString index="201">
            30 77 82 72 hhcurveto
            60 38 -53 -96 -20 hvcurveto
            -144 -701 375 0 133 629 rlineto
            139 29 77 82 72 hhcurveto
            60 39 -36 callgsubr
            155 hhcurveto
            131 17 callsubr
            -10 callsubr
            216 callsubr
            endchar
          </CharString>
          <CharString index="202">
            817 1444 rmoveto
            -114 hlineto
            -324 -130 -18 -84 150 19 8 1 3 -4 -1 -7 rlinecurve
            -96 -451 -12 -60 -35 -17 -126 -11 rlinecurve
            -17 -85 560 0 18 85 -120 11 -27 17 12 60 rlinecurve
            return
          </CharString>
          <CharString index="203">
            626 595 rmoveto
            -54 callgsubr
            -153 -236 -260 2 vhcurveto
            -198 113 -176 224 vhcurveto
            return
          </CharString>
          <CharString index="204">
            rmoveto
            -135 -704 rlineto
            -252 -47 107 -109 213 hhcurveto
            152 146 60 83 82 hvcurveto
            27 125 rlineto
            -23 -43 -51 -10 -54 hhcurveto
            -124 -61 59 134 36 hvcurveto
            168 637 rlineto
            endchar
          </CharString>
          <CharString index="205">
            -29 -29 -40 hhcurveto
            -26 -23 12 21 -25 hvcurveto
            -102 callgsubr
            -100 -101 callgsubr
            29 29 40 hhcurveto
            26 23 -12 -21 25 hvcurveto
            31 -26 rlineto
            -44 55 59 -28 return
          </CharString>
          <CharString index="206">
            -70 callgsubr
            53 hhcurveto
            81 42 -29 -51 -59 -55 -57 -111 -68 hvcurveto
            150 hlineto
            187 75 89 61 103 vvcurveto
            108 -106 78 -127 vhcurveto
            return
          </CharString>
          <CharString index="207">
            219 119 113 130 138 -125 87 -171 -218 -119 -113 -130 vhcurveto
            222 -6 rmoveto
            77 51 50 return
          </CharString>
          <CharString index="208">
            -9 933 1178 26 121 -1100 0 -96 -408 rlineto
            116 hlineto
            96 211 52 36 219 8 rrcurveto
            223 8 return
          </CharString>
          <CharString index="209">
            159 callsubr
            -69 -323 -102 -124 -240 -143 rlinecurve
            35 -102 460 155 238 144 81 379 rlinecurve
            endchar
          </CharString>
          <CharString index="210">
            75 91 85 -66 68 -88 -94 -72 callgsubr
            797 hmoveto
            93 75 75 91 85 -66 68 -89 -93 -72 callgsubr
            return
          </CharString>
          <CharString index="211">
            -21 -98 rlineto
            36 hlineto
            78 38 -27 -42 -41 -41 -25 -73 -56 -46 15 17 -32 hvcurveto
            -27 -116 rlineto
            -31 56 74 -22 88 hhcurveto
            return
          </CharString>
          <CharString index="212">
            rmoveto
            80 callsubr
            -49 52 -75 hhcurveto
            -19 hlineto
            181 callsubr
            15 hvcurveto
            75 17 -26 callsubr
            endchar
          </CharString>
          <CharString index="213">
            73 37 -25 -44 -50 -50 -48 -97 -58 hvcurveto
            129 hlineto
            162 63 79 54 87 vvcurveto
            92 -91 65 -114 vhcurveto
            return
          </CharString>
          <CharString index="214">
            rmoveto
            143 163 69 80 62 hvcurveto
            27 128 rlineto
            -32 -41 -58 -18 -64 hhcurveto
            -95 -44 57 139 28 hvcurveto
            return
          </CharString>
          <CharString index="215">
            1355 751 1054 rmoveto
            -59 callsubr
            -91 callsubr
            171 callsubr
            return
          </CharString>
          <CharString index="216">
            -33 hvcurveto
            -37 14 rlineto
            19 -45 -49 15 -56 hhcurveto
            -131 -103 -92 callgsubr
            30 23 43 hhcurveto
            return
          </CharString>
          <CharString index="217">
            -78 -51 -107 hhcurveto
            -97 -66 232 callsubr
            -34 vvcurveto
            -150 124 -109 168 vhcurveto
            return
          </CharString>
          <CharString index="218">
            1184 rmoveto
            206 182 110 224 63 hvcurveto
            -134 35 rlineto
            -146 return
          </CharString>
          <CharString index="219">
            -114 -83 238 callsubr
            44 -22 -38 -40 118 callgsubr
            88 hhcurveto
            endchar
          </CharString>
          <CharString index="220">
            2015 rmoveto
            -88 -92 -27 -36 -61 hvcurveto
            -17 -80 rlineto
            14 37 62 12 51 hhcurveto
            return
          </CharString>
          <CharString index="221">
            1873 rmoveto
            716 -84 22 101 -701 161 rlineto
            -115 -557 rmoveto
            return
          </CharString>
          <CharString index="222">
            30 29 39 hhcurveto
            27 22 -12 -21 25 hvcurveto
            31 -26 rlineto
            -44 56 58 -28 69 hhcurveto
            return
          </CharString>
          <CharString index="223">
            1873 rmoveto
            37 178 -767 -161 -22 -101 rlineto
            -60 -295 rmoveto
            return
          </CharString>
          <CharString index="224">
            1195 rmoveto
            109 88 88 108 100 64 callsubr
            106 hvcurveto
            return
          </CharString>
          <CharString index="225">
            223 1049 39 -2 217 -7 44 -31 -3 -223 rlinecurve
            116 hlineto
            return
          </CharString>
          <CharString index="226">
            154 callsubr
            -450 58 136 callsubr
            -67 callgsubr
            return
          </CharString>
          <CharString index="227">
            1186 rmoveto
            115 93 92 113 105 -82 84 -109 -116 return
          </CharString>
          <CharString index="228">
            140 263 9 hvcurveto
            -142 hlineto
            -99 -18 -88 -57 -120 hhcurveto
            -107 return
          </CharString>
          <CharString index="229">
            -2444 rmoveto
            254 hlineto
            519 2444 rlineto
            -254 hlineto
            return
          </CharString>
          <CharString index="230">
            1136 rmoveto
            285 458 -281 0 -138 -458 rlineto
            return
          </CharString>
          <CharString index="231">
            2 -222 -1049 -18 -85 -25 -19 -159 -20 rlinecurve
            -27 -126 return
          </CharString>
          <CharString index="232">
            -67 -85 95 callgsubr
            -67 -85 -1 hvcurveto
            -76 59 -61 80 vhcurveto
            return
          </CharString>
          <CharString index="233">
            24 6 35 34 vvcurveto
            149 -1 -124 110 -167 hhcurveto
            return
          </CharString>
          <CharString index="234">
            1923 rmoveto
            -197 -131 -124 -228 -7 hvcurveto
            return
          </CharString>
          <CharString index="235">
            1571 rmoveto
            197 131 124 228 7 hvcurveto
            return
          </CharString>
          <CharString index="236">
            1532 rmoveto
            716 hlineto
            36 169 rlineto
            -716 hlineto
            return
          </CharString>
          <CharString index="237">
            206 123 86 129 103 -84 73 -132 13 hvcurveto
            return
          </CharString>
          <CharString index="238">
            121 99 91 123 111 -89 88 -123 -120 return
          </CharString>
          <CharString index="239">
            -42 callgsubr
            -69 -25 -37 -44 hvcurveto
            -23 -100 rlineto
            6 return
          </CharString>
          <CharString index="240">
            21 36 5 27 hhcurveto
            51 43 -22 -38 -40 -39 -22 -74 return
          </CharString>
          <CharString index="241">
            -8 -14 34 hvcurveto
            36 -14 rlineto
            -18 46 48 -15 56 hhcurveto
            return
          </CharString>
          <CharString index="242">
            rlinecurve
            27 127 -486 0 -27 -127 rlineto
            141 return
          </CharString>
          <CharString index="243">
            rmoveto
            -441 -253 -279 -319 -18 vhcurveto
            -60 -3 return
          </CharString>
          <CharString index="244">
            98 callgsubr
            47 hhcurveto
            106 callsubr
            return
          </CharString>
          <CharString index="245">
            72 53 75 15 hvcurveto
            75 17 -26 callsubr
            return
          </CharString>
          <CharString index="246">
            hvcurveto
            -86 76 rlineto
            -76 -52 -59 -31 -50 hhcurveto
            -74 1 return
          </CharString>
          <CharString index="247">
            rmoveto
            652 hlineto
            39 186 rlineto
            -652 hlineto
            endchar
          </CharString>
          <CharString index="248">
            45 callsubr
            127 -98 226 hhcurveto
            endchar
          </CharString>
          <CharString index="249">
            1573 rmoveto
            100 86 -96 callgsubr
            return
          </CharString>
          <CharString index="250">
            rmoveto
            -87 76 -68 94 100 81 72 88 34 -11 32 -18 25 vhcurveto
            5 22 24 3 24 hhcurveto
            132 84 -79 -212 -34 hvcurveto
            -2 -13 -159 -13 rlineto
            -346 -28 -184 -120 -196 vvcurveto
            -167 134 -97 175 189 147 108 178 44 vhcurveto
            -194 62 159 -92 177 hhcurveto
            177 144 70 94 73 hvcurveto
            28 128 rlineto
            -43 -56 -83 -26 -83 hhcurveto
            -144 -100 88 193 -12 hvcurveto
            19 2 rlineto
            430 24 132 135 161 vvcurveto
            161 -143 103 -222 -132 -118 -41 -79 -96 vhcurveto
            78 -78 -114 42 -155 hhcurveto
            -265 -172 -115 -154 hvcurveto
            1109 112 rmoveto
            57 31 -38 -62 -92 -79 -98 -201 -17 hvcurveto
            186 18 76 121 98 hhcurveto
            -868 -607 rmoveto
            88 66 57 174 19 vhcurveto
            71 8 -4 -27 rlineto
            -185 -28 -70 -74 -98 hhcurveto
            -65 -46 40 74 hvcurveto
            endchar
          </CharString>
          <CharString index="251">
            rmoveto
            -1201 hlineto
            -760 -1105 -118 -171 -45 -28 -114 -13 rlinecurve
            -26 -127 506 0 26 127 -132 20 -13 38 101 153 rlinecurve
            130 196 435 0 -51 -261 -20 -109 -21 -19 -154 -18 rlinecurve
            -27 -127 1225 0 106 445 rlineto
            -113 hlineto
            -112 -250 -56 -31 -225 -10 rrcurveto
            -220 -9 99 516 rlineto
            159 hlineto
            67 17 -25 -166 -6 hvcurveto
            112 hlineto
            107 531 rlineto
            -111 hlineto
            -165 -62 -28 -26 -67 hhcurveto
            -159 hlineto
            94 489 197 -8 228 -8 27 -33 13 -212 rlinecurve
            115 hlineto
            -1064 257 rmoveto
            77 hlineto
            -117 -606 rlineto
            -362 hlineto
            endchar
          </CharString>
          <CharString index="252">
            1532 671 250 rmoveto
            86 406 107 0 211 -656 459 0 26 121 -62 27 -26 39 -78 227 rlinecurve
            -182 534 146 129 209 182 57 36 144 22 rlinecurve
            27 127 -561 0 -26 -127 125 -15 16 -39 -111 -110 rlinecurve
            -346 -345 -102 0 82 386 18 85 22 20 130 18 rlinecurve
            27 127 -712 0 -27 -127 137 -20 15 -18 -18 -85 rlinecurve
            -17 callsubr
            248 callsubr
            return
          </CharString>
          <CharString index="253">
            rmoveto
            114 97 56 72 53 hvcurveto
            27 127 rlineto
            -17 -23 -28 -11 -31 hhcurveto
            -49 -44 33 125 -42 hvcurveto
            -110 326 59 47 166 132 86 46 107 21 rlinecurve
            21 102 -511 0 -22 -102 130 -16 17 -28 -114 -97 rlinecurve
            -286 -240 202 951 -537 -64 -26 -122 73 -17 -86 callsubr
            -69 callsubr
            377 0 86 408 75 56 56 -188 rlineto
            -201 60 83 -94 141 hhcurveto
            return
          </CharString>
          <CharString index="254">
            rmoveto
            -551 hlineto
            -27 -127 139 -15 6 -33 -23 -104 rlinecurve
            -200 -909 -20 -88 -24 -19 -131 -22 rlinecurve
            -27 -127 486 0 27 127 -141 24 -12 16 17 90 rlinecurve
            158 787 411 -1044 389 0 263 1188 20 89 22 19 132 21 135 callsubr
            -23 12 -17 -18 -89 -155 -780 rcurveline
            return
          </CharString>
          <CharString index="255">
            -136 -595 rmoveto
            216 hlineto
            1273 1444 rlineto
            -215 hlineto
            -1137 -737 38 callgsubr
            1120 -727 rmoveto
            -54 callgsubr
            -153 -237 -259 2 vhcurveto
            -198 113 -176 224 vhcurveto
            return
          </CharString>
          <CharString index="256">
            rmoveto
            352 276 271 347 280 -170 192 -307 -352 -276 -271 -347 -280 170 -192 307 hvcurveto
            15 163 rmoveto
            -72 -44 65 138 180 callsubr
            hvcurveto
            return
          </CharString>
          <CharString index="257">
            rmoveto
            217 103 72 82 91 hvcurveto
            28 126 rlineto
            -47 -73 -115 -36 -119 hhcurveto
            -97 -58 34 66 62 32 41 125 42 hvcurveto
            47 15 rlineto
            210 68 115 89 193 vvcurveto
            177 return
          </CharString>
          <CharString index="258">
            -68 -25 -37 -45 hvcurveto
            -23 -100 rlineto
            6 133 callsubr
            -43 -44 12 15 -37 -100 callgsubr
          </CharString>
          <CharString index="259">
            119 callgsubr
            24 23 33 hhcurveto
            21 18 -10 -16 19 1 callgsubr
            return
          </CharString>
          <CharString index="260">
            125 644 rlineto
            92 60 115 53 134 hhcurveto
            50 44 -7 -14 35 hvcurveto
            9 27 13 49 53 vvcurveto
            100 -40 65 -88 -113 -78 -100 -218 -124 vhcurveto
            return
          </CharString>
          <CharString index="261">
            rmoveto
            404 -1 -311 212 -451 hhcurveto
            246 callsubr
            -201 -944 65 callsubr
            636 hlineto
            605 440 330 498 hvcurveto
            return
          </CharString>
          <CharString index="262">
            34 hvcurveto
            -146 hlineto
            -51 -10 -30 -24 -43 hhcurveto
            -27 -28 9 13 -33 85 callsubr
            74 callgsubr
            37 -15 rlineto
            -18 45 48 -15 57 hhcurveto
            endchar
          </CharString>
          <CharString index="263">
            -47 -111 -82 -127 hhcurveto
            -20 -19 2 4 -17 hvcurveto
            35 28 24 44 50 vvcurveto
            97 -76 67 -87 -111 -68 -83 -105 -141 126 -104 181 vhcurveto
            return
          </CharString>
          <CharString index="264">
            1202 rmoveto
            119 99 79 296 37 hvcurveto
            -143 hlineto
            -110 -17 -30 -29 -40 hhcurveto
            -26 -23 12 21 -24 hvcurveto
            -32 25 rlineto
            45 -55 -58 27 return
          </CharString>
          <CharString index="265">
            30 137 -253 0 34 147 -381 -28 -25 -119 -153 0 -29 -137 153 0 -252 -1188 -47 callsubr
            return
          </CharString>
          <CharString index="266">
            rmoveto
            195 910 18 85 23 18 146 21 rlinecurve
            27 126 -729 0 -27 -126 137 -21 16 -18 -18 -85 rlinecurve
            -191 -896 return
          </CharString>
          <CharString index="267">
            -25 166 rmoveto
            -150 -93 121 282 383 158 388 240 30 callsubr
            -383 -161 -388 -238 hvcurveto
            return
          </CharString>
          <CharString index="268">
            159 45 67 96 hvcurveto
            78 363 rlineto
            -118 hlineto
            -204 -80 -127 -101 -143 hhcurveto
            -195 -124 157 267 hvcurveto
            endchar
          </CharString>
          <CharString index="269">
            -51 -107 hhcurveto
            -96 -67 57 70 hvcurveto
            5 1 5 4 vvcurveto
            -124 hlineto
            -9 -25 -6 -34 -34 vvcurveto
            -150 1 123 -109 168 hhcurveto
            return
          </CharString>
          <CharString index="270">
            rmoveto
            212 78 297 177 62 37 -29 -33 10 vhcurveto
            -89 -416 rlineto
            -141 -31 -67 -80 -75 hhcurveto
            -62 -40 51 139 hvcurveto
            endchar
          </CharString>
          <CharString index="271">
            1379 rmoveto
            -137 124 -88 171 100 callsubr
            57 49 31 -37 -60 -77 -51 -50 -57 -49 -31 38 59 vhcurveto
            return
          </CharString>
          <CharString index="272">
            981 749 1054 rmoveto
            -516 -65 -25 -121 72 -18 32 callsubr
            -91 callsubr
            153 callsubr
            return
          </CharString>
          <CharString index="273">
            -21 -98 rlineto
            36 hlineto
            78 37 -27 -42 -41 -40 -25 -73 -57 -45 15 17 -32 hvcurveto
            -27 -116 rlineto
            -31 56 74 -22 88 hhcurveto
            endchar
          </CharString>
          <CharString index="274">
            hvcurveto
            -8 -33 -44 -25 -99 -16 rrcurveto
            95 -63 152 29 97 53 19 87 rlinecurve
            88 18 -89 55 -141 hhcurveto
            -780 -521 rmoveto
            return
          </CharString>
          <CharString index="275">
            73 -65 -78 hvcurveto
            -6 0 -5 -2 vvcurveto
            141 hlineto
            11 27 6 39 39 vvcurveto
            172 -138 126 -188 vhcurveto
            return
          </CharString>
          <CharString index="276">
            0 219 1034 19 89 22 16 138 18 24 callsubr
            135 -17 18 -17 -19 -89 rlinecurve
            endchar
          </CharString>
          <CharString index="277">
            rmoveto
            102 81 80 96 -1 hvcurveto
            90 -73 72 -97 -102 -83 -79 -99 1 vhcurveto
            -89 1 72 -71 99 hhcurveto
            endchar
          </CharString>
          <CharString index="278">
            132 624 rlineto
            144 31 87 82 73 hhcurveto
            66 42 -53 -106 -22 hvcurveto
            -80 callsubr
            return
          </CharString>
          <CharString index="279">
            -56 -57 -110 -68 hvcurveto
            149 hlineto
            187 75 89 61 103 vvcurveto
            108 -105 78 -127 vhcurveto
            return
          </CharString>
          <CharString index="280">
            -542 -30 -138 rlineto
            382 hlineto
            39 176 rmoveto
            -217 hlineto
            278 285 rlineto
            endchar
          </CharString>
          <CharString index="281">
            463 1194 rmoveto
            -200 -944 rlineto
            -19 -89 -24 -16 -144 -18 -27 -127 rcurveline
            return
          </CharString>
          <CharString index="282">
            96 77 75 91 -1 hvcurveto
            84 -69 68 -91 -96 -78 -75 -92 1 vhcurveto
            -84 1 68 -67 92 hhcurveto
            return
          </CharString>
          <CharString index="283">
            -135 17 -18 17 19 89 rlinecurve
            200 944 19 89 24 16 144 18 rlinecurve
            return
          </CharString>
          <CharString index="284">
            379 103 334 -103 27 125 -279 180 -79 0 -355 -180 rlineto
            return
          </CharString>
          <CharString index="285">
            378 103 335 -103 27 125 -280 180 -78 0 -355 -180 rlineto
            return
          </CharString>
          <CharString index="286">
            1562 rmoveto
            197 173 97 216 65 hvcurveto
            -133 37 rlineto
            -125 return
          </CharString>
          <CharString index="287">
            221 82 340 155 72 44 -65 -138 -221 -82 -340 -155 return
          </CharString>
          <CharString index="288">
            -75 -71 -52 -75 -16 hvcurveto
            -75 -16 49 -53 75 hhcurveto
            424 hmoveto
            74 72 53 75 return
          </CharString>
          <CharString index="289">
            rmoveto
            -281 -31 141 -173 251 hhcurveto
            170 121 85 169 59 hvcurveto
            -140 7 116 -114 190 hhcurveto
            340 214 293 348 27 hvcurveto
            283 22 -105 166 -169 hhcurveto
            -136 -91 -133 -163 13 hvcurveto
            181 -24 85 -125 -14 -159 rrcurveto
            -160 -14 -102 -113 -120 hhcurveto
            -140 -80 109 304 81 hvcurveto
            43 174 -298 0 -41 -196 rlineto
            -304 -64 -60 -87 -97 hhcurveto
            -99 -34 76 169 16 hvcurveto
            19 219 96 197 138 124 rrcurveto
            -58 88 -299 -64 -247 -253 -31 -315 rlinecurve
            endchar
          </CharString>
          <CharString index="290">
            380 450 153 -41 145 -84 117 hvcurveto
            171 160 -97 104 -170 -160 rlineto
            97 -115 -159 60 -205 hhcurveto
            -7 callgsubr
            -3 -154 42 -147 86 -116 rrcurveto
            -168 -158 97 -104 168 158 rlineto
            -96 115 160 -59 203 hhcurveto
            -268 569 rmoveto
            384 158 387 240 109 79 -64 -144 36 vhcurveto
            -622 -584 rlineto
            6 0 8 7 vvcurveto
            244 -403 rmoveto
            -109 -79 64 142 -36 hvcurveto
            622 584 rlineto
            -6 0 -6 -7 vvcurveto
            -384 -161 -387 -237 vhcurveto
            endchar
          </CharString>
          <CharString index="291">
            rmoveto
            172 118 92 150 98 hvcurveto
            -157 23 63 -80 140 hhcurveto
            82 94 49 43 43 hvcurveto
            27 128 rlineto
            -7 -10 -29 -6 -23 hhcurveto
            -78 -47 19 222 -43 hvcurveto
            -13 63 342 547 rlineto
            -348 hlineto
            -8 -35 -47 -121 -44 -114 rrcurveto
            187 -31 -94 109 -195 hhcurveto
            -282 -210 -245 -359 -34 hvcurveto
            -306 -35 148 -179 221 hhcurveto
            56 528 rmoveto
            245 20 75 129 96 hhcurveto
            81 23 -93 -304 18 hvcurveto
            3 -49 rlineto
            -155 -77 -73 -64 -74 hhcurveto
            -80 -32 90 201 20 hvcurveto
            endchar
          </CharString>
          <CharString index="292">
            rmoveto
            237 202 82 124 111 hvcurveto
            20 129 rlineto
            -63 -82 -151 -50 -147 hhcurveto
            -143 -72 48 70 102 97 37 176 hvcurveto
            67 hlineto
            5 220 rlineto
            -69 hlineto
            -180 -40 49 64 75 67 58 157 63 54 -9 -14 44 hvcurveto
            -25 -27 -15 -37 -37 vvcurveto
            -77 1 55 -60 95 hhcurveto
            85 61 67 84 128 -114 127 -329 -343 -207 -132 -195 -105 66 -87 149 -28 hvcurveto
            -178 -23 -142 -91 -162 vvcurveto
            -161 148 -106 277 vhcurveto
            endchar
          </CharString>
          <CharString index="293">
            rmoveto
            351 271 273 344 105 -24 92 -46 75 hvcurveto
            123 113 -91 100 -122 -112 rlineto
            62 -78 -105 35 -130 hhcurveto
            -351 -271 -273 -344 -107 25 -94 47 -75 hvcurveto
            -115 -106 92 -100 114 106 rlineto
            -60 78 104 -34 128 hhcurveto
            135 928 rmoveto
            60 41 -43 -91 13 hvcurveto
            -349 -323 rlineto
            211 20 80 246 135 hhcurveto
            -121 -769 rmoveto
            -59 -40 41 87 -15 hvcurveto
            348 321 rlineto
            -209 -22 -79 -240 -133 hhcurveto
            endchar
          </CharString>
          <CharString index="294">
            rmoveto
            -105 79 -85 130 188 146 115 315 233 vhcurveto
            572 772 82 111 30 21 129 16 rlinecurve
            27 127 -512 0 -27 -127 159 -19 -1 -14 -78 -113 rlinecurve
            -337 -492 -139 492 -31 111 6 16 168 19 rlinecurve
            27 127 -760 0 -26 -127 122 -16 21 -22 36 -110 rlinecurve
            284 -866 -56 -75 -51 -51 -59 -31 rlinecurve
            3 1 4 4 vvcurveto
            108 -80 75 -97 -105 -81 -82 -101 vhcurveto
            endchar
          </CharString>
          <CharString index="295">
            rmoveto
            -8 -46 -145 -27 -24 -116 150 0 -133 -844 -32 -204 -47 -93 -59 -35 rlinecurve
            5 15 3 16 17 vvcurveto
            85 -64 69 -79 -85 -69 -67 -91 -120 98 -87 153 286 211 214 677 116 vhcurveto
            78 448 252 0 36 168 -269 -8 15 97 27 187 54 83 83 9 rlinecurve
            -15 -24 -9 -28 -31 vvcurveto
            -84 67 -66 82 86 70 69 87 128 -124 95 -203 -276 -173 -184 -309 -58 vhcurveto
            endchar
          </CharString>
          <CharString index="296">
            719 hlineto
            27 127 -128 19 -16 18 18 86 rlinecurve
            4 15 628 638 -139 -653 -19 -89 -21 -16 -138 -18 -90 callgsubr
            176 callsubr
            26 127 -718 0 -27 -127 129 -18 16 -16 -19 -89 rlinecurve
            -5 -19 -628 -638 139 657 19 86 22 17 138 20 24 callsubr
            73 callgsubr
            endchar
          </CharString>
          <CharString index="297">
            rmoveto
            111 98 63 67 53 hvcurveto
            28 128 rlineto
            -18 -33 -26 -9 -33 hhcurveto
            -56 -48 30 81 -36 hvcurveto
            -147 325 38 41 31 35 27 31 23 26 rlinecurve
            -49 30 52 -32 62 hhcurveto
            103 88 84 104 -1 hvcurveto
            95 -2 -71 82 -109 hhcurveto
            -112 -66 -71 -141 -115 hvcurveto
            -261 -336 115 537 -539 -65 -25 -121 72 -18 255 callsubr
            99 463 111 -259 rlineto
            -150 52 76 -73 145 hhcurveto
            endchar
          </CharString>
          <CharString index="298">
            380 hlineto
            125 598 rlineto
            199 42 85 53 71 hhcurveto
            73 40 -62 -119 -24 hvcurveto
            -10 -46 -212 -998 -18 -85 rrcurveto
            390 hlineto
            231 1149 rlineto
            255 51 -109 121 -205 hhcurveto
            -174 -119 -93 -166 -83 hvcurveto
            170 10 -64 80 -164 hhcurveto
            -93 -95 -28 -38 -75 hvcurveto
            -26 -120 rlineto
            3 11 12 2 21 hhcurveto
            65 42 -35 -97 -19 hvcurveto
            -7 -49 -140 -644 -12 -50 rrcurveto
            endchar
          </CharString>
          <CharString index="299">
            rmoveto
            254 -131 134 -168 -141 -111 -73 -129 -71 vhcurveto
            149 645 -537 -64 -26 -122 73 -17 -86 callsubr
            -69 callsubr
            215 0 135 114 rlineto
            -75 38 86 -64 143 2 callgsubr
            -385 -17 rmoveto
            -212 -1 -77 -297 -177 hhcurveto
            -62 -38 29 33 -9 hvcurveto
            89 416 rlineto
            141 30 68 80 75 hhcurveto
            61 41 -51 -139 hvcurveto
            return
          </CharString>
          <CharString index="300">
            57 -13 rlineto
            58 -16 17 -16 2 -43 37 -781 rcurveline
            300 hlineto
            104 124 109 172 77 165 11 -461 rcurveline
            292 hlineto
            248 220 340 431 220 vvcurveto
            114 -84 80 -112 -108 -86 -77 -105 -92 69 -76 89 -11 vhcurveto
            -55 -172 -112 -161 -139 -142 rrcurveto
            -16 826 -350 -55 3 -141 -13 -222 -101 -192 -115 -170 rlinecurve
            return
          </CharString>
          <CharString index="301">
            rmoveto
            93 94 29 40 45 hvcurveto
            26 122 rlineto
            -12 -17 -27 -9 -29 hhcurveto
            -62 -44 57 92 58 18 55 27 39 hvcurveto
            312 39 233 255 319 vvcurveto
            280 -170 192 -307 -353 -275 -271 -347 -249 135 -179 245 -37 vhcurveto
            -138 -74 -73 -93 -104 vvcurveto
            -113 101 -89 166 vhcurveto
            56 629 rmoveto
            -72 -44 65 138 180 callsubr
            hvcurveto
            endchar
          </CharString>
          <CharString index="302">
            -17 -24 -9 -27 hhcurveto
            -64 -42 60 89 53 16 50 29 39 hvcurveto
            480 15 295 373 441 vvcurveto
            48 callsubr
            vhcurveto
            -6 -326 193 -288 383 -53 rrcurveto
            -142 -75 -82 -94 -101 vvcurveto
            -117 112 -82 158 vhcurveto
            60 626 rmoveto
            -150 -94 121 282 384 158 387 240 30 callsubr
            -384 -161 -387 -237 hvcurveto
            endchar
          </CharString>
          <CharString index="303">
            717 1206 rmoveto
            2 -103 -159 -20 -119 -4 -19 -95 rcurveline
            2 16 16 2 29 hhcurveto
            94 77 -38 -86 hvcurveto
            -106 2 -81 -52 -81 hhcurveto
            -30 -27 5 10 -22 hvcurveto
            18 17 10 24 27 vvcurveto
            57 -41 41 -57 -61 -42 -45 -57 -123 147 -66 136 187 189 96 188 vhcurveto
            257 callsubr
            114 rrcurveto
            133 -139 63 -134 56 callgsubr
            return
          </CharString>
          <CharString index="304">
            rmoveto
            -534 -67 -26 -121 80 -21 rlineto
            42 -10 13 -20 -11 -53 -68 -319 rcurveline
            -298 -63 147 -172 355 hhcurveto
            346 261 159 237 213 -178 97 -241 -84 -76 -11 -13 -45 hvcurveto
            -60 -294 rmoveto
            30 148 rlineto
            9 25 38 7 37 hhcurveto
            111 51 -67 -108 -133 -74 -97 -110 -94 -51 62 179 37 hvcurveto
            endchar
          </CharString>
          <CharString index="305">
            352 276 267 340 149 -50 128 -99 86 vhcurveto
            -10 41 47 -6 47 hhcurveto
            211 139 84 153 111 -63 84 -83 45 hvcurveto
            -108 hlineto
            7 -17 6 -30 -31 vvcurveto
            -163 -129 -129 -160 vhcurveto
            -84 -72 29 -122 hhcurveto
            -353 -280 -262 -356 hvcurveto
            376 -106 rmoveto
            180 callsubr
            -72 -44 65 138 vhcurveto
            return
          </CharString>
          <CharString index="306">
            -22 -18 -147 -20 rlinecurve
            -27 -127 743 0 27 126 rlineto
            -151 20 -16 19 18 85 86 403 rcurveline
            145 hlineto
            68 17 -25 -167 -7 hvcurveto
            108 hlineto
            113 530 rlineto
            -109 hlineto
            -167 -65 -26 -25 -68 hhcurveto
            -145 hlineto
            106 500 170 -6 223 -8 38 -31 10 -218 rlinecurve
            115 hlineto
            endchar
          </CharString>
          <CharString index="307">
            134 637 rlineto
            -2 17 18 -1 20 hhcurveto
            151 112 79 143 105 -64 81 -82 45 hvcurveto
            -109 hlineto
            8 -17 5 -30 -33 vvcurveto
            -157 -115 -122 -320 -39 vhcurveto
            -144 -19 -25 -119 61 -17 rlineto
            51 -19 11 -16 -12 -56 -77 -352 rcurveline
            -138 -30 -78 -75 -79 hhcurveto
            -67 -43 51 105 22 hvcurveto
            return
          </CharString>
          <CharString index="308">
            651 hlineto
            530 317 167 283 hvcurveto
            -360 632 rmoveto
            -159 -115 -101 -181 2 vhcurveto
            -99 hlineto
            101 475 60 -2 rlineto
            145 -5 89 -68 -142 vvcurveto
            -82 -641 rmoveto
            -184 -134 -108 -263 -3 vhcurveto
            -62 -1 115 533 99 -1 rlineto
            141 -3 104 -77 -156 vvcurveto
            return
          </CharString>
          <CharString index="309">
            147 -1116 347 0 625 1112 92 164 27 24 124 17 rlinecurve
            26 127 -495 0 -27 -127 141 -22 14 -29 -84 -154 rlinecurve
            -428 -797 -87 798 -17 153 25 29 152 22 rlinecurve
            27 127 -741 0 -26 -127 114 -17 22 -24 22 -160 rlinecurve
            return
          </CharString>
          <CharString index="310">
            329 -357 rmoveto
            161 122 67 103 21 hvcurveto
            103 22 -92 67 -162 hhcurveto
            -93 hlineto
            -161 -122 -67 -103 -21 hvcurveto
            -103 -22 93 -67 161 hhcurveto
            93 114 rmoveto
            -46 hlineto
            -46 -22 22 34 7 hvcurveto
            34 7 33 22 46 hhcurveto
            45 hlineto
            46 22 -22 -34 -7 hvcurveto
            -34 -7 -32 -22 -46 hhcurveto
            return
          </CharString>
          <CharString index="311">
            1532 1548 450 rmoveto
            153 -111 141 -249 33 vhcurveto
            234 23 185 109 2 196 rrcurveto
            211 1 -191 128 -430 hhcurveto
            -632 hlineto
            -27 -127 rlineto
            138 -20 15 -17 -18 -87 -201 -943 65 callsubr
            201 callsubr
            return
          </CharString>
          <CharString index="312">
            456 -818 rmoveto
            102 -103 151 157 43 -28 rlineto
            -89 133 81 -35 106 hhcurveto
            150 153 98 238 116 hvcurveto
            -86 76 rlineto
            -76 -52 -58 -31 -50 hhcurveto
            -74 1 -59 callgsubr
            -104 -383 rlineto
            116 hlineto
            90 34 24 15 76 hhcurveto
            290 hlineto
            endchar
          </CharString>
          <CharString index="313">
            rmoveto
            362 233 278 334 279 -193 199 -308 -362 -233 -278 -334 -279 193 -199 308 hvcurveto
            -8 163 rmoveto
            -78 -36 68 142 206 78 348 146 78 36 -68 -142 -206 -78 -348 -146 hvcurveto
            endchar
          </CharString>
          <CharString index="314">
            -160 -21 -102 rlineto
            351 -279 rmoveto
            154 112 51 77 16 hvcurveto
            77 17 -91 51 -154 hhcurveto
            -88 hlineto
            -153 -112 -51 -77 -17 hvcurveto
            -77 -16 92 -51 152 hhcurveto
            84 86 rmoveto
            -43 hlineto
            -45 -20 16 26 5 hvcurveto
            26 5 29 16 return
          </CharString>
          <CharString index="315">
            56 -13 rlineto
            59 -16 16 -16 2 -43 45 -781 rcurveline
            301 hlineto
            245 220 345 429 222 vvcurveto
            114 -84 80 -111 -109 -86 -77 -105 -93 72 -78 92 -9 vhcurveto
            -61 -173 -121 -163 -131 -137 rrcurveto
            return
          </CharString>
          <CharString index="316">
            rmoveto
            -1175 hlineto
            -27 -127 137 -20 16 -17 -18 -86 rlinecurve
            -200 -944 -19 -86 -23 -16 -146 -21 rlinecurve
            -27 -127 756 0 27 127 -163 22 -17 16 18 85 rlinecurve
            222 1049 175 258 callsubr
          </CharString>
          <CharString index="317">
            -493 rmoveto
            92 100 30 38 38 hvcurveto
            26 123 rlineto
            -12 -23 -28 -9 -40 hhcurveto
            -62 -44 31 62 75 54 65 122 71 hvcurveto
            113 63 -144 0 -163 -71 rlineto
            -211 -96 -76 -87 -108 vvcurveto
            -97 94 -78 152 vhcurveto
            endchar
          </CharString>
          <CharString index="318">
            -156 -107 105 211 234 118 164 148 9 10 0 -1 9 hvcurveto
            -47 -30 -28 -51 -58 vvcurveto
            -95 75 -66 93 102 82 71 105 153 -132 124 -228 vhcurveto
            -350 -1 -256 -263 -353 vvcurveto
            return
          </CharString>
          <CharString index="319">
            rmoveto
            207 138 127 236 6 hvcurveto
            -132 hlineto
            -90 -15 -82 -51 -112 hhcurveto
            -100 -69 59 71 4 0 4 1 3 hvcurveto
            -132 hlineto
            -10 -25 -6 -34 1 -36 rrcurveto
            -154 1 129 -114 175 hhcurveto
            endchar
          </CharString>
          <CharString index="320">
            13 203 185 253 vvcurveto
            158 -101 107 -185 112 vhcurveto
            -85 52 rlineto
            -131 79 -52 42 -4 78 -3 104 77 65 136 1 180 1 94 -85 10 -187 rrcurveto
            113 hlineto
            47 340 -79 43 return
          </CharString>
          <CharString index="321">
            -94 -408 rlineto
            115 hlineto
            96 228 48 25 198 8 rrcurveto
            51 2 -222 -1049 -18 -85 -23 -18 -160 -20 rlinecurve
            -27 -127 756 0 27 127 rlineto
            -149 20 -17 18 18 85 81 380 rcurveline
            return
          </CharString>
          <CharString index="322">
            16 1 28 hhcurveto
            95 77 -37 -86 hvcurveto
            -106 2 -81 -52 -81 hhcurveto
            -30 -27 5 9 -22 hvcurveto
            17 18 11 24 27 vvcurveto
            57 -41 41 -58 -60 -42 -45 -58 -122 147 -66 136 187 189 96 188 vhcurveto
            return
          </CharString>
          <CharString index="323">
            79 367 rlineto
            234 49 -85 146 -223 hhcurveto
            -163 -123 -111 -140 -57 hvcurveto
            139 6 -87 112 -197 hhcurveto
            -159 -121 -94 -167 -76 hvcurveto
            52 250 -59 callsubr
            return
          </CharString>
          <CharString index="324">
            -26 247 callsubr
            -440 0 221 1039 18 85 17 21 131 12 rlinecurve
            27 127 -691 0 -27 -127 123 -12 11 -21 -18 -85 rlinecurve
            -221 -1039 -440 169 callsubr
          </CharString>
          <CharString index="325">
            -9 -267 -265 -353 vvcurveto
            -293 195 -148 214 -28 vhcurveto
            -38 -179 rlineto
            25 715 rmoveto
            185 87 146 122 55 vhcurveto
            -131 -616 rlineto
            -49 53 -29 76 101 vvcurveto
            endchar
          </CharString>
          <CharString index="326">
            -386 -50 -127 -601 rlineto
            -129 -27 -72 -83 -87 hhcurveto
            -62 -33 50 96 21 hvcurveto
            150 717 -388 -46 -126 -605 rlineto
            -127 -27 -70 -85 -86 hhcurveto
            -62 -32 53 93 19 hvcurveto
            return
          </CharString>
          <CharString index="327">
            0 141 232 -86 -453 -9 -45 -13 -14 -88 -9 rlinecurve
            -18 -85 456 0 18 85 -83 9 -7 13 9 46 rlinecurve
            102 523 9 45 12 13 89 10 rlinecurve
            18 85 -413 0 -239 return
          </CharString>
          <CharString index="328">
            vvcurveto
            182 133 78 133 18 18 -1 -3 16 vhcurveto
            -27 -25 -16 -36 -44 vvcurveto
            -88 62 -66 91 91 68 69 91 149 -152 110 -255 -318 -236 -179 -292 -3 vhcurveto
            return
          </CharString>
          <CharString index="329">
            -91 -428 rcurveline
            -197 -43 75 -160 215 hhcurveto
            135 139 65 172 86 hvcurveto
            -136 87 -101 187 138 144 81 177 83 vhcurveto
            -3 -11 -6 -32 -14 vvcurveto
            -127 return
          </CharString>
          <CharString index="330">
            842 1477 rmoveto
            -313 -2 -216 -169 -247 vvcurveto
            -152 95 -87 120 143 85 121 145 5 vhcurveto
            -92 10 -63 44 74 vvcurveto
            80 84 54 124 6 vhcurveto
            return
          </CharString>
          <CharString index="331">
            569 1477 rmoveto
            -109 -57 -65 -114 -9 hvcurveto
            -6 -66 3 -80 10 -135 rrcurveto
            16 -211 81 0 87 174 85 170 45 96 1 77 rlinecurve
            87 1 -50 67 -98 hhcurveto
            return
          </CharString>
          <CharString index="332">
            -702 0 -27 -127 134 -13 7 -33 -70 -147 rlinecurve
            -369 -777 -42 766 -8 -18 callgsubr
            -728 0 -26 -127 110 -16 26 -23 14 -162 rlinecurve
            return
          </CharString>
          <CharString index="333">
            -187 -112 -104 -149 -53 vhcurveto
            73 -28 rlineto
            77 38 56 40 74 hhcurveto
            75 50 -42 -55 1 hvcurveto
            2 -71 -40 -48 -160 -124 rrcurveto
            -239 -183 -34 -162 rlineto
            endchar
          </CharString>
          <CharString index="334">
            1034 74 68 rmoveto
            102 -103 150 157 1 0 43 -28 rlineto
            -89 133 81 -35 105 hhcurveto
            151 153 98 238 116 139 callsubr
            32 callgsubr
            return
          </CharString>
          <CharString index="335">
            hmoveto
            37 175 rlineto
            165 7 152 63 69 96 27 128 rcurveline
            -52 -63 -86 -18 -83 hhcurveto
            -172 -127 105 211 236 141 173 175 31 29 -3 -6 return
          </CharString>
          <CharString index="336">
            hlineto
            47 340 -80 43 -131 38 -147 8 rlinecurve
            44 206 -100 0 -44 -206 rlineto
            -403 -16 -149 -197 -204 vvcurveto
            -169 95 -118 199 -114 vhcurveto
            return
          </CharString>
          <CharString index="337">
            -113 176 -224 -282 -153 -55 callgsubr
            return
          </CharString>
          <CharString index="338">
            136 0 -126 321 -257 0 -258 -321 rlineto
            return
          </CharString>
          <CharString index="339">
            57 70 5 0 5 1 4 hvcurveto
            -124 hlineto
            -9 -25 -6 -34 return
          </CharString>
          <CharString index="340">
            -2 callgsubr
            -47 -29 -101 -20 rrcurveto
            94 -72 158 33 return
          </CharString>
          <CharString index="341">
            1 hvcurveto
            76 -58 62 -80 -83 -68 -67 -85 -76 58 -61 80 vhcurveto
            return
          </CharString>
          <CharString index="342">
            -20 16 -17 -19 -87 rlinecurve
            -187 -883 -103 callgsubr
            return
          </CharString>
          <CharString index="343">
            -40 -25 -74 -56 -46 15 17 -32 hvcurveto
            -26 -116 rlineto
            -31 55 return
          </CharString>
          <CharString index="344">
            -48 -160 -124 rrcurveto
            -239 -184 -35 -161 rlineto
            endchar
          </CharString>
          <CharString index="345">
            -68 -25 -37 -44 hvcurveto
            -24 -100 rlineto
            6 21 36 5 28 hhcurveto
            50 return
          </CharString>
          <CharString index="346">
            hvcurveto
            -68 1 62 -49 75 hhcurveto
            303 -168 rmoveto
            38 177 return
          </CharString>
          <CharString index="347">
            rlinecurve
            -91 -214 97 0 87 204 rlineto
            17 17 -1 18 hhcurveto
            return
          </CharString>
          <CharString index="348">
            rmoveto
            121 99 90 124 111 -89 87 -123 -120 return
          </CharString>
          <CharString index="349">
            1892 rmoveto
            38 178 -768 -161 -21 -101 rlineto
            return
          </CharString>
          <CharString index="350">
            1892 rmoveto
            37 178 -767 -161 -21 -101 rlineto
            return
          </CharString>
          <CharString index="351">
            1606 rmoveto
            630 hlineto
            40 187 rlineto
            -630 hlineto
            return
          </CharString>
          <CharString index="352">
            -738 0 -26 -127 105 -16 25 -27 48 -139 rlinecurve
            return
          </CharString>
          <CharString index="353">
            -611 hlineto
            -27 -127 rlineto
            137 -20 16 -18 -18 -85 return
          </CharString>
          <CharString index="354">
            -127 128 -19 16 -18 -19 -86 rlinecurve
            -219 -1034 return
          </CharString>
          <CharString index="355">
            712 0 26 127 -122 18 -13 20 18 85 rlinecurve
            return
          </CharString>
          <CharString index="356">
            148 -225 hhcurveto
            -167 -125 -95 -166 -82 hvcurveto
            return
          </CharString>
          <CharString index="357">
            111 -220 -254 -219 -148 -257 -83 vhcurveto
            return
          </CharString>
          <CharString index="358">
            87 -23 -105 302 -152 83 0 365 152 rlineto
            return
          </CharString>
          <CharString index="359">
            81 244 270 317 vvcurveto
            311 -248 237 return
          </CharString>
          <CharString index="360">
            70 100 72 hvcurveto
            27 129 rlineto
            -53 -60 -87 -22 -71 hhcurveto
            return
          </CharString>
          <CharString index="361">
            58 48 32 -37 -60 -77 -52 -50 -57 -49 -31 38 59 vhcurveto
            return
          </CharString>
          <CharString index="362">
            53 -15 9 -18 -11 -56 rlinecurve
            -162 -761 377 0 return
          </CharString>
          <CharString index="363">
            0 -122 371 -266 0 -275 -371 rlineto
            endchar
          </CharString>
          <CharString index="364">
            -1 91 -65 70 -113 34 127 13 112 66 -2 return
          </CharString>
          <CharString index="365">
            -7 232 -9 29 -32 11 -215 rlinecurve
            115 hlineto
            endchar
          </CharString>
          <CharString index="366">
            -49 14 21 -39 hvcurveto
            32 28 19 41 45 vvcurveto
            86 -65 67 return
          </CharString>
          <CharString index="367">
            hvcurveto
            -192 -103 -78 -88 -104 vvcurveto
            -110 92 -68 137 return
          </CharString>
          <CharString index="368">
            hhcurveto
            49 32 -30 -47 3 hvcurveto
            -61 3 -48 -37 -57 hhcurveto
            -49 return
          </CharString>
          <CharString index="369">
            rmoveto
            211 138 151 -138 231 callsubr
            return
          </CharString>
        <CharString name=".notdef">
          2048 -27 -494 rmoveto
          254 hlineto
          519 2444 rlineto
          -254 hlineto
          -109 122 callsubr
          -110 122 callsubr
          -109 122 callsubr
          -110 122 callsubr
          endchar
        </CharString>
        <CharString name=".null">
          0 endchar
        </CharString>
        <CharString name="A">
          1515 1386 329 -105 callsubr
        </CharString>
        <CharString name="AE">
          2072 2255 1444 144 callsubr
        </CharString>
        <CharString name="AEacute">
          2072 1577 -92 callsubr
          -87 callsubr
          344 -431 144 callsubr
        </CharString>
        <CharString name="AEmacron">
          2072 1190 244 callsubr
          1025 -349 144 callsubr
        </CharString>
        <CharString name="Aacute">
          1515 1134 70 callsubr
          29 callsubr
          -83 -1546 -105 callsubr
        </CharString>
        <CharString name="Abreve">
          1515 1097 128 callsubr
          -125 hlineto
          -90 -16 110 callsubr
          289 -1242 -105 callsubr
        </CharString>
        <CharString name="Abreveacute">
          1515 1490 243 callsubr
          306 -281 45 callsubr
          126 -98 227 hhcurveto
          341 -1198 -105 callsubr
        </CharString>
        <CharString name="Abrevecyrillic">
          1515 1045 179 callsubr
          -43 -107 -84 -117 hhcurveto
          -16 -14 1 2 -14 hvcurveto
          19 21 13 28 32 vvcurveto
          86 -63 62 -74 -93 -61 -65 -93 -115 92 -100 176 vhcurveto
          341 -1233 -105 callsubr
        </CharString>
        <CharString name="Abrevedotbelow">
          1515 1097 128 callsubr
          -125 hlineto
          -90 -16 110 callsubr
          289 -1242 rmoveto
          -30 callsubr
          44 callsubr
          -345 -734 -93 callsubr
          -82 callsubr
        </CharString>
        <CharString name="Abrevegrave">
          1515 757 -51 callgsubr
          251 -543 45 callsubr
          126 -98 227 hhcurveto
          341 -1198 -105 callsubr
        </CharString>
        <CharString name="Abrevehookabove">
          1515 1141 2066 rmoveto
          -91 -97 -27 -36 -63 hvcurveto
          -18 -79 rlineto
          13 38 66 13 52 hhcurveto
          86 36 -25 -33 -7 hvcurveto
          -8 -33 -46 -26 -104 -16 rrcurveto
          100 -62 160 28 101 53 18 88 rlinecurve
          87 18 -94 55 -147 hhcurveto
          -96 -539 45 callsubr
          126 -98 227 hhcurveto
          341 -1198 -105 callsubr
        </CharString>
        <CharString name="Abrevetilde">
          1515 1259 1832 rmoveto
          135 101 80 137 29 hvcurveto
          -149 hlineto
          -43 -8 -30 -20 -45 hhcurveto
          -27 -29 7 12 -34 hvcurveto
          -38 12 rlineto
          15 -48 -49 14 -58 hhcurveto
          -135 -102 -81 -137 -5 callsubr
          30 20 44 hhcurveto
          27 29 -7 -11 34 hvcurveto
          39 -13 rlineto
          -15 48 49 -13 58 hhcurveto
          -214 -305 45 callsubr
          126 -98 227 hhcurveto
          341 -1198 -105 callsubr
        </CharString>
        <CharString name="Acaron">
          1515 1314 -90 callsubr
          -50 callsubr
          -81 -1556 -105 callsubr
        </CharString>
        <CharString name="Acircumflex">
          1515 874 15 callsubr
          -77 callgsubr
          655 -1226 -105 callsubr
        </CharString>
        <CharString name="Acircumflexacute">
          1515 1486 116 callsubr
          -78 callsubr
          690 -1271 -105 callsubr
        </CharString>
        <CharString name="Acircumflexdotbelow">
          1515 874 15 callsubr
          -77 callgsubr
          655 -1226 rmoveto
          -30 callsubr
          44 callsubr
          -345 -734 -93 callsubr
          -82 callsubr
        </CharString>
        <CharString name="Acircumflexgrave">
          1515 752 114 callsubr
          -78 callsubr
          690 -1271 -105 callsubr
        </CharString>
        <CharString name="Acircumflexhookabove">
          1515 1454 113 callsubr
          81 34 -24 -34 -7 167 callsubr
          -78 callsubr
          690 -1271 -105 callsubr
        </CharString>
        <CharString name="Acircumflextilde">
          1515 1255 1813 -9 callsubr
          -8 -30 -21 -45 hhcurveto
          -27 -29 7 12 -67 callsubr
          -5 callsubr
          30 21 44 hhcurveto
          27 29 -8 -11 34 hvcurveto
          39 -13 rlineto
          -15 48 49 -13 58 hhcurveto
          -581 -319 rmoveto
          -78 callsubr
          690 -1271 -105 callsubr
        </CharString>
        <CharString name="Acyrillic">
          1515 1386 329 -105 callsubr
        </CharString>
        <CharString name="Adblgrave">
          1515 932 1876 rmoveto
          -260 -9 hlineto
          193 -312 rlineto
          -57 callgsubr
          116 hlineto
          151 -1226 -105 callsubr
        </CharString>
        <CharString name="Adieresis">
          1515 892 78 callsubr
          -65 callgsubr
          376 hmoveto
          82 68 68 83 234 callsubr
          118 -1243 -105 callsubr
        </CharString>
        <CharString name="Adieresismacron">
          1515 751 1867 rmoveto
          733 hlineto
          31 143 rlineto
          -733 hlineto
          80 -462 -8 callsubr
          -11 callgsubr
          -13 -21 callsubr
          -48 45 -71 -52 callgsubr
          158 -1219 -105 callsubr
        </CharString>
        <CharString name="Adotaccent">
          1515 1080 85 callgsubr
          306 -1226 -105 callsubr
        </CharString>
        <CharString name="Adotbelow">
          1515 1386 329 rmoveto
          -30 callsubr
          44 callsubr
          -345 -734 -93 callsubr
          -82 callsubr
        </CharString>
        <CharString name="Adotmacron">
          1515 745 1839 69 callsubr
          301 -443 rmoveto
          75 59 49 68 -28 callgsubr
          2 hvcurveto
          -68 1 61 -49 76 hhcurveto
          310 -1210 -105 callsubr
        </CharString>
        <CharString name="Agrave">
          1515 1046 51 callsubr
          241 -1226 -105 callsubr
        </CharString>
        <CharString name="Ahookabove">
          1515 1127 1905 rmoveto
          -106 -43 callgsubr
          72 38 -25 -44 -50 -50 -48 -97 -58 hvcurveto
          129 hlineto
          162 63 79 54 87 vvcurveto
          92 -91 65 -115 vhcurveto
          259 -1576 -105 callsubr
        </CharString>
        <CharString name="Ainvertedbreve">
          1515 1086 1923 rmoveto
          -198 -131 -124 -228 -6 hvcurveto
          124 hlineto
          90 16 78 51 108 -99 callgsubr
          124 hlineto
          10 126 callsubr
          300 -1594 -105 callsubr
        </CharString>
        <CharString name="Alphagreek">
          1515 1386 329 -105 callsubr
        </CharString>
        <CharString name="Alphatonosgreek">
          1515 1386 329 rmoveto
          -30 callsubr
          17 -154 -25 -29 -152 -22 rlinecurve
          -27 -127 740 0 -30 callgsubr
          -1011 1115 54 callsubr
          -148 -846 rmoveto
          285 530 58 -530 rlineto
          endchar
        </CharString>
        <CharString name="Amacron">
          1515 747 13 callsubr
          599 -1464 -105 callsubr
        </CharString>
        <CharString name="Aogonek">
          1515 1126 48 callgsubr
          265 hlineto
          -30 callgsubr
          -30 callsubr
          rlineto
          17 -154 -25 -29 -152 -22 -27 -127 rcurveline
          315 103 callgsubr
          -534 1089 rmoveto
          285 530 58 -530 rlineto
          endchar
        </CharString>
        <CharString name="Aring">
          1515 810 1755 rmoveto
          -126 113 -79 153 197 107 103 117 126 -113 80 -153 -196 -108 -105 -116 vhcurveto
          201 -5 rmoveto
          68 45 42 52 43 29 -33 -52 -68 -45 -43 -52 -43 -29 33 53 vhcurveto
          375 -1421 -105 callsubr
        </CharString>
        <CharString name="Aringacute">
          1515 1486 1875 rmoveto
          37 178 -767 207 callsubr
          44 hhcurveto
          43 hlineto
          44 22 -16 -26 -5 hvcurveto
          -26 -5 -31 -16 -43 hhcurveto
          304 -1269 -105 callsubr
        </CharString>
        <CharString name="Aringbelow">
          1515 1386 329 rmoveto
          -30 callsubr
          44 callsubr
          -670 -899 45 callgsubr
          -171 hhcurveto
          -218 -117 -105 -107 5 hvcurveto
          222 -5 rmoveto
          61 -3 48 37 57 261 callsubr
          -32 30 47 -3 hvcurveto
          endchar
        </CharString>
        <CharString name="Atilde">
          1515 1198 142 callsubr
          -25 -23 -32 hhcurveto
          -21 -19 10 16 -18 hvcurveto
          -24 20 rlineto
          36 -48 -50 102 callgsubr
          32 hhcurveto
          21 19 -15 callgsubr
          59 hhcurveto
          188 -1244 -105 callsubr
        </CharString>
        <CharString name="B">
          1532 1548 450 93 callsubr
        </CharString>
        <CharString name="Bdotaccent">
          1532 1086 -66 callsubr
          83 callsubr
          462 -1105 93 callsubr
        </CharString>
        <CharString name="Bdotbelow">
          204 callsubr
          -409 -577 -93 callsubr
          -82 callsubr
        </CharString>
        <CharString name="Becyrillic">
          1524 1548 480 rmoveto
          228 -186 148 -345 vhcurveto
          -212 hlineto
          91 440 238 -8 234 -7 32 -33 19 -212 rlinecurve
          119 hlineto
          77 408 -1259 0 -27 -127 rlineto
          142 -21 16 -16 -18 -86 -200 -944 rcurveline
          -18 -86 -24 -16 -151 -21 -27 -127 rcurveline
          779 hlineto
          413 307 183 297 hvcurveto
          -429 -1 rmoveto
          -171 -127 -149 -254 -8 vhcurveto
          -84 -3 118 556 rlineto
          104 hlineto
          147 96 -68 -157 hvcurveto
          endchar
        </CharString>
        <CharString name="Betagreek">
          1532 1548 450 93 callsubr
        </CharString>
        <CharString name="Blinebelow">
          204 callsubr
          -760 -829 -77 callsubr
        </CharString>
        <CharString name="C">
          1449 681 561 -43 callsubr
          -25 callsubr
        </CharString>
        <CharString name="Cacute">
          1449 1242 70 callsubr
          29 callsubr
          -896 -1314 -43 callsubr
          -25 callsubr
        </CharString>
        <CharString name="Ccaron">
          1449 1422 -90 callsubr
          -50 callsubr
          -894 -1324 -43 callsubr
          -25 callsubr
        </CharString>
        <CharString name="Ccedilla">
          1449 681 561 -43 callsubr
          -6 -403 252 -223 320 -50 rrcurveto
          -101 -100 104 callsubr
          130 callsubr
          59 56 rlineto
          184 161 callsubr
        </CharString>
        <CharString name="Ccedillaacute">
          1449 1242 70 callsubr
          29 callsubr
          -896 -1314 -43 callsubr
          -6 -403 252 -223 320 -50 rrcurveto
          -101 -100 104 callsubr
          130 callsubr
          59 56 rlineto
          184 161 callsubr
        </CharString>
        <CharString name="Ccircumflex">
          1449 982 15 callsubr
          -77 callgsubr
          -158 -994 -43 callsubr
          -25 callsubr
        </CharString>
        <CharString name="Cdotaccent">
          1449 1188 85 callgsubr
          -507 -994 -43 callsubr
          -25 callsubr
        </CharString>
        <CharString name="Checyrillic">
          1678 1115 250 rmoveto
          -19 -90 -28 -12 -159 -21 rrcurveto
          -27 -127 747 0 27 127 176 callsubr
          27 127 -719 0 -27 -127 rlineto
          129 -18 16 -16 -19 -89 -89 -418 rcurveline
          -23 -80 -70 -14 -87 hhcurveto
          -138 -71 92 216 46 hvcurveto
          33 152 18 82 16 24 125 12 rlinecurve
          27 127 -700 0 -27 -127 rlineto
          137 -14 13 -22 -17 -82 -34 -161 rcurveline
          -338 -72 158 -149 364 hhcurveto
          145 88 30 28 91 hvcurveto
          endchar
        </CharString>
        <CharString name="Chigreek">
          1489 357 335 33 callsubr
        </CharString>
        <CharString name="D">
          1663 20 callsubr
          endchar
        </CharString>
        <CharString name="Dbar">
          1663 193 672 rmoveto
          161 hlineto
          -90 -422 rlineto
          -18 -85 -23 -18 -146 -20 -27 -127 rcurveline
          636 hlineto
          605 440 330 498 404 -312 212 -451 hvcurveto
          246 callsubr
          -82 -386 rcurveline
          -161 hlineto
          1059 78 136 callsubr
          112 527 210 0 28 136 -209 0 104 491 49 -3 rlineto
          210 -13 128 -156 -241 vvcurveto
          endchar
        </CharString>
        <CharString name="Dcaron">
          1663 1290 -90 callsubr
          -23 callsubr
          287 -1057 119 callsubr
          endchar
        </CharString>
        <CharString name="Dcircumflexbelow">
          1663 20 callsubr
          -874 -1367 rmoveto
          222 169 151 -169 141 256 callsubr
        </CharString>
        <CharString name="Dcommaaccent">
          1663 20 callsubr
          -697 -1379 -42 callgsubr
          151 callsubr
        </CharString>
        <CharString name="Ddotaccent">
          1663 1056 28 callsubr
          66 callsubr
          675 -727 119 callsubr
          endchar
        </CharString>
        <CharString name="Ddotbelow">
          1663 20 callsubr
          -647 -1022 -93 callsubr
          77 -76 callgsubr
        </CharString>
        <CharString name="Decyrillic">
          1582 662 734 rmoveto
          45 163 52 194 46 192 rrcurveto
          410 hlineto
          -239 -1122 rlineto
          -553 hlineto
          90 119 67 165 82 289 rrcurveto
          940 -573 rmoveto
          -217 hlineto
          219 1033 18 86 25 17 144 20 rlinecurve
          27 127 -1342 0 -27 -127 rlineto
          157 -18 18 -28 -34 -146 -30 -123 -34 -131 -42 -137 -79 -270 -79 -187 -114 -116 rrcurveto
          -148 hlineto
          -110 -473 rlineto
          126 hlineto
          260 121 66 52 225 hhcurveto
          615 hlineto
          227 44 -52 -260 10 hvcurveto
          126 hlineto
          endchar
        </CharString>
        <CharString name="Deltagreek">
          1328 16 hmoveto
          1297 hlineto
          22 111 -208 1333 -333 0 -755 -1333 rlineto
          215 39 rmoveto
          517 964 124 -964 rlineto
          endchar
        </CharString>
        <CharString name="Djecyrillic">
          1820 1844 423 rmoveto
          278 -191 139 -305 -119 -84 -19 -23 -78 vhcurveto
          101 callgsubr
          78 408 -1332 0 214 callsubr
          16 61 59 8 71 hhcurveto
          133 81 -72 -160 -290 -148 -262 -294 -160 hvcurveto
          36 -104 rlineto
          537 171 276 289 357 vvcurveto
          endchar
        </CharString>
        <CharString name="Dlinebelow">
          1663 20 callsubr
          -998 -1274 -77 callsubr
        </CharString>
        <CharString name="Dzecyrillic">
          1238 638 -33 87 callsubr
          endchar
        </CharString>
        <CharString name="Dzhecyrillic">
          1701 174 callsubr
          544 hlineto
          117 19 -28 -284 -8 hvcurveto
          125 hlineto
          284 113 30 28 117 hhcurveto
          545 hlineto
          27 127 -136 20 -17 17 18 86 rlinecurve
          200 944 19 86 23 16 146 21 24 callsubr
          127 -19 16 -18 -19 -86 rlinecurve
          -219 -1034 -467 169 callsubr
        </CharString>
        <CharString name="E">
          1355 1551 1444 -102 callsubr
          -98 callsubr
        </CharString>
        <CharString name="Eacute">
          1355 1074 -92 callsubr
          -87 callsubr
          143 -431 -102 callsubr
          -98 callsubr
        </CharString>
        <CharString name="Ebreve">
          1355 1036 -89 callgsubr
          -16 -79 162 callsubr
          515 -127 -102 callsubr
          -98 callsubr
        </CharString>
        <CharString name="Ecaron">
          1355 1253 -90 callsubr
          -23 callsubr
          144 -441 -102 callsubr
          -98 callsubr
        </CharString>
        <CharString name="Ecedilla">
          1355 595 -493 -82 callgsubr
          84 callsubr
          478 -29 callgsubr
          -44 callsubr
          -4 callgsubr
          -61 callgsubr
          595 -94 callgsubr
          -85 callgsubr
          endchar
        </CharString>
        <CharString name="Ecedillabreve">
          1355 1036 -89 callgsubr
          -16 -79 162 callsubr
          -441 -2064 -82 callgsubr
          84 callsubr
          478 -29 callgsubr
          -44 callsubr
          -4 callgsubr
          -61 callgsubr
          595 -94 callgsubr
          -85 callgsubr
          endchar
        </CharString>
        <CharString name="Ecircumflex">
          1355 813 -12 callsubr
          881 -111 -102 callsubr
          -98 callsubr
        </CharString>
        <CharString name="Ecircumflexacute">
          1355 1425 116 callsubr
          -78 callsubr
          916 -156 -102 callsubr
          -98 callsubr
        </CharString>
        <CharString name="Ecircumflexbelow">
          1355 1551 1444 -102 callsubr
          -44 callsubr
          -1054 -1517 -56 callsubr
        </CharString>
        <CharString name="Ecircumflexdotbelow">
          1355 813 -12 callsubr
          881 -111 -102 callsubr
          -44 callsubr
          -826 -1172 12 callsubr
        </CharString>
        <CharString name="Ecircumflexgrave">
          1355 691 114 callsubr
          -78 callsubr
          916 -156 -102 callsubr
          -98 callsubr
        </CharString>
        <CharString name="Ecircumflexhookabove">
          1355 1393 113 callsubr
          82 33 -24 -34 -7 167 callsubr
          -78 callsubr
          916 -156 -102 callsubr
          -98 callsubr
        </CharString>
        <CharString name="Ecircumflextilde">
          1355 1194 1813 -9 callsubr
          -8 -30 -21 -45 hhcurveto
          -27 -29 7 12 -67 callsubr
          -5 callsubr
          30 21 44 hhcurveto
          28 28 -8 -11 -105 callgsubr
          -581 -319 rmoveto
          -78 callsubr
          916 -156 -102 callsubr
          -98 callsubr
        </CharString>
        <CharString name="Ecyrillic">
          1457 681 561 rmoveto
          31 1 31 3 30 vhcurveto
          532 -5 37 172 -541 -5 rlineto
          271 70 176 220 211 hhcurveto
          176 96 -109 -209 6 hvcurveto
          115 -4 61 347 rlineto
          78 -107 -199 -45 callgsubr
          -25 callsubr
        </CharString>
        <CharString name="Edblgrave">
          1355 872 57 callsubr
          -57 callgsubr
          117 hlineto
          376 -111 -102 callsubr
          -98 callsubr
        </CharString>
        <CharString name="Edieresis">
          1355 832 58 callsubr
          -80 -82 -69 125 callsubr
          343 -128 -102 callsubr
          -98 callsubr
        </CharString>
        <CharString name="Edotaccent">
          1355 1020 -66 callsubr
          83 callsubr
          531 -111 -102 callsubr
          -98 callsubr
        </CharString>
        <CharString name="Edotbelow">
          1355 1551 1444 -102 callsubr
          -44 callsubr
          -826 -1172 12 callsubr
        </CharString>
        <CharString name="Efcyrillic">
          2073 187 678 rmoveto
          -261 215 -163 484 -31 vhcurveto
          -3 -13 -16 -76 -22 -19 -153 -16 rlinecurve
          -27 -126 726 0 27 126 rlineto
          -145 16 -16 19 17 76 2 12 rcurveline
          674 33 236 235 1 276 -1 261 -215 163 -483 31 rrcurveto
          2 13 17 76 22 19 153 16 rlinecurve
          26 126 -726 0 -26 -126 rlineto
          145 -16 15 -19 -16 -76 -3 -12 rcurveline
          -674 -34 -236 -234 -276 vvcurveto
          447 -1 rmoveto
          213 99 136 330 32 vhcurveto
          -142 -667 rlineto
          -214 34 -73 102 150 vvcurveto
          1106 90 rmoveto
          -1 -213 -99 -136 -329 -32 rrcurveto
          141 667 214 -34 73 -102 1 -150 rlinecurve
          endchar
        </CharString>
        <CharString name="Egrave">
          1355 986 77 callsubr
          -78 callgsubr
          466 -111 -102 callsubr
          -98 callsubr
        </CharString>
        <CharString name="Ehookabove">
          1355 1067 137 callsubr
          484 -461 -102 callsubr
          -98 callsubr
        </CharString>
        <CharString name="Einvertedbreve">
          1355 1025 127 callsubr
          124 hlineto
          90 16 79 51 107 hhcurveto
          96 66 -57 -70 hvcurveto
          -6 0 -5 -3 vvcurveto
          124 hlineto
          9 126 callsubr
          526 -479 -102 callsubr
          -98 callsubr
        </CharString>
        <CharString name="Elcyrillic">
          1640 249 -33 rmoveto
          231 131 201 499 134 hvcurveto
          79 295 44 175 35 147 rrcurveto
          394 hlineto
          -220 -1034 -19 -89 -21 -16 -138 -18 -90 callgsubr
          176 callsubr
          27 127 -1325 3 callgsubr
          -113 72 -79 130 hvcurveto
          endchar
        </CharString>
        <CharString name="Emacron">
          1355 686 -49 callgsubr
          824 -349 -102 callsubr
          -98 callsubr
        </CharString>
        <CharString name="Emacronacute">
          1355 1429 1892 rmoveto
          38 178 -768 -39 callgsubr
          891 -284 -102 callsubr
          -98 callsubr
        </CharString>
        <CharString name="Emacrongrave">
          1355 696 1892 rmoveto
          715 -84 22 -46 callgsubr
          891 -284 -102 callsubr
          -98 callsubr
        </CharString>
        <CharString name="Emcyrillic">
          1938 988 1444 36 callsubr
        </CharString>
        <CharString name="Encyrillic">
          7 callsubr
          -2 callsubr
          -47 callgsubr
          endchar
        </CharString>
        <CharString name="Eogonek">
          1355 984 65 callgsubr
          63 93 64 21 59 37 42 hvcurveto
          170 hlineto
          105 445 rlineto
          -116 hlineto
          -115 -257 -44 callsubr
          -4 callgsubr
          rlineto
          138 -20 15 -18 -18 -85 -201 -944 65 callsubr
          901 hlineto
          -150 -79 -87 -101 -112 vvcurveto
          -117 111 -82 159 vhcurveto
          endchar
        </CharString>
        <CharString name="Epsilongreek">
          1355 1551 1444 -102 callsubr
          -98 callsubr
        </CharString>
        <CharString name="Epsilontonosgreek">
          1796 1992 1444 -102 callsubr
          -52 -26 -234 -8 rrcurveto
          -219 -9 110 518 rlineto
          171 hlineto
          68 17 -25 -167 -7 hvcurveto
          109 hlineto
          112 530 rlineto
          -108 hlineto
          -166 -65 -28 -26 -67 hhcurveto
          -172 hlineto
          104 490 200 -7 219 -8 36 -32 10 -216 rlinecurve
          115 hlineto
          -1542 408 54 callsubr
          endchar
        </CharString>
        <CharString name="Ercyrillic">
          1494 806 hmoveto
          35 callsubr
        </CharString>
        <CharString name="Ereversedcyrillic">
          1501 422 1343 rmoveto
          -82 -355 rlineto
          117 hlineto
          230 95 121 93 153 hhcurveto
          208 94 -198 -291 hvcurveto
          -3 0 -3 -3 vvcurveto
          -526 5 -37 -174 550 6 rlineto
          -287 -45 -157 -232 -254 hhcurveto
          -193 -109 113 212 1 hvcurveto
          -116 hlineto
          -57 -355 rlineto
          -63 70 216 -71 221 hhcurveto
          530 349 342 465 472 -344 231 -367 -167 -165 -46 -88 -106 hvcurveto
          endchar
        </CharString>
        <CharString name="Escyrillic">
          1449 681 561 -43 callsubr
          -25 callsubr
        </CharString>
        <CharString name="Etagreek">
          7 callsubr
          -2 callsubr
          -47 callgsubr
          endchar
        </CharString>
        <CharString name="Etatonosgreek">
          2152 1111 250 rmoveto
          87 408 476 0 -86 -408 -19 -88 -23 -18 -136 -17 -90 callgsubr
          -137 92 callgsubr
          26 127 -719 0 -27 -127 129 80 callgsubr
          136 19 24 callsubr
          137 69 callgsubr
          719 0 27 127 -127 19 -16 19 18 85 rlinecurve
          -739 1194 54 callsubr
          endchar
        </CharString>
        <CharString name="Etilde">
          1355 1137 1573 rmoveto
          101 85 -96 callgsubr
          -24 -23 -33 hhcurveto
          -20 -19 10 16 -19 hvcurveto
          -24 20 rlineto
          36 -48 119 callgsubr
          24 23 33 hhcurveto
          21 19 -10 -16 18 1 callgsubr
          414 -129 -102 callsubr
          -98 callsubr
        </CharString>
        <CharString name="Etildebelow">
          1355 1551 1444 -102 callsubr
          -44 callsubr
          -708 -1497 76 callsubr
          -133 hlineto
          -100 -16 -27 -26 -37 hhcurveto
          60 callsubr
          23 callsubr
          41 callgsubr
        </CharString>
        <CharString name="F">
          1267 1528 1444 rmoveto
          -1171 97 callgsubr
          199 callsubr
        </CharString>
        <CharString name="Fdotaccent">
          1267 1056 28 callsubr
          66 callsubr
          472 -111 rmoveto
          -1171 97 callgsubr
          199 callsubr
        </CharString>
        <CharString name="G">
          1608 242 653 -31 callsubr
        </CharString>
        <CharString name="Gacute">
          1608 1235 70 callsubr
          29 callsubr
          -1328 -1222 -31 callsubr
        </CharString>
        <CharString name="Gammagreek">
          1289 1547 1444 rmoveto
          -1187 hlineto
          -27 -127 143 -21 16 -16 -18 -86 rlinecurve
          -200 -944 -19 -86 -23 -16 -151 -21 rlinecurve
          -27 -127 753 0 27 127 -155 21 -17 17 18 85 rlinecurve
          223 1049 180 258 callsubr
        </CharString>
        <CharString name="Gbreve">
          1608 1198 128 callsubr
          -125 hlineto
          -90 -16 110 callsubr
          -956 -918 -31 callsubr
        </CharString>
        <CharString name="Gcaron">
          1608 1415 -90 callsubr
          -50 callsubr
          -1326 -1232 -31 callsubr
        </CharString>
        <CharString name="Gcircumflex">
          1608 975 15 callsubr
          -77 callgsubr
          -590 -902 -31 callsubr
        </CharString>
        <CharString name="Gcommaaccent">
          1608 242 653 rmoveto
          -6 -460 331 -225 387 -1 rrcurveto
          205 199 56 70 106 hvcurveto
          83 390 18 82 18 20 126 16 rlinecurve
          27 126 -651 0 -27 -126 rlineto
          139 -16 12 -19 -17 -81 -65 -317 rcurveline
          -20 -31 -48 -10 -47 hhcurveto
          -194 -125 157 266 374 216 371 275 175 96 -109 -209 6 hvcurveto
          115 -4 61 347 rlineto
          78 -106 -200 -45 callgsubr
          578 -1146 132 callsubr
          133 callsubr
          -44 -44 12 15 -36 -100 callgsubr
        </CharString>
        <CharString name="Gdotaccent">
          1608 1181 1555 rmoveto
          92 77 75 92 84 -66 68 -90 -93 -32 callsubr
          -939 -902 -31 callsubr
        </CharString>
        <CharString name="Geacutecyrillic">
          1273 1056 70 callsubr
          29 callsubr
          140 -431 209 callsubr
        </CharString>
        <CharString name="Gecyrillic">
          1273 1531 1444 209 callsubr
        </CharString>
        <CharString name="Germandbls">
          1683 636 hmoveto
          268 1299 149 -6 rlineto
          227 -10 79 -80 -134 vvcurveto
          -116 -95 -76 -151 -12 vhcurveto
          -54 -246 rlineto
          176 -66 82 -120 -132 vvcurveto
          -115 -64 -59 -96 -122 -67 104 192 6 vhcurveto
          -116 hlineto
          -68 -342 rlineto
          -67 81 144 -47 162 hhcurveto
          277 234 158 282 185 -82 154 -162 96 hvcurveto
          159 22 133 96 166 vvcurveto
          205 -181 113 -357 vhcurveto
          -833 hlineto
          -27 -127 rlineto
          139 -20 17 -21 -17 -82 -196 -944 rcurveline
          -18 -86 -23 -16 -148 -21 -25 -127 rcurveline
          endchar
        </CharString>
        <CharString name="Geupturncyrillic">
          1257 1483 1290 rmoveto
          103 466 rlineto
          -125 hlineto
          -257 -122 -54 -55 -206 hhcurveto
          -723 hlineto
          -27 -127 136 -20 16 -17 -18 -86 rlinecurve
          -200 -944 -18 -86 -23 -16 -146 -21 rlinecurve
          -27 -127 753 0 27 127 rlineto
          -136 21 -42 17 18 85 222 1040 rcurveline
          endchar
        </CharString>
        <CharString name="Gmacron">
          1608 848 13 callsubr
          -646 -1140 -31 callsubr
        </CharString>
        <CharString name="H">
          7 callsubr
          -2 callsubr
          -47 callgsubr
          endchar
        </CharString>
        <CharString name="Hacyrillic">
          1489 357 335 33 callsubr
        </CharString>
        <CharString name="Hardsigncyrillic">
          1736 1805 -68 callgsubr
          18 87 29 13 160 23 rlinecurve
          26 127 -1013 0 -94 -408 rlineto
          119 hlineto
          101 231 57 22 194 6 rrcurveto
          17 hlineto
          -221 -1045 rlineto
          -18 -86 -23 -16 -145 -21 -27 -127 rcurveline
          -32 callgsubr
          -430 -2 rmoveto
          -192 -126 -170 -254 -8 vhcurveto
          -84 -3 128 -38 callgsubr
        </CharString>
        <CharString name="Hbar">
          7 callsubr
          -21 -18 -136 -17 rlinecurve
          -27 -127 717 0 27 127 -138 18 -15 17 19 88 rlinecurve
          159 749 160 0 29 136 -161 0 13 59 19 88 23 17 145 18 rlinecurve
          27 127 -717 0 -27 -127 129 -17 13 -18 -19 -88 rlinecurve
          -12 -59 -477 0 13 59 18 85 22 19 136 19 rlinecurve
          27 127 -717 0 -27 -127 137 -20 15 -18 -18 -85 rlinecurve
          -12 -59 -161 0 -28 -136 160 0 -159 -749 -103 callgsubr
          717 0 27 127 -128 19 -13 19 18 85 rlinecurve
          119 563 rmoveto
          40 186 476 0 -40 -186 rlineto
          endchar
        </CharString>
        <CharString name="Hbrevebelow">
          7 callsubr
          -2 callsubr
          -47 callgsubr
          130 -727 rmoveto
          206 139 127 236 6 hvcurveto
          -132 hlineto
          -90 -16 -82 -51 -111 hhcurveto
          -100 -69 59 71 -1 hvcurveto
          4 1 4 3 vvcurveto
          -132 hlineto
          -9 -25 -6 -34 -36 vvcurveto
          -154 2 129 -114 175 hhcurveto
          endchar
        </CharString>
        <CharString name="Hcaron">
          1711 1452 1884 rmoveto
          -213 -137 -156 137 -147 0 -23 callsubr
          -935 -1634 rmoveto
          52 callsubr
          -47 callgsubr
          endchar
        </CharString>
        <CharString name="Hcedilla">
          1711 285 -493 -82 callgsubr
          84 callsubr
          277 0 26 127 -127 19 -15 19 18 85 rlinecurve
          52 callsubr
          286 -94 callgsubr
          -41 -25 -73 -56 -46 15 17 -32 hvcurveto
          -13 callgsubr
        </CharString>
        <CharString name="Hcircumflex">
          1711 1012 1554 rmoveto
          211 139 151 -139 231 callsubr
          -198 -1304 rmoveto
          52 callsubr
          -47 callgsubr
          endchar
        </CharString>
        <CharString name="Hdieresis">
          1711 1030 1571 rmoveto
          82 68 68 83 1 hvcurveto
          77 -59 61 -79 -83 -68 -67 -85 -76 58 -61 80 vhcurveto
          377 hmoveto
          82 67 68 83 1 hvcurveto
          77 -58 61 -79 -83 -69 -67 -85 -76 58 -61 81 vhcurveto
          -736 -1321 rmoveto
          52 callsubr
          -47 callgsubr
          endchar
        </CharString>
        <CharString name="Hdotaccent">
          1711 1218 28 callsubr
          91 85 -66 68 -89 -94 -72 callgsubr
          -547 -1305 rmoveto
          52 callsubr
          -47 callgsubr
          endchar
        </CharString>
        <CharString name="Hdotbelow">
          7 callsubr
          -2 callsubr
          -47 callgsubr
          130 -386 -93 callsubr
          -82 callsubr
        </CharString>
        <CharString name="I">
          829 671 250 -94 callsubr
        </CharString>
        <CharString name="IAcyrillic">
          1543 324 972 rmoveto
          -155 83 -100 155 -41 vhcurveto
          -201 -244 -131 -160 -117 -128 -71 -24 rlinecurve
          -27 -120 436 0 461 586 rlineto
          8 8 0 7 hhcurveto
          116 hlineto
          -71 -336 -18 -89 -24 -16 -136 -18 -90 callgsubr
          rlineto
          -137 18 -16 16 19 89 200 944 rcurveline
          19 89 22 16 146 18 26 127 rcurveline
          -765 hlineto
          -472 -239 -186 -286 hvcurveto
          422 -17 rmoveto
          197 115 134 248 7 vhcurveto
          92 3 -118 -559 rlineto
          -106 hlineto
          -137 -94 74 144 hvcurveto
          endchar
        </CharString>
        <CharString name="IJ">
          1659 1506 284 159 callsubr
          -68 -20 callgsubr
          -835 -34 -94 callsubr
        </CharString>
        <CharString name="IJacute">
          1659 824 -92 callsubr
          -87 callsubr
          487 1 rmoveto
          -202 -87 callsubr
          -473 -1591 159 callsubr
          -68 -20 callgsubr
          -835 -34 -94 callsubr
        </CharString>
        <CharString name="IUcyrillic">
          2406 49 hmoveto
          719 hlineto
          27 127 rlineto
          -128 19 -16 18 18 86 87 408 rcurveline
          190 hlineto
          -6 0 -7 -7 vvcurveto
          -360 230 -311 474 497 329 377 462 360 -230 312 -474 -1 vhcurveto
          -433 -1 -305 -285 -72 -378 rrcurveto
          -173 hlineto
          80 381 19 86 22 17 138 20 24 callsubr
          73 callgsubr
          1569 4 rmoveto
          -157 -90 136 274 356 129 416 250 157 90 -136 -274 -356 -130 -416 -249 hvcurveto
          endchar
        </CharString>
        <CharString name="Iacute">
          829 824 -92 callsubr
          -87 callsubr
          -487 -1625 -94 callsubr
        </CharString>
        <CharString name="Ibreve">
          829 786 -89 callgsubr
          -17 -78 162 callsubr
          -115 -1321 -94 callsubr
        </CharString>
        <CharString name="Icaron">
          829 1003 -90 callsubr
          -23 callsubr
          -486 -1635 -94 callsubr
        </CharString>
        <CharString name="Icircumflex">
          829 563 -12 callsubr
          251 -1305 -94 callsubr
        </CharString>
        <CharString name="Icyrillic">
          829 671 250 -94 callsubr
        </CharString>
        <CharString name="Idblgrave">
          829 622 57 callsubr
          -57 callgsubr
          117 hlineto
          -254 -1305 -94 callsubr
        </CharString>
        <CharString name="Idieresis">
          829 582 1572 rmoveto
          81 68 73 callsubr
          125 callsubr
          -287 -1322 -94 callsubr
        </CharString>
        <CharString name="Idieresisacute">
          829 1179 243 callsubr
          123 -260 -8 callsubr
          -11 callgsubr
          -13 -21 callsubr
          -48 45 -71 -52 callgsubr
          -246 -1298 -94 callsubr
        </CharString>
        <CharString name="Idotaccent">
          829 770 -66 callsubr
          83 callsubr
          -99 -1305 -94 callsubr
        </CharString>
        <CharString name="Idotbelow">
          829 671 250 rmoveto
          47 callsubr
          79 callsubr
          -17 callsubr
          55 callsubr
          -315 -386 rmoveto
          -92 -76 -75 -91 -85 66 -68 89 94 76 -76 callgsubr
        </CharString>
        <CharString name="Iecyrillic">
          1355 1551 1444 -102 callsubr
          -98 callsubr
        </CharString>
        <CharString name="Igrave">
          829 736 77 callsubr
          -78 callgsubr
          -164 -1305 -94 callsubr
        </CharString>
        <CharString name="Ihookabove">
          829 817 137 callsubr
          -146 -1655 -94 callsubr
        </CharString>
        <CharString name="Iicyrillic">
          1725 49 hmoveto
          189 callsubr
        </CharString>
        <CharString name="Iinvertedbreve">
          829 775 127 callsubr
          124 hlineto
          90 16 79 51 107 -99 callgsubr
          125 hlineto
          9 126 callsubr
          -104 -1673 -94 callsubr
        </CharString>
        <CharString name="Iishortcyrillic">
          1725 1205 179 callsubr
          13 callgsubr
          -1156 -1562 rmoveto
          189 callsubr
        </CharString>
        <CharString name="Imacron">
          829 436 -49 callgsubr
          194 -1543 -94 callsubr
        </CharString>
        <CharString name="Iocyrillic">
          1355 832 58 callsubr
          -80 -82 -69 125 callsubr
          343 -128 -102 callsubr
          -98 callsubr
        </CharString>
        <CharString name="Iogonek">
          829 381 48 callgsubr
          271 hlineto
          27 127 -137 20 -15 18 18 85 rlinecurve
          47 callsubr
          rlineto
          137 -14 15 -24 -18 -85 -200 -944 65 callsubr
          297 103 callgsubr
          endchar
        </CharString>
        <CharString name="Iotadieresisgreek">
          829 582 1572 rmoveto
          81 68 73 callsubr
          125 callsubr
          -287 -1322 -94 callsubr
        </CharString>
        <CharString name="Iotagreek">
          829 671 250 -94 callsubr
        </CharString>
        <CharString name="Iotatonosgreek">
          1281 1122 250 rmoveto
          47 callsubr
          79 callsubr
          -17 callsubr
          55 callsubr
          -750 1194 54 callsubr
          endchar
        </CharString>
        <CharString name="Itilde">
          829 887 1573 rmoveto
          101 85 -96 callgsubr
          10 callsubr
          152 callsubr
          -216 -1323 -94 callsubr
        </CharString>
        <CharString name="Itildebelow">
          829 671 250 rmoveto
          47 callsubr
          79 callsubr
          -17 callsubr
          55 callsubr
          -196 -711 76 callsubr
          25 callsubr
          60 callsubr
          23 callsubr
          42 callgsubr
        </CharString>
        <CharString name="J">
          829 677 284 102 callsubr
        </CharString>
        <CharString name="Jacute">
          829 816 -92 callsubr
          -87 callsubr
          -473 -1591 102 callsubr
        </CharString>
        <CharString name="Jcircumflex">
          829 555 -12 callsubr
          265 -1271 102 callsubr
        </CharString>
        <CharString name="Jecyrillic">
          829 677 284 102 callsubr
        </CharString>
        <CharString name="K">
          1532 671 250 -4 callsubr
        </CharString>
        <CharString name="Kaacutecyrillic">
          1532 1272 -92 callsubr
          -38 callsubr
          -935 -1625 -4 callsubr
        </CharString>
        <CharString name="Kacute">
          1532 1272 -92 callsubr
          -38 callsubr
          -935 -1625 -4 callsubr
        </CharString>
        <CharString name="Kacyrillic">
          1532 671 250 -4 callsubr
        </CharString>
        <CharString name="Kappagreek">
          1532 671 250 -4 callsubr
        </CharString>
        <CharString name="Kcaron">
          1532 1452 -90 callsubr
          -50 callsubr
          -934 -1635 -4 callsubr
        </CharString>
        <CharString name="Kcommaaccent">
          145 callsubr
          122 -743 -61 callsubr
          -80 callgsubr
        </CharString>
        <CharString name="Kdotbelow">
          145 callsubr
          173 -386 12 callsubr
        </CharString>
        <CharString name="Klinebelow">
          145 callsubr
          -179 -638 -77 callsubr
        </CharString>
        <CharString name="L">
          8 callsubr
          endchar
        </CharString>
        <CharString name="Lacute">
          1259 825 -92 callsubr
          -38 callsubr
          53 -1875 rmoveto
          -27 callsubr
          -1 callsubr
          endchar
        </CharString>
        <CharString name="Lambdagreek">
          1532 1398 315 rmoveto
          -154 1129 -344 0 -630 -1122 -88 -155 -27 -24 -126 -16 rlinecurve
          -27 -127 504 0 27 127 -150 22 -12 27 93 170 rlinecurve
          420 777 92 -805 16 -144 -23 -26 -154 -21 rlinecurve
          -27 -127 743 0 27 127 -122 16 -18 24 -20 148 rlinecurve
          endchar
        </CharString>
        <CharString name="Lcaron">
          1259 1285 1136 rmoveto
          285 458 -280 0 -138 -458 rlineto
          60 -1136 rmoveto
          -27 callsubr
          -1 callsubr
          endchar
        </CharString>
        <CharString name="Lcircumflexbelow">
          8 callsubr
          319 -481 -56 callsubr
        </CharString>
        <CharString name="Lcommaaccent">
          8 callsubr
          496 -493 -61 callsubr
          112 callsubr
        </CharString>
        <CharString name="Ldot">
          8 callsubr
          1141 685 rmoveto
          110 88 88 107 100 -78 80 -104 -110 -89 -88 -109 -99 77 -79 106 hvcurveto
          endchar
        </CharString>
        <CharString name="Ldotbelow">
          8 callsubr
          547 -136 -93 callsubr
          -16 callsubr
        </CharString>
        <CharString name="Ldotbelowmacron">
          1259 438 13 callsubr
          734 -1793 rmoveto
          -27 callsubr
          -1 callsubr
          547 -136 -93 callsubr
          -16 callsubr
        </CharString>
        <CharString name="Ljecyrillic">
          2266 47 159 rmoveto
          -113 72 -79 130 231 131 201 499 134 vhcurveto
          79 295 44 175 35 147 rrcurveto
          371 hlineto
          -220 -1034 rlineto
          -18 -86 -24 -16 -150 -21 -27 -127 rcurveline
          779 hlineto
          413 307 199 324 231 -186 150 -345 hvcurveto
          -203 hlineto
          61 290 19 87 29 13 159 23 rlinecurve
          27 127 -1322 3 callgsubr
          hvcurveto
          1858 362 -35 callgsubr
          128 605 rlineto
          94 hlineto
          147 96 -71 -161 hvcurveto
          endchar
        </CharString>
        <CharString name="Llinebelow">
          8 callsubr
          196 -388 140 callsubr
        </CharString>
        <CharString name="Lslash">
          1259 172 584 rmoveto
          171 41 -79 -375 -18 -85 -23 -17 -146 -21 rlinecurve
          -27 -127 1162 0 -27 callsubr
          123 584 326 79 33 145 -328 -79 68 320 18 85 24 17 155 22 rlinecurve
          27 126 -738 0 -27 -127 137 -20 15 -18 -18 -85 rlinecurve
          -90 -423 -168 -41 rlineto
          endchar
        </CharString>
        <CharString name="M">
          1938 988 1444 36 callsubr
        </CharString>
        <CharString name="Macute">
          1938 1385 1876 rmoveto
          -201 -87 callsubr
          -732 -431 36 callsubr
        </CharString>
        <CharString name="Mdotaccent">
          1938 1331 28 callsubr
          66 callsubr
          -343 -111 36 callsubr
        </CharString>
        <CharString name="Mdotbelow">
          1938 988 1444 rmoveto
          -623 hlineto
          -27 -127 136 -17 9 -31 -24 -104 rlinecurve
          -209 -915 -19 -83 -23 -23 -143 -17 rlinecurve
          -27 -127 496 0 27 127 -138 17 -9 23 17 83 rlinecurve
          171 842 141 -1092 220 0 280 533 307 559 -164 -848 -16 -81 -22 -21 -148 -15 rlinecurve
          -27 -127 720 0 27 127 15 callgsubr
          -296 -679 -93 callsubr
          -82 callsubr
        </CharString>
        <CharString name="Mugreek">
          1938 988 1444 36 callsubr
        </CharString>
        <CharString name="N">
          1571 898 1444 147 callsubr
          endchar
        </CharString>
        <CharString name="Nacute">
          1571 1176 -92 callsubr
          -38 callsubr
          -612 -431 147 callsubr
          endchar
        </CharString>
        <CharString name="Ncaron">
          1571 1356 -90 callsubr
          -50 callsubr
          -611 -441 147 callsubr
          endchar
        </CharString>
        <CharString name="Ncircumflexbelow">
          1571 72 callsubr
          -839 -889 -56 callsubr
        </CharString>
        <CharString name="Ncommaaccent">
          1571 72 callsubr
          -662 -901 -61 callsubr
          112 callsubr
        </CharString>
        <CharString name="Ndotaccent">
          1571 1122 -66 callsubr
          -32 callsubr
          -224 -111 147 callsubr
          endchar
        </CharString>
        <CharString name="Ndotbelow">
          1571 72 callsubr
          -611 -544 -93 callsubr
          -16 callsubr
        </CharString>
        <CharString name="Ngrave">
          1571 1088 51 callsubr
          -289 -111 147 callsubr
          endchar
        </CharString>
        <CharString name="Njecyrillic">
          2361 680 250 rmoveto
          92 437 471 0 -93 -437 rlineto
          -18 -86 -23 -16 -146 -21 -26 -127 rcurveline
          772 hlineto
          413 307 184 298 223 -186 144 -345 hvcurveto
          -215 hlineto
          73 345 -60 callgsubr
          135 -20 17 -17 -18 -86 rlinecurve
          -73 -345 -471 0 74 345 18 86 22 17 138 20 24 callsubr
          135 -20 17 -17 -18 -86 rlinecurve
          -200 -944 -18 -86 -23 -16 -145 -21 rlinecurve
          -27 -127 718 0 27 127 -128 20 -16 17 19 86 rlinecurve
          1320 230 rmoveto
          -171 -127 -150 -254 -8 vhcurveto
          -84 -3 117 549 rlineto
          105 hlineto
          147 96 -66 -151 hvcurveto
          endchar
        </CharString>
        <CharString name="Nlinebelow">
          1571 72 callsubr
          -962 -796 140 callsubr
        </CharString>
        <CharString name="Ntilde">
          1571 1239 122 callgsubr
          -13 -25 18 callgsubr
          -341 -129 147 callsubr
          endchar
        </CharString>
        <CharString name="Nugreek">
          1571 898 1444 147 callsubr
          endchar
        </CharString>
        <CharString name="O">
          1673 937 -31 -103 callsubr
        </CharString>
        <CharString name="OE">
          2133 243 653 rmoveto
          -418 285 -268 404 vhcurveto
          145 90 33 160 hhcurveto
          732 hlineto
          104 445 rlineto
          -113 hlineto
          -114 -251 -55 -33 -223 -8 rrcurveto
          -205 -8 110 516 rlineto
          160 hlineto
          68 16 -25 -167 -7 hvcurveto
          111 hlineto
          114 533 rlineto
          -112 hlineto
          -166 -65 -26 -26 -67 hhcurveto
          -160 hlineto
          104 489 179 -7 226 -8 26 -34 11 -212 rlinecurve
          115 hlineto
          77 406 rlineto
          -839 hlineto
          -149 -96 33 -160 hhcurveto
          -517 -329 -366 -458 hvcurveto
          423 -40 rmoveto
          371 176 329 323 49 42 -8 -14 35 vhcurveto
          -245 -1156 rlineto
          -3 -16 -16 -1 -16 hhcurveto
          -203 -129 166 316 hvcurveto
          endchar
        </CharString>
        <CharString name="Oacute">
          1673 1196 1876 rmoveto
          -201 -87 callsubr
          -594 -1906 -103 callsubr
        </CharString>
        <CharString name="Obreve">
          1673 1159 -89 callgsubr
          -17 110 callsubr
          -222 -1602 -103 callsubr
        </CharString>
        <CharString name="Ocaron">
          1673 1376 -90 callsubr
          -50 callsubr
          -592 -1916 -103 callsubr
        </CharString>
        <CharString name="Ocircumflex">
          1673 936 123 callgsubr
          -33 callgsubr
          144 -1586 -103 callsubr
        </CharString>
        <CharString name="Ocircumflexacute">
          1673 1548 116 callsubr
          384 88 346 -88 23 106 -294 75 callsubr
          179 -1631 -103 callsubr
        </CharString>
        <CharString name="Ocircumflexdotbelow">
          1673 936 123 callgsubr
          -33 callgsubr
          144 -1586 rmoveto
          -48 callsubr
          48 callsubr
          hvcurveto
          -60 callsubr
          160 callsubr
          -83 -271 -93 callsubr
          -82 callsubr
        </CharString>
        <CharString name="Ocircumflexgrave">
          1673 814 114 callsubr
          384 88 346 -88 23 106 -294 75 callsubr
          179 -1631 -103 callsubr
        </CharString>
        <CharString name="Ocircumflexhookabove">
          1673 1516 113 callsubr
          82 33 -24 -34 -7 167 callsubr
          384 88 346 -88 23 106 -294 75 callsubr
          179 -1631 -103 callsubr
        </CharString>
        <CharString name="Ocircumflextilde">
          1673 1317 1813 -9 callsubr
          -8 -30 -21 -45 hhcurveto
          -27 -29 7 12 -67 callsubr
          -5 callsubr
          30 21 45 hhcurveto
          27 28 -8 -11 -105 callgsubr
          -581 -319 rmoveto
          384 88 346 -88 23 106 -294 75 callsubr
          179 -1631 -103 callsubr
        </CharString>
        <CharString name="Ocyrillic">
          1673 937 -31 -103 callsubr
        </CharString>
        <CharString name="Odblgrave">
          1673 995 57 callsubr
          -57 callgsubr
          116 hlineto
          -360 -1586 -103 callsubr
        </CharString>
        <CharString name="Odieresis">
          1673 954 78 callsubr
          1 hvcurveto
          76 -59 62 -79 -83 -68 -67 -85 -76 58 -61 80 vhcurveto
          377 hmoveto
          82 67 73 callsubr
          -67 -85 -76 58 -61 81 vhcurveto
          -394 -1603 -103 callsubr
        </CharString>
        <CharString name="Odieresismacron">
          1673 813 -50 callgsubr
          80 -462 rmoveto
          -75 callgsubr
          -47 45 -71 68 callsubr
          -21 callsubr
          94 callgsubr
          -353 -1579 -103 callsubr
        </CharString>
        <CharString name="Odotaccent">
          1673 1142 28 callsubr
          66 callsubr
          -205 -1586 -103 callsubr
        </CharString>
        <CharString name="Odotaccentmacron">
          1673 807 1839 69 callsubr
          302 -443 rmoveto
          75 58 49 68 -1 hvcurveto
          69 -1 -63 48 -75 hhcurveto
          -75 -58 -48 -69 1 hvcurveto
          -68 1 61 -49 77 hhcurveto
          -202 -1570 -103 callsubr
        </CharString>
        <CharString name="Odotbelow">
          1673 937 -31 rmoveto
          -48 callsubr
          48 callsubr
          hvcurveto
          -60 callsubr
          160 callsubr
          -83 -271 -93 callsubr
          -82 callsubr
        </CharString>
        <CharString name="Ograve">
          1673 1109 77 callsubr
          294 -309 rlineto
          122 hlineto
          -270 -1586 -103 callsubr
        </CharString>
        <CharString name="Ohookabove">
          1673 1190 1905 rmoveto
          -107 -43 callgsubr
          106 callsubr
          -253 -1936 -103 callsubr
        </CharString>
        <CharString name="Ohorn">
          1713 237 645 rmoveto
          -60 callsubr
          -48 callsubr
          37 callsubr
        </CharString>
        <CharString name="Ohornacute">
          1713 1196 1876 rmoveto
          -201 -87 callsubr
          -1294 -1230 rmoveto
          -60 callsubr
          -48 callsubr
          37 callsubr
        </CharString>
        <CharString name="Ohorndotbelow">
          1713 237 645 rmoveto
          -60 callsubr
          -48 callsubr
          222 -86 206 -174 123 hvcurveto
          -8 43 48 -4 50 hhcurveto
          196 143 87 148 104 -62 98 -92 54 hvcurveto
          -123 hlineto
          12 -20 5 -35 -36 vvcurveto
          -163 -108 -131 -163 vhcurveto
          -134 -93 31 -162 hhcurveto
          -7 callgsubr
          432 -107 rmoveto
          384 158 387 240 30 callsubr
          105 callgsubr
          174 -674 -93 callsubr
          -82 callsubr
        </CharString>
        <CharString name="Ohorngrave">
          1713 1109 77 callsubr
          294 -309 rlineto
          122 hlineto
          -970 -910 rmoveto
          -60 callsubr
          -48 callsubr
          37 callsubr
        </CharString>
        <CharString name="Ohornhookabove">
          1713 1190 1905 rmoveto
          -107 -43 callgsubr
          106 callsubr
          -953 -1260 rmoveto
          -60 callsubr
          -48 callsubr
          37 callsubr
        </CharString>
        <CharString name="Ohorntilde">
          1713 1260 142 callsubr
          10 callsubr
          -50 102 callgsubr
          -16 callgsubr
          -1023 -928 rmoveto
          -60 callsubr
          -48 callsubr
          37 callsubr
        </CharString>
        <CharString name="Ohungarumlaut">
          1673 983 1876 rmoveto
          -68 -321 126 0 193 63 callgsubr
          -688 -1907 -103 callsubr
        </CharString>
        <CharString name="Oinvertedbreve">
          1673 1148 1923 120 callgsubr
          78 51 108 -99 callgsubr
          124 hlineto
          10 126 callsubr
          -211 -1954 -103 callsubr
        </CharString>
        <CharString name="Omacron">
          1673 809 13 callsubr
          88 -1824 -103 callsubr
        </CharString>
        <CharString name="Omacronacute">
          1673 1552 1892 rmoveto
          38 178 -768 -39 callgsubr
          154 -1759 -103 callsubr
        </CharString>
        <CharString name="Omacrongrave">
          1673 819 1892 rmoveto
          715 -84 22 -46 callgsubr
          154 -1759 -103 callsubr
        </CharString>
        <CharString name="Omegagreek">
          1690 124 hmoveto
          642 hlineto
          74 356 rlineto
          -119 69 -65 110 187 vvcurveto
          372 172 211 221 189 114 -125 -222 -326 -131 60 callgsubr
          -101 -44 -297 -6 12 55 rcurveline
          373 252 callsubr
          -452 -495 106 callgsubr
          -12 -63 -306 8 -61 47 -36 137 rlinecurve
          -101 hlineto
          endchar
        </CharString>
        <CharString name="Omegatonosgreek">
          1992 427 hmoveto
          642 hlineto
          74 356 rlineto
          -120 69 -65 110 187 vvcurveto
          372 172 211 222 189 114 -125 -222 -326 -132 60 callgsubr
          -100 -44 -297 -6 11 55 rcurveline
          374 252 callsubr
          -453 -494 106 callgsubr
          -13 -63 -305 8 -62 47 -36 137 rlinecurve
          -101 hlineto
          -92 1053 54 callsubr
          endchar
        </CharString>
        <CharString name="Omicrongreek">
          1673 937 -31 -103 callsubr
        </CharString>
        <CharString name="Omicrontonosgreek">
          1936 1200 -31 rmoveto
          498 308 379 451 361 -231 315 -469 -497 -299 -379 -451 -10 hvcurveto
          -60 callsubr
          -828 1475 54 callsubr
          439 -1309 rmoveto
          -150 -94 121 282 383 159 388 239 30 callsubr
          -383 -160 -388 -238 hvcurveto
          endchar
        </CharString>
        <CharString name="Oogonek">
          1673 853 -491 rmoveto
          96 -3 callgsubr
          195 callsubr
        </CharString>
        <CharString name="Oogonekmacron">
          1673 809 13 callsubr
          4 -2284 rmoveto
          96 -3 callgsubr
          195 callsubr
        </CharString>
        <CharString name="Oslash">
          1673 937 -31 rmoveto
          497 308 183 callsubr
        </CharString>
        <CharString name="Oslashacute">
          1673 1196 1876 rmoveto
          -201 -87 callsubr
          -594 -1906 rmoveto
          497 308 183 callsubr
        </CharString>
        <CharString name="Otilde">
          1673 1260 142 callsubr
          10 callsubr
          -50 102 callgsubr
          -16 callgsubr
          -323 -1604 -103 callsubr
        </CharString>
        <CharString name="Otildeacute">
          1673 1552 242 callsubr
          460 -258 -9 callsubr
          -15 callsubr
          -67 callsubr
          -5 callsubr
          -44 callgsubr
          48 49 -13 58 hhcurveto
          -324 -1581 -103 callsubr
        </CharString>
        <CharString name="Otildedieresis">
          1673 984 1830 rmoveto
          81 callsubr
          -72 -20 callsubr
          404 hmoveto
          71 113 callgsubr
          -89 -280 -9 callsubr
          -15 callsubr
          -67 callsubr
          -5 callsubr
          -44 callgsubr
          48 49 -13 58 hhcurveto
          -324 -1581 -103 callsubr
        </CharString>
        <CharString name="Otildemacron">
          1673 813 -50 callgsubr
          417 -460 -9 callsubr
          -15 callsubr
          -67 callsubr
          -5 callsubr
          -44 callgsubr
          48 49 -13 58 hhcurveto
          -324 -1581 -103 callsubr
        </CharString>
        <CharString name="P">
          1494 806 hmoveto
          35 callsubr
        </CharString>
        <CharString name="Pacute">
          1494 1152 -92 callsubr
          -320 132 0 405 308 rlineto
          12 vlineto
          -681 -1876 rmoveto
          35 callsubr
        </CharString>
        <CharString name="Pdotaccent">
          1494 1098 1556 rmoveto
          92 76 75 92 84 -66 68 -89 -93 -76 -74 -94 -84 66 -67 90 hvcurveto
          -292 -1556 rmoveto
          35 callsubr
        </CharString>
        <CharString name="Pecyrillic">
          1719 1544 250 rmoveto
          200 944 19 89 24 16 144 18 rlinecurve
          27 127 -1602 0 -27 -127 136 -21 17 -16 -18 -86 rlinecurve
          -201 -944 -18 -86 -23 -16 -146 -21 -90 callgsubr
          -127 19 -16 18 18 86 rlinecurve
          220 1034 467 0 -220 -1034 -19 -89 -21 -16 -138 -18 -90 callgsubr
          -136 17 -17 17 19 89 rlinecurve
          endchar
        </CharString>
        <CharString name="Phigreek">
          1891 234 718 rmoveto
          -37 -323 221 -154 424 -14 -18 -85 -21 -17 -133 -21 rrcurveto
          -24 -111 597 0 25 111 rlineto
          -124 20 -15 18 18 85 513 13 266 158 36 323 37 328 -259 151 -385 14 17 82 20 16 134 21 rrcurveto
          22 112 -597 0 -23 -112 rlineto
          122 -17 17 -20 -17 -82 -475 -12 -304 -154 -37 -330 rrcurveto
          417 8 rmoveto
          223 26 138 127 206 hhcurveto
          -149 -706 -159 25 -85 120 23 211 rlinecurve
          895 -2 rmoveto
          -233 -27 -141 -126 -202 hhcurveto
          149 706 161 -25 82 -119 -22 -203 rlinecurve
          endchar
        </CharString>
        <CharString name="Pigreek">
          1726 1560 250 rmoveto
          199 942 18 86 22 21 153 18 rlinecurve
          27 127 -1619 0 -27 -127 141 -21 17 -16 -18 -86 rlinecurve
          -200 -944 -18 -86 -26 -17 -148 -20 rlinecurve
          -27 -127 729 0 27 127 -131 19 -17 18 18 86 rlinecurve
          220 1039 472 0 -219 -1039 -18 -86 -21 -18 -142 -19 rlinecurve
          -27 -127 728 0 26 127 -143 17 -15 20 19 86 rlinecurve
          endchar
        </CharString>
        <CharString name="Psigreek">
          1920 599 hmoveto
          697 hlineto
          27 126 rlineto
          -154 20 -17 19 18 85 41 196 rcurveline
          367 22 190 144 136 363 65 177 rcurveline
          44 117 33 30 101 8 27 127 rcurveline
          5 -37 -70 6 -65 hhcurveto
          -196 -93 -63 -213 -78 hvcurveto
          -68 -185 -88 -236 -75 -110 -159 -31 rlinecurve
          124 587 19 85 18 18 124 20 rlinecurve
          27 127 -610 0 -27 -127 rlineto
          115 -20 13 -18 -19 -85 -124 -587 rcurveline
          -144 31 -27 111 12 235 10 179 rcurveline
          212 10 -67 70 -199 hhcurveto
          -61 -76 -6 -5 -37 hvcurveto
          -27 -127 98 -8 24 -30 -6 -117 rlinecurve
          -10 -177 -19 -363 129 -144 357 -22 rlinecurve
          -42 -196 -18 -85 -25 -19 -161 -20 rlinecurve
          endchar
        </CharString>
        <CharString name="Q">
          1674 1351 -420 rmoveto
          109 93 20 32 67 hvcurveto
          24 117 rlineto
          -126 2 -75 24 -145 151 -85 87 rcurveline
          333 112 196 314 360 vvcurveto
          48 callsubr
          vhcurveto
          -6 -312 177 -278 351 -69 151 -169 rcurveline
          -183 163 128 -54 150 hhcurveto
          -439 555 rmoveto
          -150 -93 121 282 383 158 388 240 30 callsubr
          -383 -161 -388 -238 hvcurveto
          endchar
        </CharString>
        <CharString name="R">
          1528 1109 hmoveto
          34 callsubr
          endchar
        </CharString>
        <CharString name="Racute">
          1528 1098 -92 callsubr
          -38 callsubr
          -323 -1875 rmoveto
          34 callsubr
          endchar
        </CharString>
        <CharString name="Rcaron">
          1528 1278 -90 callsubr
          -31 callgsubr
          -322 -1885 rmoveto
          34 callsubr
          endchar
        </CharString>
        <CharString name="Rcommaaccent">
          1528 1109 hmoveto
          34 callsubr
          -432 -1539 -61 callsubr
          -80 callgsubr
        </CharString>
        <CharString name="Rdblgrave">
          1528 896 57 callsubr
          77 callgsubr
          -90 -1555 rmoveto
          34 callsubr
          endchar
        </CharString>
        <CharString name="Rdotaccent">
          1528 1044 -41 callgsubr
          65 -1555 rmoveto
          34 callsubr
          endchar
        </CharString>
        <CharString name="Rdotbelow">
          1528 1109 hmoveto
          34 callsubr
          -381 -1182 12 callsubr
        </CharString>
        <CharString name="Rdotbelowmacron">
          1528 711 1606 rmoveto
          630 hlineto
          41 187 rlineto
          -631 hlineto
          358 -1793 rmoveto
          34 callsubr
          -381 -1182 12 callsubr
        </CharString>
        <CharString name="Rhogreek">
          1494 806 hmoveto
          35 callsubr
        </CharString>
        <CharString name="Rinvertedbreve">
          1528 1049 127 callsubr
          125 hlineto
          90 16 78 17 callgsubr
          60 -1923 rmoveto
          34 callsubr
          endchar
        </CharString>
        <CharString name="Rlinebelow">
          1528 1109 hmoveto
          34 callsubr
          -733 -1434 -77 callsubr
        </CharString>
        <CharString name="S">
          1238 638 -33 87 callsubr
          endchar
        </CharString>
        <CharString name="Sacute">
          1238 1019 -92 callsubr
          -38 callsubr
          -715 -1908 87 callsubr
          endchar
        </CharString>
        <CharString name="Sacutedotaccent">
          1238 1013 1787 rmoveto
          75 59 49 68 -28 callgsubr
          2 239 callsubr
          -768 -161 -21 -101 rlineto
          73 -1567 87 callsubr
          endchar
        </CharString>
        <CharString name="Scaron">
          1238 1199 -90 callsubr
          -50 callsubr
          -714 -1918 87 callsubr
          endchar
        </CharString>
        <CharString name="Scarondotaccent">
          1238 1018 1810 rmoveto
          75 59 48 69 -28 callgsubr
          1 hvcurveto
          -69 2 62 -48 75 hhcurveto
          346 -8 rmoveto
          -393 -87 -355 251 callsubr
          -705 -1730 87 callsubr
          endchar
        </CharString>
        <CharString name="Scedilla">
          1238 502 -6 callgsubr
          103 -83 73 -132 13 hvcurveto
          59 56 rlineto
          339 13 238 197 281 vvcurveto
          170 -86 122 -200 116 vhcurveto
          -77 44 rlineto
          -130 76 -54 57 90 vvcurveto
          103 92 70 126 170 101 -102 -203 10 vhcurveto
          115 hlineto
          61 344 rlineto
          64 -77 -172 68 -221 hhcurveto
          -414 -186 -233 -233 -179 86 -117 210 -122 hvcurveto
          76 -44 rlineto
          134 -79 41 -59 -92 vvcurveto
          -111 -95 -70 -136 -177 -132 112 192 -6 vhcurveto
          -116 hlineto
          -55 -359 74 -49 143 -47 167 -15 rlinecurve
          -95 -95 166 callsubr
        </CharString>
        <CharString name="Schwa">
          1596 837 -33 rmoveto
          500 315 339 479 427 -289 264 -427 -169 -178 -41 -65 -122 hvcurveto
          -80 -366 rlineto
          120 hlineto
          213 99 131 88 159 hhcurveto
          220 94 -180 -301 -32 -1 -32 -1 -30 hvcurveto
          -953 hlineto
          -26 -79 -14 -82 -76 vvcurveto
          -288 192 -238 430 vhcurveto
          -245 473 rmoveto
          46 4 46 11 47 vhcurveto
          586 hlineto
          -281 -44 -124 -167 -186 hhcurveto
          -162 -85 128 181 hvcurveto
          endchar
        </CharString>
        <CharString name="Scircumflex">
          1238 759 15 callsubr
          -53 callgsubr
          22 -1588 87 callsubr
          endchar
        </CharString>
        <CharString name="Scommaaccent">
          1238 638 -33 87 callsubr
          -135 -460 132 callsubr
          20 37 5 27 hhcurveto
          51 43 -22 -38 -40 118 callgsubr
          89 hhcurveto
          endchar
        </CharString>
        <CharString name="Sdotaccent">
          1238 965 -66 callsubr
          -32 callsubr
          -327 -1588 87 callsubr
          endchar
        </CharString>
        <CharString name="Sdotbelow">
          1238 638 -33 87 callsubr
          -85 -103 -93 callsubr
          -82 callsubr
        </CharString>
        <CharString name="Sdotbelowdotaccent">
          1238 965 -66 callsubr
          -32 callsubr
          -327 -1588 87 callsubr
          -85 -103 -93 callsubr
          -82 callsubr
        </CharString>
        <CharString name="Shacyrillic">
          2521 463 1194 rmoveto
          -200 -944 -19 -89 -24 -16 -144 -18 rlinecurve
          -27 -127 2423 0 27 127 -135 20 -17 17 18 86 rlinecurve
          200 944 18 -37 callgsubr
          217 callsubr
        </CharString>
        <CharString name="Shchacyrillic">
          2543 174 callsubr
          2031 hlineto
          217 23 -46 -266 21 hvcurveto
          125 hlineto
          90 472 -211 0 220 1034 18 -37 callgsubr
          217 callsubr
        </CharString>
        <CharString name="Sigmagreek">
          124 callgsubr
          -121 344 -627 -564 -573 -26 -123 1196 0 128 542 rlineto
          -135 hlineto
          -244 -108 -66 -37 -236 hhcurveto
          -365 hlineto
          538 537 8 36 -252 466 287 -8 235 -6 34 -34 11 -216 rlinecurve
          116 hlineto
          endchar
        </CharString>
        <CharString name="Softsigncyrillic">
          1474 1542 -68 callgsubr
          -60 callgsubr
          rlineto
          135 -20 17 -17 -18 -86 -200 -944 rcurveline
          -18 -86 -23 -16 -146 -21 -27 -127 rcurveline
          -32 callgsubr
          -429 -2 -35 callgsubr
          129 -38 callgsubr
        </CharString>
        <CharString name="T">
          -28 callsubr
          endchar
        </CharString>
        <CharString name="Taugreek">
          -28 callsubr
          endchar
        </CharString>
        <CharString name="Tbar">
          1418 367 672 rmoveto
          282 hlineto
          -90 -423 -18 -85 -25 -18 -159 -20 rlinecurve
          -27 -127 758 0 27 127 -151 20 -16 18 18 85 rlinecurve
          90 423 282 0 29 136 -282 0 104 490 39 -1 217 -7 44 -31 -3 -223 rlinecurve
          116 hlineto
          77 408 -1326 0 49 callsubr
          1 -104 -490 rlineto
          -281 hlineto
          endchar
        </CharString>
        <CharString name="Tcaron">
          1418 1307 -90 callsubr
          -23 callsubr
          218 -441 rmoveto
          -1326 hlineto
          49 callsubr
          124 callsubr
          758 63 callsubr
          118 callsubr
          endchar
        </CharString>
        <CharString name="Tcedilla">
          1418 607 -493 -82 callgsubr
          84 callsubr
          274 63 callsubr
          118 callsubr
          77 408 -1326 0 49 callsubr
          124 callsubr
          327 -94 callgsubr
          -41 -25 -73 -56 -46 15 17 -32 hvcurveto
          -13 callgsubr
        </CharString>
        <CharString name="Tcircumflexbelow">
          -28 callsubr
          -1171 -1517 -56 callsubr
        </CharString>
        <CharString name="Tcommaaccent">
          -28 callsubr
          -994 -1529 -61 callsubr
          -115 -82 -68 -25 -37 -45 hvcurveto
          -23 -100 rlineto
          6 133 callsubr
          -43 -44 12 15 -37 hvcurveto
          -23 -107 rlineto
          -22 44 72 -19 88 hhcurveto
          endchar
        </CharString>
        <CharString name="Tdotaccent">
          1418 1074 -66 callsubr
          83 callsubr
          605 -111 rmoveto
          -1326 hlineto
          49 callsubr
          124 callsubr
          758 63 callsubr
          118 callsubr
          endchar
        </CharString>
        <CharString name="Tdotbelow">
          -28 callsubr
          -943 -1172 rmoveto
          -93 -76 -75 -91 -85 66 -68 90 93 -16 callsubr
        </CharString>
        <CharString name="Tecyrillic">
          -28 callsubr
          endchar
        </CharString>
        <CharString name="Thetagreek">
          1763 951 -33 rmoveto
          485 358 351 439 32 hvcurveto
          32 420 -276 301 -466 -1 -485 -1 -358 -350 -32 -439 rrcurveto
          -420 -32 276 -300 466 hhcurveto
          20 149 rmoveto
          -222 -104 221 349 26 hvcurveto
          365 28 142 277 255 hhcurveto
          223 104 -220 -350 -27 hvcurveto
          -368 -27 -144 -274 -254 hhcurveto
          -254 337 rmoveto
          97 hlineto
          144 55 29 21 62 hhcurveto
          95 hlineto
          62 21 -21 -144 -7 hvcurveto
          97 hlineto
          108 512 rlineto
          -97 hlineto
          -146 -57 -28 -19 -60 hhcurveto
          -96 hlineto
          -61 -19 19 146 4 hvcurveto
          -97 hlineto
          endchar
        </CharString>
        <CharString name="Thorn">
          1488 244 248 rmoveto
          -19 -85 -23 -17 -145 -21 rrcurveto
          -27 -126 728 0 27 126 rlineto
          -134 21 -18 17 18 85 14 69 rcurveline
          178 hlineto
          344 363 130 326 229 -179 141 -351 hvcurveto
          -180 hlineto
          11 50 18 86 25 16 144 21 rlinecurve
          26 127 -727 0 -27 -127 135 -21 17 -16 -18 -86 rlinecurve
          678 -423 rmoveto
          -142 -95 -156 -247 -7 vhcurveto
          -84 -3 114 536 83 -3 rlineto
          145 -4 84 -96 -125 vvcurveto
          endchar
        </CharString>
        <CharString name="Tlinebelow">
          -28 callsubr
          -1295 -1424 -77 callsubr
        </CharString>
        <CharString name="Tsecyrillic">
          1721 174 callsubr
          1217 hlineto
          217 23 -46 -266 20 hvcurveto
          126 hlineto
          89 472 -218 0 220 1034 19 -37 callgsubr
          -27 247 callsubr
          -467 169 callsubr
        </CharString>
        <CharString name="Tshecyrillic">
          1953 1684 1444 rmoveto
          -1332 hlineto
          214 callsubr
          15 61 62 9 73 hhcurveto
          168 70 -91 -210 -45 hvcurveto
          -75 -353 568 0 27 127 rlineto
          -138 14 -11 21 16 83 20 99 rcurveline
          344 68 -166 152 -383 hhcurveto
          -118 -85 -19 -23 -77 hvcurveto
          101 callgsubr
          endchar
        </CharString>
        <CharString name="U">
          1565 822 -33 -95 callsubr
        </CharString>
        <CharString name="Uacute">
          1565 1252 -92 callsubr
          -87 callsubr
          -764 -1908 -95 callsubr
        </CharString>
        <CharString name="Ubreve">
          1565 1214 1571 rmoveto
          197 132 124 228 6 hvcurveto
          -124 hlineto
          -90 -16 -78 -51 -108 hhcurveto
          -96 -66 57 70 hvcurveto
          5 0 5 4 vvcurveto
          -123 hlineto
          -10 -25 -6 -34 -34 vvcurveto
          -150 1 124 -109 167 hhcurveto
          -392 -1604 -95 callsubr
        </CharString>
        <CharString name="Ubrevecyrillic">
          1530 1176 179 callsubr
          13 callgsubr
          -953 -1405 187 callsubr
        </CharString>
        <CharString name="Ucaron">
          1565 1432 -90 callsubr
          -31 callgsubr
          -763 -1918 -95 callsubr
        </CharString>
        <CharString name="Ucircumflex">
          1565 991 1555 rmoveto
          211 138 152 -138 -53 callgsubr
          -27 -1588 -95 callsubr
        </CharString>
        <CharString name="Ucircumflexbelow">
          92 callsubr
          -278 -448 -56 callsubr
        </CharString>
        <CharString name="Ucyrillic">
          1530 223 157 187 callsubr
        </CharString>
        <CharString name="Udblgrave">
          1565 1050 57 callsubr
          77 callgsubr
          -531 -1588 -95 callsubr
        </CharString>
        <CharString name="Udieresis">
          1565 1010 78 callsubr
          76 -58 62 -79 -83 -68 -67 -85 -1 hvcurveto
          -76 59 -61 80 vhcurveto
          376 hmoveto
          82 68 68 83 -65 callgsubr
          -564 -1605 -95 callsubr
        </CharString>
        <CharString name="Udieresisacute">
          1565 1607 1892 rmoveto
          38 178 -767 -161 -22 -101 rlineto
          124 -260 rmoveto
          81 callsubr
          -72 -20 callsubr
          403 hmoveto
          72 19 callsubr
          82 callsubr
          -524 -1581 -95 callsubr
        </CharString>
        <CharString name="Udieresisbelow">
          92 callsubr
          -291 -422 rmoveto
          175 callsubr
          86 callgsubr
          hvcurveto
          -84 1 69 -67 92 hhcurveto
          endchar
        </CharString>
        <CharString name="Udieresiscaron">
          1565 1643 2064 rmoveto
          -383 -85 -347 85 -23 -103 295 -147 80 0 356 147 rlineto
          -641 -413 rmoveto
          81 callsubr
          -72 -20 callsubr
          403 hmoveto
          72 19 callsubr
          82 callsubr
          -524 -1581 -95 callsubr
        </CharString>
        <CharString name="Udieresisgrave">
          1565 874 1892 rmoveto
          716 -84 22 101 -701 161 rlineto
          69 -522 rmoveto
          81 callsubr
          -72 -20 callsubr
          403 hmoveto
          72 19 callsubr
          82 callsubr
          -524 -1581 -95 callsubr
        </CharString>
        <CharString name="Udieresismacron">
          1565 869 1867 69 callsubr
          81 -462 rmoveto
          81 callsubr
          -72 -20 callsubr
          403 hmoveto
          72 19 callsubr
          82 callsubr
          -524 -1581 -95 callsubr
        </CharString>
        <CharString name="Udotbelow">
          92 callsubr
          -50 -103 -93 callsubr
          -16 callsubr
        </CharString>
        <CharString name="Ugrave">
          1565 1164 51 callsubr
          -441 -1588 -95 callsubr
        </CharString>
        <CharString name="Uhookabove">
          1565 1245 98 callgsubr
          48 hhcurveto
          72 38 -25 -44 -50 -50 -48 -98 -58 hvcurveto
          130 hlineto
          161 63 79 54 87 vvcurveto
          92 -91 65 -114 vhcurveto
          -423 -1938 -95 callsubr
        </CharString>
        <CharString name="Uhorn">
          1709 317 635 rmoveto
          -19 callsubr
          -35 callsubr
          39 callsubr
        </CharString>
        <CharString name="Uhornacute">
          1709 1241 -92 callsubr
          -87 callsubr
          -1258 -1240 rmoveto
          -19 callsubr
          -35 callsubr
          39 callsubr
        </CharString>
        <CharString name="Uhorndotbelow">
          1709 317 635 rmoveto
          -19 callsubr
          -35 callsubr
          171 778 rlineto
          -2 16 16 -2 17 hhcurveto
          181 119 88 149 108 -64 98 -77 51 hvcurveto
          -122 hlineto
          12 -20 5 -35 -36 vvcurveto
          -159 -103 -135 -212 vhcurveto
          -106 hlineto
          -27 -127 rlineto
          141 40 callsubr
          123 -22 15 -19 -19 -88 rlinecurve
          317 -1324 -93 callsubr
          -16 callsubr
        </CharString>
        <CharString name="Uhorngrave">
          1709 1153 77 callsubr
          -78 callgsubr
          -935 -920 rmoveto
          -19 callsubr
          -35 callsubr
          39 callsubr
        </CharString>
        <CharString name="Uhornhookabove">
          1709 1234 137 callsubr
          -917 -1270 rmoveto
          -19 callsubr
          -35 callsubr
          39 callsubr
        </CharString>
        <CharString name="Uhorntilde">
          1709 1304 1573 rmoveto
          101 85 -96 callgsubr
          10 callsubr
          152 callsubr
          -987 -938 rmoveto
          -19 callsubr
          -35 callsubr
          39 callsubr
        </CharString>
        <CharString name="Uhungarumlaut">
          1565 1039 1876 rmoveto
          -69 -321 127 0 192 312 rlineto
          9 vlineto
          110 hmoveto
          -172 -321 140 0 314 312 rlineto
          9 vlineto
          -859 -1909 -95 callsubr
        </CharString>
        <CharString name="Uinvertedbreve">
          1565 1203 127 callsubr
          125 hlineto
          90 15 79 17 callgsubr
          -381 -1956 -95 callsubr
        </CharString>
        <CharString name="Umacron">
          1565 865 244 callsubr
          -83 -1826 -95 callsubr
        </CharString>
        <CharString name="Umacrondieresis">
          1565 1039 1830 rmoveto
          72 113 callgsubr
          403 hmoveto
          -75 callgsubr
          94 callgsubr
          -570 -245 rmoveto
          680 hlineto
          31 143 rlineto
          -681 hlineto
          -43 -1761 -95 callsubr
        </CharString>
        <CharString name="Uogonek">
          1565 796 65 callgsubr
          60 89 55 17 51 31 38 hvcurveto
          294 34 207 201 78 354 rrcurveto
          137 627 20 88 22 19 133 22 135 callsubr
          40 callsubr
          123 -22 15 -19 -19 -88 rlinecurve
          -117 -553 -88 -415 209 -216 300 -32 rlinecurve
          -135 -74 -77 -92 -98 vvcurveto
          -117 111 -82 159 vhcurveto
          endchar
        </CharString>
        <CharString name="Upsilondieresisgreek">
          1444 930 58 callsubr
          -79 -83 -69 125 callsubr
          -850 -437 -64 callsubr
          -76 callsubr
        </CharString>
        <CharString name="Upsilongreek">
          1444 456 -81 callgsubr
          -76 callsubr
        </CharString>
        <CharString name="Upsilontonosgreek">
          1929 940 -81 callgsubr
          -159 -20 rlinecurve
          -27 -126 757 63 callsubr
          5 callgsubr
          -119 382 -41 -17 callgsubr
          -737 0 -27 -127 106 -16 25 -27 47 -139 rlinecurve
          -568 309 54 callsubr
          endchar
        </CharString>
        <CharString name="Uring">
          1565 928 1755 27 callgsubr
          201 -5 rmoveto
          68 44 42 52 44 29 -33 -52 -68 -46 -43 -51 -44 -28 33 53 vhcurveto
          -307 -1783 -95 callsubr
        </CharString>
        <CharString name="Utilde">
          1565 1315 122 callgsubr
          -14 -24 18 callgsubr
          -493 -1606 -95 callsubr
        </CharString>
        <CharString name="Utildeacute">
          1565 1607 1892 rmoveto
          38 178 -767 -161 -22 -101 rlineto
          460 -258 rmoveto
          135 102 81 137 28 hvcurveto
          -148 hlineto
          -43 -15 callsubr
          -35 hvcurveto
          -38 12 rlineto
          16 -48 -49 13 -58 hhcurveto
          -134 -103 -81 -137 -28 -91 callgsubr
          27 29 -7 -12 34 hvcurveto
          38 -12 rlineto
          -16 48 50 -13 57 hhcurveto
          -494 -1583 -95 callsubr
        </CharString>
        <CharString name="Utildebelow">
          92 callsubr
          68 -428 rmoveto
          111 92 71 267 33 hvcurveto
          25 callsubr
          -25 -21 11 19 -23 hvcurveto
          -29 23 rlineto
          40 -53 -54 25 23 callsubr
          40 callgsubr
        </CharString>
        <CharString name="V">
          1515 436 1116 rmoveto
          202 callsubr
          endchar
        </CharString>
        <CharString name="Vdotbelow">
          1515 436 1116 rmoveto
          202 callsubr
          276 -1252 12 callsubr
        </CharString>
        <CharString name="Vecyrillic">
          1532 1548 450 93 callsubr
        </CharString>
        <CharString name="Vtilde">
          1515 1298 142 callsubr
          10 callsubr
          -50 102 callgsubr
          -16 callgsubr
          -862 -457 rmoveto
          202 callsubr
          endchar
        </CharString>
        <CharString name="W">
          2280 428 1116 -3 callsubr
        </CharString>
        <CharString name="Wacute">
          2280 1674 -92 callsubr
          -87 callsubr
          -1580 -759 -3 callsubr
        </CharString>
        <CharString name="Wcircumflex">
          2280 1413 -12 callsubr
          -842 -439 -3 callsubr
        </CharString>
        <CharString name="Wdieresis">
          2280 1432 58 callsubr
          -79 -83 -69 125 callsubr
          -1380 -456 -3 callsubr
        </CharString>
        <CharString name="Wdotaccent">
          2280 1620 -41 callgsubr
          -1192 -439 -3 callsubr
        </CharString>
        <CharString name="Wdotbelow">
          2280 428 1116 rmoveto
          98 -1116 338 0 480 937 65 -937 348 0 568 1114 83 164 34 23 120 16 rlinecurve
          27 127 -489 0 -27 -127 135 -13 6 -33 -70 -147 rlinecurve
          -366 -776 -44 765 -9 -18 callgsubr
          225 callsubr
          658 -1252 -93 callsubr
          -82 callsubr
        </CharString>
        <CharString name="Wgrave">
          2280 1586 51 callsubr
          -1257 -439 -3 callsubr
        </CharString>
        <CharString name="X">
          1489 357 335 33 callsubr
        </CharString>
        <CharString name="Xdieresis">
          1489 1010 78 callsubr
          76 -58 62 -79 -83 -68 -67 -85 -1 hvcurveto
          -76 59 -61 80 vhcurveto
          376 hmoveto
          82 68 68 83 -65 callgsubr
          -1029 -1237 33 callsubr
        </CharString>
        <CharString name="Xdotaccent">
          1489 1198 -66 callsubr
          -32 callsubr
          -841 -1220 33 callsubr
        </CharString>
        <CharString name="Xigreek">
          1443 1668 1444 rmoveto
          -1274 hlineto
          107 callgsubr
          419 hlineto
          226 46 -20 -214 5 hvcurveto
          121 hlineto
          -807 -296 rmoveto
          176 46 callgsubr
          -176 47 callgsubr
          599 -643 rmoveto
          100 callgsubr
          -400 hlineto
          -239 -46 24 247 -5 hvcurveto
          -121 hlineto
          -93 -542 rlineto
          endchar
        </CharString>
        <CharString name="Xigreek.1">
          1460 79 hmoveto
          1295 hlineto
          100 callgsubr
          -140 hlineto
          79 372 rlineto
          29 46 callgsubr
          -28 hlineto
          78 372 rlineto
          151 hlineto
          226 46 -20 -214 5 hvcurveto
          121 hlineto
          86 505 -1274 0 107 callgsubr
          153 hlineto
          -79 -372 rlineto
          -32 47 callgsubr
          31 hlineto
          -78 -372 rlineto
          -145 hlineto
          -239 -46 24 247 -5 hvcurveto
          -121 hlineto
          endchar
        </CharString>
        <CharString name="Y">
          1444 456 -81 callgsubr
          -76 callsubr
        </CharString>
        <CharString name="Yacute">
          1444 1172 -92 callsubr
          -87 callsubr
          -1050 -740 -64 callsubr
          -76 callsubr
        </CharString>
        <CharString name="Ycircumflex">
          1444 911 -12 callsubr
          -312 -420 -64 callsubr
          -76 callsubr
        </CharString>
        <CharString name="Ydieresis">
          1444 930 58 callsubr
          -79 -83 -69 125 callsubr
          -850 -437 -64 callsubr
          -76 callsubr
        </CharString>
        <CharString name="Ydotaccent">
          1444 1118 -41 callgsubr
          -662 -420 -64 callsubr
          -76 callsubr
        </CharString>
        <CharString name="Ydotbelow">
          1444 456 -81 callgsubr
          -160 -20 rlinecurve
          -27 -126 757 0 27 126 -150 20 -16 19 18 85 rlinecurve
          5 callgsubr
          -120 382 -40 -17 callgsubr
          245 callsubr
          223 -1271 -93 callsubr
          -82 callsubr
        </CharString>
        <CharString name="Yericyrillic">
          2234 1542 -68 callgsubr
          -60 callgsubr
          rlineto
          135 -20 17 -17 -18 -86 -200 -944 rcurveline
          -18 -86 -23 -16 -146 -21 -27 -127 rcurveline
          -32 callgsubr
          536 -273 rmoveto
          200 944 18 85 23 18 146 20 rlinecurve
          27 127 -728 0 -27 -127 79 callsubr
          -17 callsubr
          55 callsubr
          -965 271 -35 callgsubr
          129 -38 callgsubr
        </CharString>
        <CharString name="Ygrave">
          1444 1084 51 callsubr
          -727 -420 -64 callsubr
          -76 callsubr
        </CharString>
        <CharString name="Yhookabove">
          1444 1165 137 callsubr
          -709 -770 -64 callsubr
          -76 callsubr
        </CharString>
        <CharString name="Yicyrillic">
          829 582 1572 rmoveto
          81 68 73 callsubr
          125 callsubr
          -287 -1322 -94 callsubr
        </CharString>
        <CharString name="Ymacron">
          1444 784 -49 callgsubr
          -369 -658 -64 callsubr
          -76 callsubr
        </CharString>
        <CharString name="Ytilde">
          1444 1235 1573 rmoveto
          101 85 -96 callgsubr
          -24 -23 -32 hhcurveto
          -21 -19 10 16 -19 hvcurveto
          -24 20 rlineto
          36 -48 119 callgsubr
          25 23 32 hhcurveto
          21 19 -10 -16 18 1 callgsubr
          -779 -438 -64 callsubr
          -76 callsubr
        </CharString>
        <CharString name="Z">
          1292 1219 hmoveto
          -51 callsubr
          6 callsubr
        </CharString>
        <CharString name="Zacute">
          1292 1031 -92 callsubr
          -38 callsubr
          -146 -1875 rmoveto
          -51 callsubr
          6 callsubr
        </CharString>
        <CharString name="Zcaron">
          1292 1211 -90 callsubr
          -50 callsubr
          -145 -1885 rmoveto
          -51 callsubr
          6 callsubr
        </CharString>
        <CharString name="Zcircumflex">
          1292 771 15 callsubr
          -53 callgsubr
          591 -1555 rmoveto
          -51 callsubr
          6 callsubr
        </CharString>
        <CharString name="Zdotaccent">
          1292 977 -66 callsubr
          -32 callsubr
          242 -1555 rmoveto
          -51 callsubr
          6 callsubr
        </CharString>
        <CharString name="Zdotbelow">
          14 callgsubr
          525 -136 -93 callsubr
          77 -76 callgsubr
        </CharString>
        <CharString name="Zecyrillic">
          1405 672 -33 rmoveto
          405 335 186 316 174 -140 108 -213 26 hvcurveto
          249 40 179 119 213 vvcurveto
          215 -194 113 -322 -217 -183 -58 -76 -121 vhcurveto
          -83 -354 rlineto
          119 hlineto
          237 104 126 80 158 hhcurveto
          127 72 -72 -123 -195 -126 -103 -193 hvcurveto
          -151 hlineto
          -33 -155 rlineto
          151 hlineto
          166 94 -67 -147 -167 -111 -138 -221 -1 hvcurveto
          -165 -1 -114 78 -7 241 rrcurveto
          -120 hlineto
          -58 -357 rlineto
          -66 88 183 -66 216 hhcurveto
          endchar
        </CharString>
        <CharString name="Zetagreek">
          1292 1219 hmoveto
          -51 callsubr
          6 callsubr
        </CharString>
        <CharString name="Zhecyrillic">
          2263 465 hmoveto
          516 652 93 0 -85 -402 -19 -86 -24 -16 -150 -21 rlinecurve
          -27 -127 740 0 27 127 -140 21 -18 16 18 86 rlinecurve
          85 402 94 0 234 -652 454 0 25 121 -62 29 -27 38 -85 226 rlinecurve
          -195 523 147 132 221 195 60 31 148 22 rlinecurve
          27 127 -562 0 -27 -127 128 -15 11 -37 -125 -123 rlinecurve
          -339 -335 -94 0 82 387 19 86 25 16 148 21 rlinecurve
          27 127 -740 0 -27 -127 142 -14 17 -23 -18 -86 rlinecurve
          -82 -387 -91 0 -201 335 -76 127 39 33 129 15 rlinecurve
          26 127 -569 0 -25 -127 137 -23 50 -27 134 -198 rlinecurve
          85 -124 -425 -531 rlineto
          -178 -225 -39 -40 -73 -28 -25 -121 rcurveline
          endchar
        </CharString>
        <CharString name="Zlinebelow">
          14 callgsubr
          174 -388 -77 callsubr
        </CharString>
        <CharString name="a">
          1304 -83 callsubr
          -107 callsubr
          -104 callsubr
        </CharString>
        <CharString name="a.dnum">
          852 126 214 rmoveto
          -149 82 -79 105 99 74 57 92 39 vhcurveto
          -2 -8 -1 -14 -10 vvcurveto
          -76 -3 43 -38 75 hhcurveto
          85 79 37 49 44 hvcurveto
          18 85 rlineto
          -10 -16 -22 -5 -20 hhcurveto
          -31 -11 19 49 11 hvcurveto
          84 394 -144 0 -88 -72 rlineto
          47 -23 -53 40 -90 hhcurveto
          -189 -147 -168 -240 2 hvcurveto
          255 9 rmoveto
          112 -2 40 167 101 hhcurveto
          34 20 -14 -14 5 hvcurveto
          -51 -242 rlineto
          -63 -14 -34 -39 -41 hhcurveto
          -32 -24 24 69 -2 hvcurveto
          endchar
        </CharString>
        <CharString name="a.numr">
          852 256 829 rmoveto
          -149 83 -79 104 99 75 57 92 39 vhcurveto
          -3 -8 -1 -13 -11 vvcurveto
          -76 -3 43 -37 76 hhcurveto
          84 79 36 49 44 hvcurveto
          18 85 rlineto
          -10 -16 -21 -5 -20 hhcurveto
          -31 -11 20 49 10 hvcurveto
          84 393 -143 0 -88 -72 rlineto
          47 -24 -53 40 -90 hhcurveto
          -188 -147 -168 -240 1 hvcurveto
          256 9 rmoveto
          112 -2 39 167 102 hhcurveto
          33 21 -13 -15 5 hvcurveto
          -52 -242 rlineto
          -63 -13 -35 -39 -41 hhcurveto
          -32 -23 24 69 -2 hvcurveto
          endchar
        </CharString>
        <CharString name="a.sups">
          852 293 1000 rmoveto
          -149 82 -79 105 99 74 57 93 39 vhcurveto
          -2 -9 -1 -13 -10 vvcurveto
          -76 -3 43 -38 75 hhcurveto
          85 79 36 49 44 hvcurveto
          18 85 rlineto
          -9 -16 -22 -6 -20 hhcurveto
          -31 -11 20 49 11 hvcurveto
          84 393 -144 0 -88 -71 rlineto
          47 -23 -53 40 -90 hhcurveto
          -189 -147 -168 -241 2 hvcurveto
          255 9 rmoveto
          113 -2 40 166 101 hhcurveto
          34 20 -13 -15 5 hvcurveto
          -51 -242 rlineto
          -63 -14 -34 -38 -41 hhcurveto
          -32 -24 23 69 -2 hvcurveto
          endchar
        </CharString>
        <CharString name="aacute">
          1304 955 -52 callsubr
          -1189 -1231 -106 callsubr
          -107 callsubr
          -104 callsubr
        </CharString>
        <CharString name="abreve">
          1304 912 59 callsubr
          74 callsubr
          -734 -823 -106 callsubr
          -107 callsubr
          -104 callsubr
        </CharString>
        <CharString name="abreveacute">
          1304 1302 -33 callsubr
          285 -343 -42 callsubr
          -672 -773 -106 callsubr
          -107 callsubr
          -104 callsubr
        </CharString>
        <CharString name="abrevecyrillic">
          1304 862 111 callsubr
          156 callsubr
          -684 -821 -106 callsubr
          -107 callsubr
          -104 callsubr
        </CharString>
        <CharString name="abrevedotbelow">
          1304 912 59 callsubr
          74 callsubr
          -734 -823 -106 callsubr
          -107 callsubr
          131 -6 callsubr
          -58 callsubr
          -72 callsubr
          0 callsubr
          100 -845 9 callsubr
        </CharString>
        <CharString name="abrevegrave">
          1304 586 27 callsubr
          220 -651 -42 callsubr
          -672 -773 -106 callsubr
          -107 callsubr
          -104 callsubr
        </CharString>
        <CharString name="abrevehookabove">
          1304 969 -63 callgsubr
          233 callsubr
          100 61 22 104 rlinecurve
          102 21 -89 66 -144 hhcurveto
          -119 -647 -42 callsubr
          -672 -773 -106 callsubr
          -107 callsubr
          -104 callsubr
        </CharString>
        <CharString name="abrevetilde">
          1304 1073 1504 -46 callsubr
          -54 callsubr
          109 callsubr
          27 27 134 callsubr
          -223 -368 -42 callsubr
          -672 -773 -106 callsubr
          -107 callsubr
          -104 callsubr
        </CharString>
        <CharString name="acaron">
          1304 1145 -79 callsubr
          -65 callsubr
          -1126 -1231 -106 callsubr
          -107 callsubr
          -104 callsubr
        </CharString>
        <CharString name="acircumflex">
          1304 663 -84 callsubr
          16 callsubr
          -326 -819 -106 callsubr
          -107 callsubr
          -104 callsubr
        </CharString>
        <CharString name="acircumflexacute">
          1304 1302 -33 callsubr
          -69 -336 rmoveto
          178 callsubr
          -345 -905 -106 callsubr
          -107 callsubr
          -104 callsubr
        </CharString>
        <CharString name="acircumflexdotbelow">
          1304 663 -84 callsubr
          16 callsubr
          -326 -819 -106 callsubr
          -107 callsubr
          131 -6 callsubr
          -58 callsubr
          -72 callsubr
          0 callsubr
          100 -845 9 callsubr
        </CharString>
        <CharString name="acircumflexgrave">
          1304 586 27 callsubr
          -134 -644 rmoveto
          178 callsubr
          -345 -905 -106 callsubr
          -107 callsubr
          -104 callsubr
        </CharString>
        <CharString name="acircumflexhookabove">
          1304 1255 -64 callgsubr
          51 hhcurveto
          84 34 -29 -39 -9 hvcurveto
          -8 -39 -46 -29 -102 53 callgsubr
          178 callsubr
          -345 -905 -106 callsubr
          -107 callsubr
          -104 callsubr
        </CharString>
        <CharString name="acircumflextilde">
          1304 1073 1504 -46 callsubr
          -54 callsubr
          109 callsubr
          27 27 134 callsubr
          -577 -361 rmoveto
          178 callsubr
          -345 -905 -106 callsubr
          -107 callsubr
          -104 callsubr
        </CharString>
        <CharString name="acute">
          1024 858 -52 callsubr
          endchar
        </CharString>
        <CharString name="acutecmb">
          0 346 -52 callsubr
          endchar
        </CharString>
        <CharString name="acutecmb.short">
          0 328 1472 rmoveto
          -202 -87 callsubr
          endchar
        </CharString>
        <CharString name="acutedotaccentcmb">
          52 callgsubr
          282 -217 rmoveto
          45 208 -756 -188 -26 -120 rlineto
          endchar
        </CharString>
        <CharString name="acutedotaccentcmb.short">
          0 407 1787 rmoveto
          76 58 49 68 -1 hvcurveto
          69 -2 -61 48 -76 hhcurveto
          -75 -58 -48 -69 1 239 callsubr
          -767 -161 -22 -101 rlineto
          endchar
        </CharString>
        <CharString name="acyrillic">
          1304 -83 callsubr
          -107 callsubr
          -104 callsubr
        </CharString>
        <CharString name="adblgrave">
          1304 717 -14 callsubr
          239 -106 callgsubr
          -305 -86 callgsubr
          -916 -819 -106 callsubr
          -107 callsubr
          -104 callsubr
        </CharString>
        <CharString name="adieresis">
          1304 649 -37 callsubr
          -89 callsubr
          -36 callsubr
          -89 callsubr
          -965 -843 -106 callsubr
          -107 callsubr
          -104 callsubr
        </CharString>
        <CharString name="adieresismacron">
          1304 576 129 callsubr
          46 -542 rmoveto
          74 72 53 75 22 callsubr
          181 callsubr
          15 hvcurveto
          75 17 -26 callsubr
          -865 -796 -106 callsubr
          -107 callsubr
          -104 callsubr
        </CharString>
        <CharString name="adotaccent">
          1304 897 117 callsubr
          -719 -832 -106 callsubr
          -107 callsubr
          -104 callsubr
        </CharString>
        <CharString name="adotbelow">
          1304 -83 callsubr
          -107 callsubr
          131 -6 callsubr
          -58 callsubr
          -72 callsubr
          0 callsubr
          100 -845 9 callsubr
        </CharString>
        <CharString name="adotmacron">
          1304 574 64 callgsubr
          -706 -793 -106 callsubr
          -107 callsubr
          -104 callsubr
        </CharString>
        <CharString name="ae">
          1650 255 796 143 callsubr
        </CharString>
        <CharString name="aeacute">
          1650 1176 -52 callsubr
          -1333 -798 143 callsubr
        </CharString>
        <CharString name="aemacron">
          1650 748 -53 callsubr
          -537 -673 143 callsubr
        </CharString>
        <CharString name="agrave">
          1304 914 -40 callsubr
          -832 -819 -106 callsubr
          -107 callsubr
          -104 callsubr
        </CharString>
        <CharString name="ahookabove">
          1304 959 -70 callgsubr
          54 hhcurveto
          80 43 58 callgsubr
          -128 vhcurveto
          -781 -1236 -106 callsubr
          -107 callsubr
          -104 callsubr
        </CharString>
        <CharString name="ainvertedbreve">
          1304 904 46 callsubr
          168 callsubr
          -726 -1226 -106 callsubr
          -107 callsubr
          -104 callsubr
        </CharString>
        <CharString name="alphagreek">
          1355 506 -23 184 callsubr
        </CharString>
        <CharString name="alphatonosgreek">
          1355 910 84 callgsubr
          -769 -1617 184 callsubr
        </CharString>
        <CharString name="amacron">
          1304 527 -53 callsubr
          -393 -1106 -106 callsubr
          -107 callsubr
          -104 callsubr
        </CharString>
        <CharString name="ampersand">
          1620 120 351 rmoveto
          -212 148 -172 288 169 141 69 147 155 vhcurveto
          155 -182 419 -1 20 89 -103 91 -90 107 -101 120 rlinecurve
          -26 31 129 127 166 160 45 24 117 15 rlinecurve
          25 127 -490 0 -25 -127 135 -17 7 -27 -91 -101 rlinecurve
          -90 -96 -261 310 rlineto
          252 77 122 106 148 vvcurveto
          189 -165 124 -280 -295 -185 -163 -230 -2 vhcurveto
          -1 -105 34 -90 76 -106 rrcurveto
          -265 -74 -133 -143 -215 vvcurveto
          644 816 rmoveto
          89 56 52 82 85 45 -66 -88 -90 -45 -77 -102 -61 vhcurveto
          -86 108 -35 64 69 vvcurveto
          -283 -691 rmoveto
          93 42 66 73 48 vhcurveto
          2 -2 350 -412 rlineto
          -37 -55 -54 -20 -62 hhcurveto
          -173 -123 113 151 hvcurveto
          endchar
        </CharString>
        <CharString name="anoteleiagreek">
          617 488 660 -23 callgsubr
        </CharString>
        <CharString name="aogonek">
          1304 -83 callsubr
          -107 callsubr
          8 7 0 1 7 260 callsubr
          97 95 32 37 36 vhcurveto
          27 111 callgsubr
          162 136 hvcurveto
          1 1 28 -58 callsubr
          -72 callsubr
          0 callsubr
          endchar
        </CharString>
        <CharString name="approxequal">
          1289 1071 880 rmoveto
          -147 -132 206 -216 hhcurveto
          -201 -145 -160 -305 -28 hvcurveto
          205 hlineto
          143 21 62 64 88 147 131 -207 216 hhcurveto
          201 146 160 305 28 hvcurveto
          -206 hlineto
          -143 -21 -62 -63 -87 hhcurveto
          -110 -516 121 callgsubr
          -305 -28 hvcurveto
          205 hlineto
          143 21 63 64 87 147 132 -207 215 hhcurveto
          202 145 161 304 28 hvcurveto
          -205 hlineto
          -142 -22 -62 -64 -87 hhcurveto
          endchar
        </CharString>
        <CharString name="aring">
          1304 588 1379 rmoveto
          -137 125 -88 170 100 callsubr
          254 callsubr
          -632 -1010 -106 callsubr
          -107 callsubr
          -104 callsubr
        </CharString>
        <CharString name="aringacute">
          1304 1303 1582 -22 callgsubr
          203 callsubr
          -717 -877 -106 callsubr
          -107 callsubr
          -104 callsubr
        </CharString>
        <CharString name="aringbelow">
          1304 -83 callsubr
          -107 callsubr
          131 -6 callsubr
          -58 callsubr
          -72 callsubr
          0 callsubr
          -215 -681 rmoveto
          -122 3 127 -78 171 hhcurveto
          218 117 104 108 -5 hvcurveto
          122 -3 -126 78 -171 hhcurveto
          -219 -117 -105 -107 5 hvcurveto
          223 -5 rmoveto
          61 -3 48 37 57 261 callsubr
          -33 30 47 -2 hvcurveto
          endchar
        </CharString>
        <CharString name="asciicircum">
          1289 829 1444 rmoveto
          -555 -604 148 -134 492 489 287 -489 172 134 -299 604 rlineto
          endchar
        </CharString>
        <CharString name="asciitilde">
          1289 1013 609 121 callgsubr
          -304 -28 hvcurveto
          205 hlineto
          142 21 63 64 87 148 131 -206 215 hhcurveto
          202 145 159 305 28 hvcurveto
          -205 hlineto
          -142 -22 -62 -64 -87 hhcurveto
          endchar
        </CharString>
        <CharString name="asterisk">
          919 748 1474 rmoveto
          -67 -43 -47 -86 -21 2 -22 4 -28 hvcurveto
          28 -187 30 0 108 183 rlineto
          26 43 10 35 30 vvcurveto
          60 -41 40 -57 vhcurveto
          -303 -134 rmoveto
          -62 -45 -48 -57 -53 35 -45 102 -27 hvcurveto
          179 -53 18 26 -88 154 rlineto
          75 -42 -51 28 -46 hhcurveto
          545 -56 rmoveto
          -48 -36 -22 -57 -64 hvcurveto
          -140 -122 11 -28 159 12 rlineto
          160 6 57 50 66 vvcurveto
          55 -39 40 -60 vhcurveto
          -613 -455 rmoveto
          48 36 21 58 65 hvcurveto
          139 122 -11 27 -159 -11 rlineto
          -160 -7 -57 -49 -66 vvcurveto
          -55 39 -40 60 vhcurveto
          652 48 rmoveto
          53 -35 46 -102 27 vhcurveto
          -179 52 -17 -25 87 -154 rlineto
          -76 42 52 -27 45 hhcurveto
          63 44 48 56 hvcurveto
          -410 -239 rmoveto
          67 43 48 86 20 -2 23 -3 27 hvcurveto
          -28 188 -31 0 -108 -183 rlineto
          -26 -43 -10 -36 -29 vvcurveto
          -60 41 -41 57 vhcurveto
          endchar
        </CharString>
        <CharString name="at">
          2127 1521 -293 rmoveto
          126 vlineto
          -67 -128 -130 -21 -166 hhcurveto
          -407 -292 262 443 429 315 440 547 465 258 -251 -368 -293 -167 -180 -164 -82 -9 41 89 19 hvcurveto
          136 638 -226 0 -98 -118 rlineto
          93 -37 -86 54 -119 hhcurveto
          -276 -186 -304 -321 -225 97 -120 155 132 106 75 160 82 hvcurveto
          -3 -16 -1 -17 -16 vvcurveto
          -128 112 -86 170 348 284 277 424 446 -360 309 -552 -668 -380 -521 -515 -540 380 -325 475 192 184 58 68 80 vhcurveto
          -490 701 rmoveto
          192 92 287 128 60 37 -49 -88 -12 vhcurveto
          -63 -298 rlineto
          -116 -25 -64 -75 -68 hhcurveto
          -58 -27 50 97 hvcurveto
          endchar
        </CharString>
        <CharString name="atilde">
          1304 1036 157 callsubr
          -69 hhcurveto
          -118 -101 -101 callgsubr
          115 callsubr
          -858 -839 -106 callsubr
          -107 callsubr
          -104 callsubr
        </CharString>
        <CharString name="austral">
          1505 81 369 rmoveto
          214 hlineto
          -53 -94 -61 -110 -26 -25 -124 -13 rlinecurve
          -26 -127 478 0 28 127 -127 15 -14 26 56 105 rlinecurve
          51 96 496 0 11 -96 11 -108 -16 -21 -143 -17 rlinecurve
          -26 -127 685 0 27 127 -120 13 -16 24 -14 111 rlinecurve
          -13 94 221 0 21 100 -255 0 -23 176 316 0 21 100 -350 0 -91 699 -325 0 -390 -699 -342 0 -22 -100 309 0 -98 -176 rlineto
          -248 hlineto
          574 276 rmoveto
          211 396 44 -396 rlineto
          -402 -276 rmoveto
          94 176 319 0 19 -176 rlineto
          endchar
        </CharString>
        <CharString name="austral.tnum">
          1331 93 461 rmoveto
          -22 -100 172 0 -44 -86 -56 -110 -21 -27 -99 -11 rlinecurve
          -27 -127 440 0 27 127 -122 15 -8 23 53 108 rlinecurve
          44 88 419 0 5 -88 7 -108 -16 -21 -136 -17 rlinecurve
          -27 -127 653 0 27 127 -96 11 -9 26 -9 111 rlinecurve
          -7 86 173 0 21 100 -203 0 -15 175 255 0 22 100 -285 0 -61 708 -350 0 -363 -708 -284 0 -22 -100 255 0 -89 -175 rlineto
          319 275 rmoveto
          189 386 24 -386 rlineto
          -348 -275 rmoveto
          85 175 269 0 10 -175 rlineto
          endchar
        </CharString>
        <CharString name="b">
          -40 callgsubr
          endchar
        </CharString>
        <CharString name="backslash">
          829 477 -280 rmoveto
          254 hlineto
          -103 1860 rlineto
          -254 hlineto
          endchar
        </CharString>
        <CharString name="baht">
          1476 1495 460 rmoveto
          149 -111 136 -248 33 vhcurveto
          233 22 185 105 1 190 1 171 -125 114 -309 27 rrcurveto
          48 225 -100 0 -47 -219 rlineto
          1 -19 -20 0 -21 hhcurveto
          -605 hlineto
          -27 -127 137 235 callsubr
          665 0 -46 -220 99 0 48 223 rlineto
          422 22 243 156 249 vvcurveto
          -722 363 rmoveto
          95 447 60 -2 rlineto
          22 -1 22 -2 19 -3 -93 -438 rcurveline
          -1 -9 -10 0 -10 hhcurveto
          292 248 rmoveto
          -111 -55 -82 -104 -35 vhcurveto
          82 386 rlineto
          51 -31 26 -52 -75 vvcurveto
          -419 -392 rmoveto
          96 -2 rlineto
          10 9 -1 10 hhcurveto
          -106 -498 rlineto
          -2 -21 -22 -1 -22 hhcurveto
          -63 -1 rlineto
          447 277 rmoveto
          -130 -68 -90 -148 -37 vhcurveto
          98 459 rlineto
          77 -34 41 -69 -99 vvcurveto
          endchar
        </CharString>
        <CharString name="baht.tnum">
          24 callgsubr
          157 -112 110 -277 26 vhcurveto
          48 224 -100 0 -47 -218 rlineto
          -12 -12 0 -12 hhcurveto
          -562 hlineto
          34 callgsubr
          598 0 -47 -220 100 0 47 222 rlineto
          393 17 228 157 254 vvcurveto
          -650 363 rmoveto
          95 447 57 -2 rlineto
          14 -1 13 -1 12 -2 -93 -441 rcurveline
          -4 -4 0 -4 hhcurveto
          259 268 rmoveto
          -112 -50 -92 -93 -41 vhcurveto
          82 385 rlineto
          41 -28 20 -46 -66 vvcurveto
          -375 -412 rmoveto
          70 -2 rlineto
          9 9 -1 8 hhcurveto
          -106 -499 rlineto
          -1 -11 -11 -1 -11 hhcurveto
          -67 -1 rlineto
          403 307 rmoveto
          -142 -67 -102 -132 -41 vhcurveto
          97 456 rlineto
          68 -32 34 -60 -79 vvcurveto
          endchar
        </CharString>
        <CharString name="bar">
          829 228 -280 rmoveto
          254 hlineto
          395 1860 rlineto
          -254 hlineto
          endchar
        </CharString>
        <CharString name="bdotaccent">
          1297 732 1599 rmoveto
          110 88 88 108 100 56 callsubr
          607 -922 192 callsubr
          endchar
        </CharString>
        <CharString name="bdotbelow">
          -40 callgsubr
          -346 -1125 -71 callsubr
          -1 -73 72 -96 61 callsubr
        </CharString>
        <CharString name="becyrillic">
          1269 1295 576 rmoveto
          271 -160 178 -275 -207 -157 -114 -151 -82 vhcurveto
          9 219 103 164 310 16 rrcurveto
          158 8 310 15 113 89 56 272 rlinecurve
          -125 hlineto
          -24 -47 -80 -18 -138 -4 rrcurveto
          -573 -13 -336 -400 -559 vvcurveto
          -334 167 -193 308 348 275 258 343 vhcurveto
          -376 91 rmoveto
          -209 -84 -320 -149 -72 -43 64 138 209 84 320 149 72 43 -64 -138 vhcurveto
          endchar
        </CharString>
        <CharString name="betagreek">
          1286 14 -460 rmoveto
          393 hlineto
          94 570 rlineto
          -76 66 111 -58 132 hhcurveto
          289 203 212 250 23 hvcurveto
          27 249 -139 142 -190 28 188 72 104 107 15 159 rrcurveto
          201 21 -130 151 -308 hhcurveto
          -299 -211 -186 -369 -78 hvcurveto
          393 141 rmoveto
          157 33 45 85 93 hhcurveto
          67 54 -59 -149 -21 hvcurveto
          -17 -156 -69 -83 -153 -7 rrcurveto
          -50 -238 172 -4 82 -80 -18 -185 rlinecurve
          -176 -16 -104 -84 -110 hhcurveto
          -74 -55 31 61 -49 hvcurveto
          endchar
        </CharString>
        <CharString name="bitcoin">
          1476 1495 460 rmoveto
          149 -110 136 -249 33 vhcurveto
          233 22 185 105 1 190 1 149 -95 106 -229 43 rrcurveto
          51 239 -100 0 -49 -226 rlineto
          5 -50 -56 3 -61 hhcurveto
          47 218 -101 0 -47 -218 -508 0 -27 -127 137 235 callsubr
          509 0 -47 -219 100 0 47 219 rlineto
          51 hlineto
          41 40 1 2 38 hvcurveto
          -48 -222 101 0 49 231 rlineto
          351 43 199 149 226 vvcurveto
          -334 611 rmoveto
          -152 -104 -96 -188 vhcurveto
          -96 hlineto
          95 447 60 -2 rlineto
          154 -5 79 -62 -130 vvcurveto
          -81 -620 rmoveto
          -172 -120 -101 -264 -3 vhcurveto
          -63 -1 109 505 96 -2 rlineto
          155 -3 87 -80 -143 vvcurveto
          endchar
        </CharString>
        <CharString name="bitcoin.tnum">
          24 callgsubr
          135 -83 100 -197 42 vhcurveto
          51 240 -100 0 -49 -225 rlineto
          5 -44 -49 2 -53 hhcurveto
          -21 hlineto
          47 218 -101 0 -46 -218 -441 0 34 callgsubr
          441 0 -47 -219 100 0 47 219 rlineto
          84 hlineto
          29 29 1 1 27 hvcurveto
          -47 -221 101 0 48 230 rlineto
          323 41 184 150 228 vvcurveto
          -305 631 rmoveto
          -153 -92 -115 -167 vhcurveto
          -86 hlineto
          95 447 57 -3 rlineto
          128 -7 65 -51 -118 vvcurveto
          -82 -610 rmoveto
          -184 -113 -115 -223 -7 vhcurveto
          -67 -1 110 505 70 -2 rlineto
          149 -4 74 -75 -117 vvcurveto
          endchar
        </CharString>
        <CharString name="blinebelow">
          -40 callgsubr
          -686 -1048 -77 callsubr
        </CharString>
        <CharString name="braceleft">
          829 845 1044 rmoveto
          47 212 rlineto
          139 30 48 58 142 hhcurveto
          27 127 rlineto
          -48 hlineto
          -318 -170 -106 -237 -53 hvcurveto
          -58 -260 rlineto
          -154 -34 -80 -47 -122 hhcurveto
          -27 -123 rlineto
          128 55 -47 -155 -32 hvcurveto
          -69 -329 rlineto
          -266 -56 117 -136 322 hhcurveto
          48 hlineto
          27 127 rlineto
          -154 -4 93 145 30 hvcurveto
          46 214 rlineto
          47 225 -61 138 -231 48 235 30 120 91 48 213 rrcurveto
          endchar
        </CharString>
        <CharString name="braceright">
          829 428 1044 rmoveto
          -43 -213 81 -91 223 -30 -252 -48 -120 -138 -48 -225 -45 -214 rcurveline
          -145 -32 -43 -93 -154 hhcurveto
          -28 -127 rlineto
          48 hlineto
          322 175 136 266 57 hvcurveto
          71 329 rlineto
          155 33 76 47 128 hhcurveto
          26 123 rlineto
          -123 -59 47 154 31 hvcurveto
          53 260 rlineto
          237 48 -125 106 -318 hhcurveto
          -48 hlineto
          -28 -127 rlineto
          142 24 -58 -139 -29 hvcurveto
          endchar
        </CharString>
        <CharString name="bracketleft">
          829 183 -280 rmoveto
          559 hlineto
          27 127 -266 0 343 1606 266 0 27 127 rlineto
          -559 hlineto
          endchar
        </CharString>
        <CharString name="bracketright">
          829 923 1580 rmoveto
          -560 hlineto
          -27 -127 266 0 -343 -1606 -266 0 -27 -127 rlineto
          560 hlineto
          endchar
        </CharString>
        <CharString name="breve">
          1024 815 59 callsubr
          -75 65 79 4 1 -74 callgsubr
          endchar
        </CharString>
        <CharString name="breveacutecmb">
          -73 callgsubr
          285 -343 -42 callsubr
          endchar
        </CharString>
        <CharString name="breveacutecmb.short">
          0 769 242 callsubr
          306 -281 141 callsubr
        </CharString>
        <CharString name="brevebelowcmb">
          0 -58 -477 212 callsubr
        </CharString>
        <CharString name="brevecmb">
          0 303 59 callsubr
          -75 65 79 4 1 -74 callgsubr
          endchar
        </CharString>
        <CharString name="brevecmb.short">
          0 290 1167 rmoveto
          197 131 124 228 7 hvcurveto
          -124 hlineto
          -90 -17 -78 -51 -107 hhcurveto
          -96 -67 232 callsubr
          -35 vvcurveto
          -149 1 123 -109 168 hhcurveto
          endchar
        </CharString>
        <CharString name="brevecyrilliccmb">
          0 253 111 callsubr
          156 callsubr
          endchar
        </CharString>
        <CharString name="brevecyrilliccmb.short">
          0 324 1562 rmoveto
          197 173 98 216 65 hvcurveto
          -133 36 rlineto
          -124 -43 -107 -84 -117 hhcurveto
          -15 -15 1 2 -14 hvcurveto
          19 21 13 28 32 vvcurveto
          86 -62 61 -75 -93 -61 -64 -93 -115 92 -101 176 vhcurveto
          endchar
        </CharString>
        <CharString name="brevegravecmb">
          0 -23 27 callsubr
          220 -651 -42 callsubr
          endchar
        </CharString>
        <CharString name="brevegravecmb.short">
          0 36 -51 callgsubr
          251 -543 141 callsubr
        </CharString>
        <CharString name="brevehookabovecmb">
          0 360 -63 callgsubr
          233 callsubr
          99 61 23 104 rlinecurve
          102 21 -89 66 -144 hhcurveto
          -119 -647 -42 callsubr
          endchar
        </CharString>
        <CharString name="brevehookabovecmb.short">
          0 420 2066 rmoveto
          -91 -96 -27 -36 -64 hvcurveto
          -18 -79 rlineto
          13 38 66 13 53 hhcurveto
          85 37 -25 -33 -8 hvcurveto
          -7 -33 -47 -26 -104 -16 rrcurveto
          100 -62 160 28 101 53 18 88 rlinecurve
          87 18 -94 55 -147 hhcurveto
          -96 -539 141 callsubr
        </CharString>
        <CharString name="brevetildecmb">
          0 464 1504 -46 callsubr
          -54 callsubr
          109 callsubr
          26 28 134 callsubr
          -223 -368 -42 callsubr
          endchar
        </CharString>
</ttFont>
